{"glyphs":{"0":{"ha":690,"x_min":53,"x_max":643,"o":"m 422 872 q 584 806 525 872 q 643 593 643 739 q 599 280 643 418 q 471 63 554 142 q 278 -15 388 -15 q 110 53 167 -15 q 53 275 53 121 q 94 572 53 436 q 219 790 136 708 q 422 872 303 872 m 300 106 q 424 160 369 106 q 510 314 479 214 q 542 547 542 414 q 504 709 542 664 q 397 754 467 754 q 263 694 318 754 q 180 535 207 635 q 153 317 153 436 q 193 151 153 197 q 300 106 233 106 z "},"1":{"ha":690,"x_min":10,"x_max":576,"o":"m 576 53 l 567 0 l 10 0 l 18 53 l 246 90 l 363 746 l 144 746 l 154 801 l 518 854 l 381 90 l 576 53 z "},"2":{"ha":690,"x_min":-6,"x_max":649,"o":"m -6 78 l 328 368 q 462 519 422 451 q 501 665 501 588 q 469 746 501 715 q 368 776 436 776 q 167 726 288 776 l 146 790 q 285 852 228 832 q 426 872 343 872 q 649 683 649 872 q 588 495 649 589 q 399 297 526 401 l 144 92 l 483 110 l 524 143 l 590 144 l 557 0 l 8 0 l -6 78 z "},"3":{"ha":690,"x_min":0,"x_max":599,"o":"m 375 872 q 540 833 481 872 q 599 717 599 793 q 536 566 599 629 q 382 467 474 503 q 516 402 468 450 q 564 286 564 354 q 515 131 564 199 q 378 25 467 63 q 176 -12 290 -12 q 78 -10 114 -12 q 0 3 42 -7 l 11 75 q 144 65 79 65 q 344 122 268 65 q 421 283 421 178 q 360 387 421 358 q 194 415 299 415 l 194 481 q 387 552 321 496 q 453 690 453 608 q 426 759 453 736 q 338 782 399 782 q 153 739 254 782 l 135 803 q 252 854 194 836 q 375 872 310 872 z "},"4":{"ha":690,"x_min":-12,"x_max":619,"o":"m 338 0 l 369 182 l -4 182 l -12 244 l 514 863 l 614 851 l 510 269 l 619 269 l 604 182 l 496 182 l 463 0 l 338 0 m 114 269 l 385 269 l 457 671 l 114 269 z "},"5":{"ha":690,"x_min":11,"x_max":647,"o":"m 629 751 l 274 751 l 221 549 q 510 482 432 547 q 588 314 588 417 q 538 144 588 218 q 397 28 489 69 q 182 -14 306 -14 q 11 1 74 -14 l 25 79 q 97 68 68 71 q 169 65 125 65 q 308 94 246 65 q 407 175 371 122 q 443 297 443 228 q 367 427 443 389 q 126 465 292 465 l 115 499 l 214 850 l 647 850 l 629 751 z "},"6":{"ha":690,"x_min":49,"x_max":624,"o":"m 275 -18 q 103 50 157 -18 q 49 229 49 118 q 123 526 49 388 q 320 756 197 664 q 585 878 443 849 l 593 821 q 357 676 450 775 q 224 447 264 578 q 436 526 318 526 q 581 474 538 526 q 624 338 624 422 q 593 178 624 258 q 485 40 563 97 q 275 -18 407 -18 m 306 61 q 438 133 393 61 q 482 318 482 204 q 463 410 482 378 q 389 442 443 442 q 285 415 332 442 q 203 354 238 389 q 189 218 189 285 q 306 61 189 61 z "},"7":{"ha":690,"x_min":88,"x_max":697,"o":"m 142 850 l 681 850 l 697 800 l 210 -35 l 88 6 l 571 749 l 124 749 l 142 850 z "},"8":{"ha":690,"x_min":42,"x_max":650,"o":"m 267 -18 q 94 27 147 -18 q 42 147 42 72 q 101 306 42 231 q 257 433 160 382 q 143 625 143 515 q 181 751 143 694 q 287 840 218 807 q 446 872 356 872 q 601 826 553 872 q 650 711 650 781 q 603 583 650 649 q 447 460 556 517 q 582 247 582 360 q 545 112 582 172 q 438 17 508 51 q 267 -18 367 -18 m 388 499 q 496 588 464 542 q 528 692 528 633 q 505 771 528 743 q 421 799 482 799 q 313 763 360 799 q 265 663 265 728 q 388 499 265 576 m 286 57 q 408 98 361 57 q 456 204 456 139 q 424 299 456 257 q 315 394 393 342 q 168 164 168 303 q 286 57 168 57 z "},"9":{"ha":690,"x_min":67,"x_max":650,"o":"m 67 36 q 334 157 222 57 q 485 401 446 257 q 275 328 388 328 q 119 387 165 328 q 72 556 72 446 q 105 690 72 617 q 214 818 138 764 q 410 872 290 872 q 587 800 524 872 q 650 617 650 728 q 567 279 650 424 q 353 58 485 135 q 76 -22 221 -18 l 67 36 m 328 414 q 501 482 401 414 q 515 625 515 547 q 484 752 515 711 q 383 793 453 793 q 258 729 303 793 q 213 565 213 665 q 241 454 213 494 q 328 414 269 414 z "},"\u0000":{"ha":0,"x_min":0,"x_max":0,"o":""},"\r":{"ha":244,"x_min":0,"x_max":0,"o":""}," ":{"ha":244,"x_min":0,"x_max":0,"o":""},"A":{"ha":768,"x_min":-53,"x_max":735,"o":"m 485 282 l 246 282 l 142 74 l 231 54 l 218 0 l -53 0 l -44 53 l 54 75 l 450 854 l 533 869 l 649 79 l 735 53 l 725 0 l 417 0 l 425 54 l 513 74 l 485 282 m 279 347 l 475 347 l 433 653 l 279 347 z "},"Á":{"ha":804,"x_min":-54,"x_max":733,"o":"m 389 897 l 361 931 l 576 1111 l 692 1069 l 692 1043 l 389 897 m -54 0 l -44 53 l 54 75 l 449 854 l 532 869 l 647 79 l 733 53 l 724 0 l 415 0 l 424 54 l 511 74 l 483 282 l 244 282 l 142 74 l 229 54 l 217 0 l -54 0 m 278 347 l 474 347 l 432 653 l 278 347 z "},"Ă":{"ha":804,"x_min":-54,"x_max":733,"o":"m 500 922 q 360 1043 360 922 q 368 1092 360 1061 l 424 1092 q 421 1068 421 1078 q 441 1022 422 1039 q 513 1006 460 1006 q 606 1029 578 1006 q 642 1092 635 1053 l 696 1092 q 500 922 663 922 m -54 0 l -44 53 l 54 75 l 449 854 l 532 869 l 647 79 l 733 53 l 724 0 l 415 0 l 424 54 l 511 74 l 483 282 l 244 282 l 142 74 l 229 54 l 217 0 l -54 0 m 278 347 l 474 347 l 432 653 l 278 347 z "},"Ắ":{"ha":768,"x_min":-53,"x_max":776,"o":"m 0 0 m 485 282 l 246 282 l 142 74 l 231 54 l 218 0 l -53 0 l -44 53 l 54 75 l 450 854 l 533 869 l 649 79 l 735 53 l 725 0 l 417 0 l 425 54 l 513 74 l 485 282 m 279 347 l 475 347 l 433 653 l 279 347 m 496 922 q 354 1043 354 922 q 363 1092 354 1061 l 419 1092 q 415 1068 415 1082 q 435 1022 417 1039 q 507 1006 454 1006 q 601 1029 572 1006 q 636 1092 629 1053 l 690 1092 q 496 922 657 922 m 472 1083 l 446 1117 l 661 1297 l 776 1256 l 776 1229 l 472 1083 z "},"Ặ":{"ha":768,"x_min":-53,"x_max":735,"o":"m 0 0 m 485 282 l 246 282 l 142 74 l 231 54 l 218 0 l -53 0 l -44 53 l 54 75 l 450 854 l 533 869 l 649 79 l 735 53 l 725 0 l 417 0 l 425 54 l 513 74 l 485 282 m 279 347 l 475 347 l 433 653 l 279 347 m 289 -57 q 351 -83 324 -57 q 378 -146 378 -110 q 351 -207 378 -182 q 289 -232 325 -232 q 226 -207 253 -232 q 199 -146 199 -182 q 226 -83 199 -110 q 289 -57 253 -57 m 496 922 q 354 1043 354 922 q 363 1092 354 1061 l 419 1092 q 415 1068 415 1082 q 435 1022 417 1039 q 507 1006 454 1006 q 601 1029 572 1006 q 636 1092 629 1053 l 690 1092 q 496 922 657 922 z "},"Ằ":{"ha":768,"x_min":-53,"x_max":735,"o":"m 0 0 m 485 282 l 246 282 l 142 74 l 231 54 l 218 0 l -53 0 l -44 53 l 54 75 l 450 854 l 533 869 l 649 79 l 735 53 l 725 0 l 417 0 l 425 54 l 513 74 l 485 282 m 279 347 l 475 347 l 433 653 l 279 347 m 496 922 q 354 1043 354 922 q 363 1092 354 1061 l 419 1092 q 415 1068 415 1082 q 435 1022 417 1039 q 507 1006 454 1006 q 601 1029 572 1006 q 636 1092 629 1053 l 690 1092 q 496 922 657 922 m 593 1083 l 289 1229 l 290 1256 l 404 1297 l 618 1117 l 593 1083 z "},"Ẳ":{"ha":768,"x_min":-53,"x_max":735,"o":"m 0 0 m 485 282 l 246 282 l 142 74 l 231 54 l 218 0 l -53 0 l -44 53 l 54 75 l 450 854 l 533 869 l 649 79 l 735 53 l 725 0 l 417 0 l 425 54 l 513 74 l 485 282 m 279 347 l 475 347 l 433 653 l 279 347 m 496 922 q 354 1043 354 922 q 363 1092 354 1061 l 419 1092 q 415 1068 415 1082 q 435 1022 417 1039 q 507 1006 454 1006 q 601 1029 572 1006 q 636 1092 629 1053 l 690 1092 q 496 922 657 922 m 515 1139 q 529 1167 517 1157 q 564 1185 542 1176 q 597 1203 586 1194 q 608 1229 608 1213 q 565 1258 608 1258 l 533 1257 l 515 1214 l 469 1214 l 475 1288 q 581 1299 538 1299 q 663 1282 633 1299 q 693 1233 693 1265 q 643 1169 693 1192 q 615 1159 633 1165 q 585 1144 596 1153 q 571 1122 574 1136 l 514 1122 l 515 1139 z "},"Ẵ":{"ha":768,"x_min":-53,"x_max":764,"o":"m 0 0 m 485 282 l 246 282 l 142 74 l 231 54 l 218 0 l -53 0 l -44 53 l 54 75 l 450 854 l 533 869 l 649 79 l 735 53 l 725 0 l 417 0 l 425 54 l 513 74 l 485 282 m 279 347 l 475 347 l 433 653 l 279 347 m 496 922 q 354 1043 354 922 q 363 1092 354 1061 l 419 1092 q 415 1068 415 1082 q 435 1022 417 1039 q 507 1006 454 1006 q 601 1029 572 1006 q 636 1092 629 1053 l 690 1092 q 496 922 657 922 m 764 1246 q 713 1147 739 1182 q 656 1111 688 1111 q 540 1139 629 1111 q 435 1165 464 1165 q 408 1154 421 1165 q 386 1132 394 1143 q 375 1117 378 1121 l 326 1136 q 436 1274 378 1274 q 549 1246 465 1274 q 610 1226 581 1235 q 657 1218 640 1218 q 685 1228 672 1218 q 707 1250 699 1239 q 717 1265 715 1261 l 764 1246 z "},"Ǎ":{"ha":768,"x_min":-53,"x_max":735,"o":"m 0 0 m 485 282 l 246 282 l 142 74 l 231 54 l 218 0 l -53 0 l -44 53 l 54 75 l 450 854 l 533 869 l 649 79 l 735 53 l 725 0 l 417 0 l 425 54 l 513 74 l 485 282 m 279 347 l 475 347 l 433 653 l 279 347 m 365 1113 l 510 1004 l 692 1114 l 721 1083 l 542 900 l 447 900 l 328 1085 l 365 1113 z "},"Â":{"ha":804,"x_min":-54,"x_max":733,"o":"m 661 899 l 526 1007 l 335 899 l 306 929 l 494 1113 l 589 1113 l 699 928 l 661 899 m 483 282 l 244 282 l 142 74 l 229 54 l 217 0 l -54 0 l -44 53 l 54 75 l 449 854 l 532 869 l 647 79 l 733 53 l 724 0 l 415 0 l 424 54 l 511 74 l 483 282 m 278 347 l 474 347 l 432 653 l 278 347 z "},"Ấ":{"ha":768,"x_min":-53,"x_max":896,"o":"m 661 967 l 625 988 l 764 1233 l 886 1233 l 896 1207 l 661 967 m 614 899 l 478 1010 l 288 899 l 258 929 l 447 1113 l 540 1113 l 651 928 l 614 899 m 485 282 l 246 282 l 142 74 l 231 54 l 218 0 l -53 0 l -44 53 l 54 75 l 450 854 l 533 869 l 649 79 l 735 53 l 725 0 l 417 0 l 425 54 l 513 74 l 485 282 m 279 347 l 475 347 l 433 653 l 279 347 z "},"Ậ":{"ha":768,"x_min":-53,"x_max":735,"o":"m 0 0 m 485 282 l 246 282 l 142 74 l 231 54 l 218 0 l -53 0 l -44 53 l 54 75 l 450 854 l 533 869 l 649 79 l 735 53 l 725 0 l 417 0 l 425 54 l 513 74 l 485 282 m 279 347 l 475 347 l 433 653 l 279 347 m 289 -57 q 351 -83 324 -57 q 378 -146 378 -110 q 351 -207 378 -182 q 289 -232 325 -232 q 226 -207 253 -232 q 199 -146 199 -182 q 226 -83 199 -110 q 289 -57 253 -57 m 650 899 l 514 1010 l 324 899 l 294 929 l 483 1113 l 576 1113 l 688 928 l 650 899 z "},"Ầ":{"ha":768,"x_min":-53,"x_max":735,"o":"m 675 964 l 528 1211 l 544 1233 l 640 1233 l 715 978 l 675 964 m 614 899 l 478 1010 l 288 899 l 258 929 l 447 1113 l 540 1113 l 651 928 l 614 899 m 485 282 l 246 282 l 142 74 l 231 54 l 218 0 l -53 0 l -44 53 l 54 75 l 450 854 l 533 869 l 649 79 l 735 53 l 725 0 l 417 0 l 425 54 l 513 74 l 485 282 m 279 347 l 475 347 l 433 653 l 279 347 z "},"Ẩ":{"ha":768,"x_min":-53,"x_max":840,"o":"m 0 0 m 485 282 l 246 282 l 142 74 l 231 54 l 218 0 l -53 0 l -44 53 l 54 75 l 450 854 l 533 869 l 649 79 l 735 53 l 725 0 l 417 0 l 425 54 l 513 74 l 485 282 m 279 347 l 475 347 l 433 653 l 279 347 m 650 899 l 514 1010 l 324 899 l 294 929 l 483 1113 l 576 1113 l 688 928 l 650 899 m 663 1074 q 676 1101 664 1092 q 711 1119 689 1111 q 744 1138 733 1129 q 756 1164 756 1147 q 713 1193 756 1193 l 681 1192 l 663 1149 l 617 1149 l 622 1222 q 728 1233 685 1233 q 810 1217 781 1233 q 840 1168 840 1200 q 790 1104 840 1126 q 762 1094 781 1100 q 732 1079 743 1088 q 718 1057 721 1071 l 661 1057 l 663 1074 z "},"Ẫ":{"ha":768,"x_min":-53,"x_max":771,"o":"m 0 0 m 485 282 l 246 282 l 142 74 l 231 54 l 218 0 l -53 0 l -44 53 l 54 75 l 450 854 l 533 869 l 649 79 l 735 53 l 725 0 l 417 0 l 425 54 l 513 74 l 485 282 m 279 347 l 475 347 l 433 653 l 279 347 m 650 899 l 514 1010 l 324 899 l 294 929 l 483 1113 l 576 1113 l 688 928 l 650 899 m 771 1257 q 720 1158 746 1193 q 663 1122 694 1122 q 547 1150 636 1122 q 442 1176 471 1176 q 415 1165 428 1176 q 393 1143 401 1154 q 382 1128 385 1132 l 333 1147 q 443 1285 385 1285 q 556 1257 472 1285 q 617 1238 588 1246 q 664 1229 647 1229 q 692 1240 679 1229 q 714 1261 706 1250 q 724 1276 722 1272 l 771 1257 z "},"Ȁ":{"ha":768,"x_min":-53,"x_max":735,"o":"m 0 0 m 485 282 l 246 282 l 142 74 l 231 54 l 218 0 l -53 0 l -44 53 l 54 75 l 450 854 l 533 869 l 649 79 l 735 53 l 725 0 l 417 0 l 425 54 l 513 74 l 485 282 m 279 347 l 475 347 l 433 653 l 279 347 m 383 892 l 226 1099 l 228 1125 l 339 1125 l 419 911 l 383 892 m 608 892 l 450 1099 l 451 1125 l 563 1125 l 643 911 l 608 892 z "},"Ä":{"ha":804,"x_min":-54,"x_max":750,"o":"m 378 922 q 317 947 343 922 q 290 1006 290 971 q 317 1067 290 1042 q 378 1092 343 1092 q 438 1067 413 1092 q 464 1006 464 1042 q 438 947 464 971 q 378 922 413 922 m 663 922 q 601 947 628 922 q 575 1006 575 971 q 601 1067 575 1042 q 663 1092 628 1092 q 724 1067 697 1092 q 750 1006 750 1042 q 724 947 750 971 q 663 922 697 922 m -54 0 l -44 53 l 54 75 l 449 854 l 532 869 l 647 79 l 733 53 l 724 0 l 415 0 l 424 54 l 511 74 l 483 282 l 244 282 l 142 74 l 229 54 l 217 0 l -54 0 m 278 347 l 474 347 l 432 653 l 278 347 z "},"Ạ":{"ha":768,"x_min":-53,"x_max":735,"o":"m 0 0 m 485 282 l 246 282 l 142 74 l 231 54 l 218 0 l -53 0 l -44 53 l 54 75 l 450 854 l 533 869 l 649 79 l 735 53 l 725 0 l 417 0 l 425 54 l 513 74 l 485 282 m 279 347 l 475 347 l 433 653 l 279 347 m 289 -57 q 351 -83 324 -57 q 378 -146 378 -110 q 351 -207 378 -182 q 289 -232 325 -232 q 226 -207 253 -232 q 199 -146 199 -182 q 226 -83 199 -110 q 289 -57 253 -57 z "},"À":{"ha":804,"x_min":-54,"x_max":733,"o":"m 615 897 l 310 1043 l 311 1069 l 426 1111 l 640 931 l 615 897 m -54 0 l -44 53 l 54 75 l 449 854 l 532 869 l 647 79 l 733 53 l 724 0 l 415 0 l 424 54 l 511 74 l 483 282 l 244 282 l 142 74 l 229 54 l 217 0 l -54 0 m 278 347 l 474 347 l 432 653 l 278 347 z "},"Ả":{"ha":768,"x_min":-53,"x_max":735,"o":"m 0 0 m 485 282 l 246 282 l 142 74 l 231 54 l 218 0 l -53 0 l -44 53 l 54 75 l 450 854 l 533 869 l 649 79 l 735 53 l 725 0 l 417 0 l 425 54 l 513 74 l 485 282 m 279 347 l 475 347 l 433 653 l 279 347 m 483 953 q 497 981 485 971 q 532 999 510 990 q 565 1017 554 1008 q 576 1043 576 1026 q 533 1072 576 1072 l 501 1071 l 483 1028 l 438 1028 l 443 1101 q 549 1113 506 1113 q 631 1096 601 1113 q 661 1047 661 1079 q 611 983 661 1006 q 583 973 601 979 q 553 958 564 967 q 539 936 542 950 l 482 936 l 483 953 z "},"Ȃ":{"ha":768,"x_min":-53,"x_max":735,"o":"m 0 0 m 485 282 l 246 282 l 142 74 l 231 54 l 218 0 l -53 0 l -44 53 l 54 75 l 450 854 l 533 869 l 649 79 l 735 53 l 725 0 l 417 0 l 425 54 l 513 74 l 485 282 m 279 347 l 475 347 l 433 653 l 279 347 m 526 1101 q 667 979 667 1101 q 658 932 667 960 l 603 932 q 607 956 607 943 q 585 1001 604 985 q 514 1018 567 1018 q 422 994 450 1018 q 385 932 393 971 l 331 932 q 391 1055 346 1008 q 526 1101 436 1101 z "},"Ā":{"ha":804,"x_min":-54,"x_max":733,"o":"m 329 953 l 342 1038 l 681 1038 l 668 953 l 329 953 m -54 0 l -44 53 l 54 75 l 449 854 l 532 869 l 647 79 l 733 53 l 724 0 l 415 0 l 424 54 l 511 74 l 483 282 l 244 282 l 142 74 l 229 54 l 217 0 l -54 0 m 278 347 l 474 347 l 432 653 l 278 347 z "},"Ą":{"ha":804,"x_min":-54,"x_max":738,"o":"m 435 -328 q 344 -300 372 -328 q 315 -228 315 -272 q 351 -119 315 -167 q 450 -15 386 -72 q 497 28 482 11 q 513 58 513 44 q 510 89 513 64 l 486 285 l 251 285 l 142 74 l 229 54 l 217 0 l -54 0 l -44 53 l 54 75 l 460 850 l 549 868 l 651 78 l 738 53 l 728 0 l 574 0 q 503 -31 539 0 q 442 -108 467 -62 q 418 -194 418 -154 q 482 -260 418 -260 q 560 -229 521 -260 l 582 -254 q 562 -276 582 -257 q 509 -311 542 -294 q 435 -328 476 -328 m 288 353 l 479 353 l 443 651 l 288 353 z "},"Å":{"ha":804,"x_min":-54,"x_max":733,"o":"m 506 883 q 415 910 446 883 q 383 981 383 936 q 428 1094 383 1049 q 553 1139 472 1139 q 642 1110 611 1139 q 672 1036 672 1082 q 626 927 672 971 q 506 883 581 883 m 515 936 q 573 965 556 936 q 590 1033 590 993 q 540 1085 590 1085 q 483 1056 500 1085 q 465 986 465 1028 q 476 949 465 961 q 515 936 488 936 m -54 0 l -44 53 l 54 75 l 449 854 l 532 869 l 647 79 l 733 53 l 724 0 l 415 0 l 424 54 l 511 74 l 483 282 l 244 282 l 142 74 l 229 54 l 217 0 l -54 0 m 278 347 l 474 347 l 432 653 l 278 347 z "},"Ǻ":{"ha":768,"x_min":-53,"x_max":794,"o":"m 0 0 m 485 282 l 246 282 l 142 74 l 231 54 l 218 0 l -53 0 l -44 53 l 54 75 l 450 854 l 533 869 l 649 79 l 735 53 l 725 0 l 417 0 l 425 54 l 513 74 l 485 282 m 279 347 l 475 347 l 433 653 l 279 347 m 492 883 q 401 910 432 883 q 369 981 369 936 q 414 1094 369 1049 q 539 1139 458 1139 q 629 1110 599 1139 q 660 1036 660 1082 q 613 927 660 971 q 492 883 567 883 m 501 936 q 559 965 542 936 q 576 1033 576 993 q 528 1085 576 1085 q 469 1056 488 1085 q 451 986 451 1028 q 501 936 451 936 m 490 1147 l 464 1181 l 679 1361 l 794 1319 l 794 1293 l 490 1147 z "},"Ã":{"ha":804,"x_min":-54,"x_max":739,"o":"m 739 1060 q 687 959 713 994 q 631 924 661 924 q 513 953 597 924 q 410 978 432 978 q 382 967 396 978 q 360 946 368 957 q 349 931 351 935 l 300 950 q 411 1086 353 1086 q 522 1058 439 1086 q 572 1044 533 1056 q 632 1032 611 1032 q 659 1042 646 1032 q 681 1064 672 1053 q 690 1079 689 1075 l 739 1060 m 483 282 l 244 282 l 142 74 l 229 54 l 217 0 l -54 0 l -44 53 l 54 75 l 449 854 l 532 869 l 647 79 l 733 53 l 724 0 l 415 0 l 424 54 l 511 74 l 483 282 m 278 347 l 474 347 l 432 653 l 278 347 z "},"Æ":{"ha":979,"x_min":-157,"x_max":942,"o":"m 579 432 l 729 432 l 775 524 l 828 524 l 778 268 l 726 268 l 713 364 l 571 364 l 535 83 l 767 83 l 825 210 l 882 210 l 842 0 l 267 0 l 275 51 l 401 81 l 438 364 l 250 364 l 40 74 l 129 54 l 117 0 l -157 0 l -149 53 l -49 75 l 457 779 l 376 799 l 385 850 l 942 850 l 906 661 l 847 661 l 844 771 l 625 771 l 579 432 m 446 432 l 478 681 l 299 432 l 446 432 z "},"Ǽ":{"ha":979,"x_min":-157,"x_max":942,"o":"m 0 0 m 579 432 l 729 432 l 775 524 l 828 524 l 778 268 l 726 268 l 713 364 l 571 364 l 535 83 l 767 83 l 825 210 l 882 210 l 842 0 l 267 0 l 275 51 l 401 81 l 438 364 l 250 364 l 40 74 l 129 54 l 117 0 l -157 0 l -149 53 l -49 75 l 457 779 l 376 799 l 385 850 l 942 850 l 906 661 l 847 661 l 844 771 l 625 771 l 579 432 m 446 432 l 478 681 l 299 432 l 446 432 m 546 897 l 519 931 l 735 1111 l 850 1069 l 850 1043 l 546 897 z "},"B":{"ha":750,"x_min":-21,"x_max":713,"o":"m 492 449 q 660 274 660 414 q 615 133 660 196 q 491 35 571 71 q 308 0 411 0 l -21 0 l -12 51 l 108 81 l 242 771 l 133 799 l 143 850 l 471 850 q 653 807 593 850 q 713 690 713 764 q 650 531 713 594 q 492 449 588 467 m 371 471 q 514 522 454 471 q 574 675 574 574 q 451 783 574 783 q 375 775 417 783 l 317 471 l 371 471 m 239 76 q 313 65 268 65 q 411 88 364 65 q 488 158 458 110 q 518 281 518 207 q 475 378 518 344 q 353 411 432 411 l 304 411 l 239 76 z "},"C":{"ha":721,"x_min":49,"x_max":763,"o":"m 606 31 q 488 -2 544 8 q 360 -12 432 -12 q 124 68 200 -12 q 49 294 49 149 q 106 579 49 447 q 274 791 164 711 q 532 871 383 871 q 763 833 665 871 l 711 642 l 657 642 l 656 779 q 524 796 601 796 q 340 723 414 796 q 232 536 267 650 q 197 297 197 422 q 243 122 197 181 q 394 63 289 63 q 518 82 456 63 l 572 200 l 628 200 l 606 31 z "},"Ć":{"ha":725,"x_min":36,"x_max":750,"o":"m 417 897 l 389 931 l 604 1111 l 719 1069 l 719 1043 l 417 897 m 593 31 q 474 -2 531 8 q 347 -12 418 -12 q 111 68 186 -12 q 36 294 36 149 q 94 579 36 447 q 261 791 151 711 q 519 871 371 871 q 750 833 653 871 l 699 642 l 644 642 l 643 779 q 511 796 589 796 q 328 723 401 796 q 219 536 254 650 q 185 297 185 422 q 231 122 185 181 q 382 63 276 63 q 504 82 444 63 l 558 200 l 615 200 l 593 31 z "},"Č":{"ha":725,"x_min":36,"x_max":750,"o":"m 383 1113 l 528 1004 l 710 1114 l 739 1083 l 558 900 l 465 900 l 344 1085 l 383 1113 m 593 31 q 474 -2 531 8 q 347 -12 418 -12 q 111 68 186 -12 q 36 294 36 149 q 94 579 36 447 q 261 791 151 711 q 519 871 371 871 q 750 833 653 871 l 699 642 l 644 642 l 643 779 q 511 796 589 796 q 328 723 401 796 q 219 536 254 650 q 185 297 185 422 q 231 122 185 181 q 382 63 276 63 q 504 82 444 63 l 558 200 l 615 200 l 593 31 z "},"Ç":{"ha":725,"x_min":36,"x_max":750,"o":"m 593 31 q 478 -1 533 10 q 354 -12 424 -11 l 328 -62 q 423 -85 392 -62 q 454 -144 454 -108 q 424 -226 454 -189 q 348 -283 394 -262 q 253 -304 301 -304 q 167 -292 200 -304 l 188 -250 q 239 -260 211 -260 q 317 -233 285 -260 q 350 -167 350 -206 q 330 -127 350 -143 q 264 -111 310 -111 l 261 -94 l 304 -11 q 101 78 165 -1 q 36 294 36 158 q 94 579 36 447 q 261 791 151 711 q 519 871 371 871 q 750 833 653 871 l 699 642 l 644 642 l 643 779 q 511 796 589 796 q 328 723 401 796 q 219 536 254 650 q 185 297 185 422 q 231 122 185 181 q 382 63 276 63 q 504 82 444 63 l 558 200 l 615 200 l 593 31 z "},"Ĉ":{"ha":721,"x_min":49,"x_max":763,"o":"m 49 0 m 606 31 q 488 -2 544 8 q 360 -12 432 -12 q 124 68 200 -12 q 49 294 49 149 q 106 579 49 447 q 274 791 164 711 q 532 871 383 871 q 763 833 665 871 l 711 642 l 657 642 l 656 779 q 524 796 601 796 q 340 723 414 796 q 232 536 267 650 q 197 297 197 422 q 243 122 197 181 q 394 63 289 63 q 518 82 456 63 l 572 200 l 628 200 l 606 31 m 696 899 l 560 1010 l 369 899 l 340 929 l 529 1113 l 622 1113 l 733 928 l 696 899 z "},"Ċ":{"ha":721,"x_min":49,"x_max":763,"o":"m 49 0 m 606 31 q 488 -2 544 8 q 360 -12 432 -12 q 124 68 200 -12 q 49 294 49 149 q 106 579 49 447 q 274 791 164 711 q 532 871 383 871 q 763 833 665 871 l 711 642 l 657 642 l 656 779 q 524 796 601 796 q 340 723 414 796 q 232 536 267 650 q 197 297 197 422 q 243 122 197 181 q 394 63 289 63 q 518 82 456 63 l 572 200 l 628 200 l 606 31 m 653 1003 q 625 940 653 965 q 560 914 597 914 q 494 940 522 914 q 467 1003 467 965 q 494 1068 467 1040 q 560 1096 522 1096 q 625 1068 597 1096 q 653 1003 653 1040 z "},"D":{"ha":872,"x_min":-17,"x_max":832,"o":"m -7 51 l 114 81 l 247 771 l 139 799 l 147 850 l 506 850 q 751 774 671 850 q 832 558 832 697 q 776 286 832 414 q 613 79 721 158 q 356 0 504 0 l -17 0 l -7 51 m 365 65 q 547 141 475 65 q 653 331 619 217 q 686 558 686 444 q 636 724 686 668 q 483 779 586 779 q 379 771 424 779 l 246 86 q 365 65 297 65 z "},"Ǳ":{"ha":1567,"x_min":-17,"x_max":1599,"o":"m 0 0 m -7 51 l 114 81 l 247 771 l 139 799 l 147 850 l 506 850 q 751 774 671 850 q 832 558 832 697 q 776 286 832 414 q 613 79 721 158 q 356 0 504 0 l -17 0 l -7 51 m 365 65 q 547 141 475 65 q 653 331 619 217 q 686 558 686 444 q 636 724 686 668 q 483 779 586 779 q 379 771 424 779 l 246 86 q 365 65 297 65 m 1492 210 l 1439 0 l 882 0 l 867 46 l 1421 771 l 1126 771 l 1075 661 l 1018 661 l 1042 850 l 1599 850 l 1597 806 l 1043 81 l 1361 81 l 1435 210 l 1492 210 z "},"Ǆ":{"ha":1567,"x_min":-17,"x_max":1599,"o":"m 0 0 m -7 51 l 114 81 l 247 771 l 139 799 l 147 850 l 506 850 q 751 774 671 850 q 832 558 832 697 q 776 286 832 414 q 613 79 721 158 q 356 0 504 0 l -17 0 l -7 51 m 365 65 q 547 141 475 65 q 653 331 619 217 q 686 558 686 444 q 636 724 686 668 q 483 779 586 779 q 379 771 424 779 l 246 86 q 365 65 297 65 m 1492 210 l 1439 0 l 882 0 l 867 46 l 1421 771 l 1126 771 l 1075 661 l 1018 661 l 1042 850 l 1599 850 l 1597 806 l 1043 81 l 1361 81 l 1435 210 l 1492 210 m 1200 1113 l 1344 1004 l 1526 1114 l 1556 1083 l 1376 900 l 1282 900 l 1163 1085 l 1200 1113 z "},"Ð":{"ha":874,"x_min":-14,"x_max":835,"o":"m -4 51 l 115 81 l 175 383 l 69 383 l 83 451 l 188 451 l 250 771 l 140 799 l 150 850 l 508 850 q 754 774 674 850 q 835 558 835 697 q 779 286 835 414 q 615 79 724 158 q 358 0 507 0 l -14 0 l -4 51 m 367 65 q 549 141 476 65 q 654 330 621 217 q 688 558 688 443 q 638 724 688 669 q 486 779 589 779 q 382 771 424 779 l 319 451 l 464 451 l 450 383 l 306 383 l 249 86 q 303 71 271 76 q 367 65 336 65 z "},"Ď":{"ha":872,"x_min":-10,"x_max":839,"o":"m 453 900 l 332 1085 l 371 1113 l 515 1004 l 697 1114 l 726 1083 l 547 900 l 453 900 m 0 51 l 121 81 l 254 771 l 144 799 l 154 850 l 513 850 q 758 774 678 850 q 839 558 839 697 q 783 286 839 414 q 619 79 728 158 q 363 0 511 0 l -10 0 l 0 51 m 372 65 q 554 141 482 65 q 660 331 626 217 q 693 558 693 444 q 643 724 693 668 q 490 779 593 779 q 386 771 431 779 l 253 86 q 372 65 304 65 z "},"Đ":{"ha":874,"x_min":-8,"x_max":840,"o":"m 1 51 l 122 81 l 181 383 l 76 383 l 89 451 l 193 451 l 256 771 l 146 799 l 156 850 l 514 850 q 760 774 679 850 q 840 558 840 697 q 785 286 840 414 q 621 79 729 158 q 364 0 513 0 l -8 0 l 1 51 m 372 65 q 555 141 482 65 q 661 330 628 217 q 694 558 694 443 q 644 724 694 668 q 492 779 594 779 q 388 771 429 779 l 325 451 l 468 451 l 456 383 l 313 383 l 254 86 q 309 71 276 76 q 372 65 342 65 z "},"Ḍ":{"ha":872,"x_min":-17,"x_max":832,"o":"m 0 0 m -7 51 l 114 81 l 247 771 l 139 799 l 147 850 l 506 850 q 751 774 671 850 q 832 558 832 697 q 776 286 832 414 q 613 79 721 158 q 356 0 504 0 l -17 0 l -7 51 m 365 65 q 547 141 475 65 q 653 331 619 217 q 686 558 686 444 q 636 724 686 668 q 483 779 586 779 q 379 771 424 779 l 246 86 q 365 65 297 65 m 342 -57 q 403 -83 376 -57 q 431 -146 431 -110 q 404 -207 431 -182 q 342 -232 378 -232 q 278 -207 306 -232 q 251 -146 251 -182 q 278 -83 251 -110 q 342 -57 306 -57 z "},"ǲ":{"ha":1414,"x_min":-17,"x_max":1453,"o":"m 0 0 m -7 51 l 114 81 l 247 771 l 139 799 l 147 850 l 506 850 q 751 774 671 850 q 832 558 832 697 q 776 286 832 414 q 613 79 721 158 q 356 0 504 0 l -17 0 l -7 51 m 365 65 q 547 141 475 65 q 653 331 619 217 q 686 558 686 444 q 636 724 686 668 q 483 779 586 779 q 379 771 424 779 l 246 86 q 365 65 297 65 m 1242 -67 q 1174 -53 1206 -67 q 1094 -10 1142 -39 q 1023 28 1050 15 q 967 40 996 40 q 929 29 947 40 q 901 6 911 18 q 888 -11 890 -7 l 839 19 l 1274 574 l 963 574 l 949 690 l 1340 690 l 1410 713 l 1453 668 l 1024 132 q 1103 119 1069 132 q 1185 82 1138 107 q 1252 49 1225 60 q 1313 39 1279 39 q 1375 50 1347 39 l 1390 -6 q 1315 -51 1350 -35 q 1242 -67 1281 -67 z "},"ǅ":{"ha":1414,"x_min":-17,"x_max":1453,"o":"m 0 0 m -7 51 l 114 81 l 247 771 l 139 799 l 147 850 l 506 850 q 751 774 671 850 q 832 558 832 697 q 776 286 832 414 q 613 79 721 158 q 356 0 504 0 l -17 0 l -7 51 m 365 65 q 547 141 475 65 q 653 331 619 217 q 686 558 686 444 q 636 724 686 668 q 483 779 586 779 q 379 771 424 779 l 246 86 q 365 65 297 65 m 1242 -67 q 1174 -53 1206 -67 q 1094 -10 1142 -39 q 1023 28 1050 15 q 967 40 996 40 q 929 29 947 40 q 901 6 911 18 q 888 -11 890 -7 l 839 19 l 1274 574 l 963 574 l 949 690 l 1340 690 l 1410 713 l 1453 668 l 1024 132 q 1103 119 1069 132 q 1185 82 1138 107 q 1252 49 1225 60 q 1313 39 1279 39 q 1375 50 1347 39 l 1390 -6 q 1315 -51 1350 -35 q 1242 -67 1281 -67 m 1117 1004 l 1244 883 l 1411 1006 l 1443 974 l 1275 776 l 1182 776 l 1074 976 l 1117 1004 z "},"E":{"ha":736,"x_min":-17,"x_max":732,"o":"m 543 546 l 597 546 l 547 290 l 494 290 l 482 386 l 310 386 l 251 83 l 521 83 l 579 210 l 638 210 l 597 0 l -17 0 l -7 51 l 118 81 l 253 771 l 139 799 l 147 850 l 732 850 l 696 661 l 636 661 l 635 771 l 385 771 l 324 454 l 499 454 l 543 546 z "},"É":{"ha":747,"x_min":-10,"x_max":738,"o":"m 381 897 l 354 931 l 568 1111 l 683 1069 l 683 1043 l 381 897 m 550 546 l 604 546 l 554 290 l 501 290 l 489 386 l 317 386 l 258 83 l 528 83 l 586 210 l 644 210 l 604 0 l -10 0 l 0 51 l 125 81 l 260 771 l 144 799 l 154 850 l 738 850 l 703 661 l 643 661 l 642 771 l 392 771 l 331 454 l 506 454 l 550 546 z "},"Ĕ":{"ha":736,"x_min":-17,"x_max":732,"o":"m 0 0 m 543 546 l 597 546 l 547 290 l 494 290 l 482 386 l 310 386 l 251 83 l 521 83 l 579 210 l 638 210 l 597 0 l -17 0 l -7 51 l 118 81 l 253 771 l 139 799 l 147 850 l 732 850 l 696 661 l 636 661 l 635 771 l 385 771 l 324 454 l 499 454 l 543 546 m 479 922 q 338 1043 338 922 q 346 1092 338 1061 l 403 1092 q 399 1068 399 1082 q 419 1022 400 1039 q 490 1006 438 1006 q 584 1029 556 1006 q 619 1092 613 1053 l 674 1092 q 479 922 640 922 z "},"Ě":{"ha":747,"x_min":-10,"x_max":738,"o":"m 351 1113 l 496 1004 l 678 1114 l 707 1083 l 528 900 l 433 900 l 313 1085 l 351 1113 m 550 546 l 604 546 l 554 290 l 501 290 l 489 386 l 317 386 l 258 83 l 528 83 l 586 210 l 644 210 l 604 0 l -10 0 l 0 51 l 125 81 l 260 771 l 144 799 l 154 850 l 738 850 l 703 661 l 643 661 l 642 771 l 392 771 l 331 454 l 506 454 l 550 546 z "},"Ê":{"ha":747,"x_min":-10,"x_max":738,"o":"m 628 899 l 492 1010 l 301 899 l 272 929 l 461 1113 l 554 1113 l 665 928 l 628 899 m 550 546 l 604 546 l 554 290 l 501 290 l 489 386 l 317 386 l 258 83 l 528 83 l 586 210 l 644 210 l 604 0 l -10 0 l 0 51 l 125 81 l 260 771 l 144 799 l 154 850 l 738 850 l 703 661 l 643 661 l 642 771 l 392 771 l 331 454 l 506 454 l 550 546 z "},"Ế":{"ha":736,"x_min":-17,"x_max":879,"o":"m 644 967 l 608 988 l 747 1233 l 869 1233 l 879 1207 l 644 967 m 597 899 l 461 1010 l 271 899 l 242 929 l 431 1113 l 524 1113 l 635 928 l 597 899 m 543 546 l 597 546 l 547 290 l 494 290 l 482 386 l 310 386 l 251 83 l 521 83 l 579 210 l 638 210 l 597 0 l -17 0 l -7 51 l 118 81 l 253 771 l 139 799 l 147 850 l 732 850 l 696 661 l 636 661 l 635 771 l 385 771 l 324 454 l 499 454 l 543 546 z "},"Ệ":{"ha":736,"x_min":-17,"x_max":732,"o":"m 0 0 m 543 546 l 597 546 l 547 290 l 494 290 l 482 386 l 310 386 l 251 83 l 521 83 l 579 210 l 638 210 l 597 0 l -17 0 l -7 51 l 118 81 l 253 771 l 139 799 l 147 850 l 732 850 l 696 661 l 636 661 l 635 771 l 385 771 l 324 454 l 499 454 l 543 546 m 274 -57 q 335 -83 308 -57 q 363 -146 363 -110 q 336 -207 363 -182 q 274 -232 310 -232 q 210 -207 238 -232 q 183 -146 183 -182 q 210 -83 183 -110 q 274 -57 238 -57 m 633 899 l 497 1010 l 307 899 l 278 929 l 467 1113 l 560 1113 l 671 928 l 633 899 z "},"Ề":{"ha":736,"x_min":-17,"x_max":732,"o":"m 658 964 l 511 1211 l 528 1233 l 624 1233 l 699 978 l 658 964 m 597 899 l 461 1010 l 271 899 l 242 929 l 431 1113 l 524 1113 l 635 928 l 597 899 m 543 546 l 597 546 l 547 290 l 494 290 l 482 386 l 310 386 l 251 83 l 521 83 l 579 210 l 638 210 l 597 0 l -17 0 l -7 51 l 118 81 l 253 771 l 139 799 l 147 850 l 732 850 l 696 661 l 636 661 l 635 771 l 385 771 l 324 454 l 499 454 l 543 546 z "},"Ể":{"ha":736,"x_min":-17,"x_max":824,"o":"m 0 0 m 543 546 l 597 546 l 547 290 l 494 290 l 482 386 l 310 386 l 251 83 l 521 83 l 579 210 l 638 210 l 597 0 l -17 0 l -7 51 l 118 81 l 253 771 l 139 799 l 147 850 l 732 850 l 696 661 l 636 661 l 635 771 l 385 771 l 324 454 l 499 454 l 543 546 m 633 899 l 497 1010 l 307 899 l 278 929 l 467 1113 l 560 1113 l 671 928 l 633 899 m 646 1074 q 660 1101 647 1092 q 694 1119 672 1111 q 728 1138 717 1129 q 739 1164 739 1147 q 696 1193 739 1193 l 664 1192 l 646 1149 l 600 1149 l 606 1222 q 711 1233 668 1233 q 794 1217 764 1233 q 824 1168 824 1200 q 774 1104 824 1126 q 745 1094 764 1100 q 715 1079 726 1088 q 701 1057 704 1071 l 644 1057 l 646 1074 z "},"Ễ":{"ha":736,"x_min":-17,"x_max":754,"o":"m 0 0 m 543 546 l 597 546 l 547 290 l 494 290 l 482 386 l 310 386 l 251 83 l 521 83 l 579 210 l 638 210 l 597 0 l -17 0 l -7 51 l 118 81 l 253 771 l 139 799 l 147 850 l 732 850 l 696 661 l 636 661 l 635 771 l 385 771 l 324 454 l 499 454 l 543 546 m 633 899 l 497 1010 l 307 899 l 278 929 l 467 1113 l 560 1113 l 671 928 l 633 899 m 754 1257 q 703 1158 729 1193 q 646 1122 678 1122 q 531 1150 619 1122 q 425 1176 454 1176 q 398 1165 411 1176 q 376 1143 385 1154 q 365 1128 368 1132 l 317 1147 q 426 1285 368 1285 q 539 1257 456 1285 q 601 1238 571 1246 q 647 1229 631 1229 q 676 1240 663 1229 q 697 1261 689 1250 q 707 1276 706 1272 l 754 1257 z "},"Ȅ":{"ha":736,"x_min":-17,"x_max":732,"o":"m 0 0 m 543 546 l 597 546 l 547 290 l 494 290 l 482 386 l 310 386 l 251 83 l 521 83 l 579 210 l 638 210 l 597 0 l -17 0 l -7 51 l 118 81 l 253 771 l 139 799 l 147 850 l 732 850 l 696 661 l 636 661 l 635 771 l 385 771 l 324 454 l 499 454 l 543 546 m 367 892 l 210 1099 l 211 1125 l 322 1125 l 403 911 l 367 892 m 592 892 l 433 1099 l 435 1125 l 546 1125 l 626 911 l 592 892 z "},"Ë":{"ha":747,"x_min":-10,"x_max":738,"o":"m 421 1006 q 395 947 421 971 q 335 922 369 922 q 274 947 300 922 q 247 1006 247 971 q 274 1067 247 1042 q 335 1092 300 1092 q 395 1067 369 1092 q 421 1006 421 1042 m 707 1006 q 681 947 707 971 q 619 922 654 922 q 559 947 585 922 q 533 1006 533 971 q 559 1067 533 1042 q 619 1092 585 1092 q 681 1067 654 1092 q 707 1006 707 1042 m 550 546 l 604 546 l 554 290 l 501 290 l 489 386 l 317 386 l 258 83 l 528 83 l 586 210 l 644 210 l 604 0 l -10 0 l 0 51 l 125 81 l 260 771 l 144 799 l 154 850 l 738 850 l 703 661 l 643 661 l 642 771 l 392 771 l 331 454 l 506 454 l 550 546 z "},"Ė":{"ha":747,"x_min":-10,"x_max":738,"o":"m 581 1003 q 553 940 581 965 q 488 914 525 914 q 422 940 450 914 q 394 1003 394 965 q 422 1069 394 1042 q 488 1096 450 1096 q 553 1068 525 1096 q 581 1003 581 1040 m 550 546 l 604 546 l 554 290 l 501 290 l 489 386 l 317 386 l 258 83 l 528 83 l 586 210 l 644 210 l 604 0 l -10 0 l 0 51 l 125 81 l 260 771 l 144 799 l 154 850 l 738 850 l 703 661 l 643 661 l 642 771 l 392 771 l 331 454 l 506 454 l 550 546 z "},"Ẹ":{"ha":736,"x_min":-17,"x_max":732,"o":"m 0 0 m 543 546 l 597 546 l 547 290 l 494 290 l 482 386 l 310 386 l 251 83 l 521 83 l 579 210 l 638 210 l 597 0 l -17 0 l -7 51 l 118 81 l 253 771 l 139 799 l 147 850 l 732 850 l 696 661 l 636 661 l 635 771 l 385 771 l 324 454 l 499 454 l 543 546 m 274 -57 q 335 -83 308 -57 q 363 -146 363 -110 q 336 -207 363 -182 q 274 -232 310 -232 q 210 -207 238 -232 q 183 -146 183 -182 q 210 -83 183 -110 q 274 -57 238 -57 z "},"È":{"ha":747,"x_min":-10,"x_max":738,"o":"m 388 999 l 293 1061 l 369 1097 l 560 983 l 607 911 l 388 999 m 550 546 l 604 546 l 554 290 l 501 290 l 489 386 l 317 386 l 258 83 l 528 83 l 586 210 l 644 210 l 604 0 l -10 0 l 0 51 l 125 81 l 260 771 l 144 799 l 154 850 l 738 850 l 703 661 l 643 661 l 642 771 l 392 771 l 331 454 l 506 454 l 550 546 z "},"Ẻ":{"ha":736,"x_min":-17,"x_max":732,"o":"m 0 0 m 543 546 l 597 546 l 547 290 l 494 290 l 482 386 l 310 386 l 251 83 l 521 83 l 579 210 l 638 210 l 597 0 l -17 0 l -7 51 l 118 81 l 253 771 l 139 799 l 147 850 l 732 850 l 696 661 l 636 661 l 635 771 l 385 771 l 324 454 l 499 454 l 543 546 m 467 953 q 481 981 468 971 q 515 999 493 990 q 549 1017 538 1008 q 560 1043 560 1026 q 517 1072 560 1072 l 485 1071 l 467 1028 l 421 1028 l 426 1101 q 532 1113 489 1113 q 615 1096 585 1113 q 644 1047 644 1079 q 594 983 644 1006 q 566 973 585 979 q 536 958 547 967 q 522 936 525 950 l 465 936 l 467 953 z "},"Ȇ":{"ha":736,"x_min":-17,"x_max":732,"o":"m 0 0 m 543 546 l 597 546 l 547 290 l 494 290 l 482 386 l 310 386 l 251 83 l 521 83 l 579 210 l 638 210 l 597 0 l -17 0 l -7 51 l 118 81 l 253 771 l 139 799 l 147 850 l 732 850 l 696 661 l 636 661 l 635 771 l 385 771 l 324 454 l 499 454 l 543 546 m 510 1101 q 650 979 650 1101 q 642 932 650 960 l 586 932 q 590 956 590 943 q 569 1001 588 985 q 497 1018 550 1018 q 405 994 433 1018 q 368 932 376 971 l 314 932 q 374 1055 329 1008 q 510 1101 419 1101 z "},"Ē":{"ha":747,"x_min":-10,"x_max":738,"o":"m 333 1038 l 672 1038 l 660 953 l 321 953 l 333 1038 m 550 546 l 604 546 l 554 290 l 501 290 l 489 386 l 317 386 l 258 83 l 528 83 l 586 210 l 644 210 l 604 0 l -10 0 l 0 51 l 125 81 l 260 771 l 144 799 l 154 850 l 738 850 l 703 661 l 643 661 l 642 771 l 392 771 l 331 454 l 506 454 l 550 546 z "},"Ę":{"ha":747,"x_min":-10,"x_max":738,"o":"m 511 -328 q 422 -300 450 -328 q 393 -228 393 -272 q 432 -119 393 -179 q 551 0 471 -58 l -10 0 l 0 51 l 125 81 l 260 771 l 144 799 l 154 850 l 738 850 l 703 661 l 643 661 l 642 771 l 392 771 l 331 454 l 506 454 l 550 546 l 604 546 l 554 290 l 501 290 l 489 386 l 317 386 l 258 83 l 528 83 l 586 210 l 644 210 l 604 0 q 529 -94 563 -37 q 496 -197 496 -150 q 512 -244 496 -228 q 558 -260 528 -260 q 636 -229 597 -260 l 658 -254 q 638 -276 658 -257 q 585 -311 618 -294 q 511 -328 553 -328 z "},"Ẽ":{"ha":747,"x_min":-10,"x_max":738,"o":"m 719 1060 q 668 960 693 994 q 611 925 643 925 q 494 953 583 925 q 390 979 418 979 q 363 968 376 979 q 340 946 349 957 q 329 931 332 935 l 282 950 q 392 1088 333 1088 q 504 1060 421 1088 q 566 1040 536 1049 q 613 1032 596 1032 q 640 1042 626 1032 q 661 1064 653 1053 q 671 1079 669 1075 l 719 1060 m 550 546 l 604 546 l 554 290 l 500 290 l 489 386 l 317 386 l 258 83 l 528 83 l 586 210 l 644 210 l 604 0 l -10 0 l 0 51 l 125 81 l 260 771 l 144 799 l 154 850 l 738 850 l 701 661 l 643 661 l 640 771 l 392 771 l 331 454 l 506 454 l 550 546 z "},"F":{"ha":689,"x_min":-17,"x_max":733,"o":"m 733 850 l 697 661 l 638 661 l 636 771 l 385 771 l 321 438 l 496 438 l 540 529 l 593 529 l 544 274 l 490 274 l 483 369 l 307 369 l 250 81 l 396 53 l 388 0 l -17 0 l -7 51 l 118 81 l 253 771 l 139 799 l 147 850 l 733 850 z "},"G":{"ha":817,"x_min":49,"x_max":793,"o":"m 669 779 q 536 796 608 796 q 331 710 407 796 q 226 512 256 625 q 197 301 197 399 q 396 60 197 60 q 514 82 464 60 l 561 319 l 453 349 l 461 400 l 793 400 l 783 349 l 689 321 l 635 44 q 517 1 585 17 q 374 -15 449 -15 q 49 294 49 -15 q 105 580 49 449 q 274 791 161 711 q 550 871 388 871 q 682 860 617 871 q 788 829 747 849 l 733 642 l 676 642 l 669 779 z "},"Ǵ":{"ha":817,"x_min":49,"x_max":793,"o":"m 49 0 m 669 779 q 536 796 608 796 q 331 710 407 796 q 226 512 256 625 q 197 301 197 399 q 396 60 197 60 q 514 82 464 60 l 561 319 l 453 349 l 461 400 l 793 400 l 783 349 l 689 321 l 635 44 q 517 1 585 17 q 374 -15 449 -15 q 49 294 49 -15 q 105 580 49 449 q 274 791 161 711 q 550 871 388 871 q 682 860 617 871 q 788 829 747 849 l 733 642 l 676 642 l 669 779 m 465 897 l 439 931 l 654 1111 l 769 1069 l 769 1043 l 465 897 z "},"Ğ":{"ha":811,"x_min":40,"x_max":783,"o":"m 528 922 q 386 1043 386 922 q 394 1092 386 1061 l 451 1092 q 447 1068 447 1082 q 467 1022 449 1039 q 539 1006 486 1006 q 633 1029 604 1006 q 668 1092 661 1053 l 724 1092 q 663 969 708 1015 q 528 922 618 922 m 660 779 q 528 796 601 796 q 323 710 399 796 q 218 512 247 625 q 189 301 189 399 q 388 60 189 60 q 506 82 454 60 l 551 319 l 443 349 l 453 400 l 783 400 l 775 349 l 679 321 l 626 44 q 508 1 576 17 q 364 -15 440 -15 q 40 294 40 -15 q 97 580 40 449 q 266 791 153 711 q 542 871 379 871 q 674 860 608 871 q 778 829 739 849 l 724 642 l 667 642 l 660 779 z "},"Ǧ":{"ha":817,"x_min":49,"x_max":793,"o":"m 49 0 m 669 779 q 536 796 608 796 q 331 710 407 796 q 226 512 256 625 q 197 301 197 399 q 396 60 197 60 q 514 82 464 60 l 561 319 l 453 349 l 461 400 l 793 400 l 783 349 l 689 321 l 635 44 q 517 1 585 17 q 374 -15 449 -15 q 49 294 49 -15 q 105 580 49 449 q 274 791 161 711 q 550 871 388 871 q 682 860 617 871 q 788 829 747 849 l 733 642 l 676 642 l 669 779 m 390 1113 l 535 1004 l 717 1114 l 746 1083 l 567 900 l 472 900 l 353 1085 l 390 1113 z "},"Ĝ":{"ha":817,"x_min":49,"x_max":793,"o":"m 49 0 m 669 779 q 536 796 608 796 q 331 710 407 796 q 226 512 256 625 q 197 301 197 399 q 396 60 197 60 q 514 82 464 60 l 561 319 l 453 349 l 461 400 l 793 400 l 783 349 l 689 321 l 635 44 q 517 1 585 17 q 374 -15 449 -15 q 49 294 49 -15 q 105 580 49 449 q 274 791 161 711 q 550 871 388 871 q 682 860 617 871 q 788 829 747 849 l 733 642 l 676 642 l 669 779 m 675 899 l 539 1010 l 349 899 l 319 929 l 508 1113 l 601 1113 l 713 928 l 675 899 z "},"Ģ":{"ha":811,"x_min":40,"x_max":783,"o":"m 660 779 q 528 796 601 796 q 323 710 399 796 q 218 512 247 625 q 189 301 189 399 q 388 60 189 60 q 506 82 454 60 l 551 319 l 443 349 l 453 400 l 783 400 l 775 349 l 679 321 l 626 44 q 508 1 576 17 q 364 -15 440 -15 q 40 294 40 -15 q 97 580 40 449 q 266 791 153 711 q 542 871 379 871 q 674 860 608 871 q 778 829 739 849 l 724 642 l 667 642 l 660 779 m 292 -312 l 250 -301 l 300 -64 l 411 -40 l 435 -67 l 292 -312 z "},"Ġ":{"ha":817,"x_min":49,"x_max":793,"o":"m 49 0 m 669 779 q 536 796 608 796 q 331 710 407 796 q 226 512 256 625 q 197 301 197 399 q 396 60 197 60 q 514 82 464 60 l 561 319 l 453 349 l 461 400 l 793 400 l 783 349 l 689 321 l 635 44 q 517 1 585 17 q 374 -15 449 -15 q 49 294 49 -15 q 105 580 49 449 q 274 791 161 711 q 550 871 388 871 q 682 860 617 871 q 788 829 747 849 l 733 642 l 676 642 l 669 779 m 632 1003 q 604 940 632 965 q 539 914 576 914 q 474 940 501 914 q 446 1003 446 965 q 474 1068 446 1040 q 539 1096 501 1096 q 604 1068 576 1096 q 632 1003 632 1040 z "},"H":{"ha":935,"x_min":-17,"x_max":978,"o":"m -17 0 l -8 51 l 107 81 l 242 771 l 138 799 l 146 850 l 497 850 l 489 799 l 372 771 l 313 461 l 661 461 l 721 771 l 617 799 l 626 850 l 978 850 l 968 799 l 853 771 l 719 81 l 825 51 l 815 0 l 464 0 l 472 51 l 588 81 l 647 386 l 299 386 l 239 81 l 343 51 l 333 0 l -17 0 z "},"Ħ":{"ha":935,"x_min":-17,"x_max":978,"o":"m 968 799 l 853 771 l 822 613 l 928 613 l 914 544 l 810 544 l 719 81 l 825 51 l 815 0 l 464 0 l 472 51 l 588 81 l 639 343 l 290 343 l 239 81 l 343 51 l 333 0 l -17 0 l -8 51 l 107 81 l 197 544 l 92 544 l 104 613 l 211 613 l 242 771 l 138 799 l 146 850 l 497 850 l 489 799 l 372 771 l 342 613 l 690 613 l 721 771 l 617 799 l 626 850 l 978 850 l 968 799 m 653 418 l 678 544 l 329 544 l 304 418 l 653 418 z "},"Ĥ":{"ha":935,"x_min":-17,"x_max":978,"o":"m 0 0 m -17 0 l -8 51 l 107 81 l 242 771 l 138 799 l 146 850 l 497 850 l 489 799 l 372 771 l 313 461 l 661 461 l 721 771 l 617 799 l 626 850 l 978 850 l 968 799 l 853 771 l 719 81 l 825 51 l 815 0 l 464 0 l 472 51 l 588 81 l 647 386 l 299 386 l 239 81 l 343 51 l 333 0 l -17 0 m 733 899 l 597 1010 l 407 899 l 378 929 l 567 1113 l 660 1113 l 771 928 l 733 899 z "},"Ḥ":{"ha":935,"x_min":-17,"x_max":978,"o":"m 0 0 m -17 0 l -8 51 l 107 81 l 242 771 l 138 799 l 146 850 l 497 850 l 489 799 l 372 771 l 313 461 l 661 461 l 721 771 l 617 799 l 626 850 l 978 850 l 968 799 l 853 771 l 719 81 l 825 51 l 815 0 l 464 0 l 472 51 l 588 81 l 647 386 l 299 386 l 239 81 l 343 51 l 333 0 l -17 0 m 374 -57 q 435 -83 408 -57 q 463 -146 463 -110 q 436 -207 463 -182 q 374 -232 410 -232 q 310 -207 338 -232 q 283 -146 283 -182 q 310 -83 283 -110 q 374 -57 338 -57 z "},"I":{"ha":467,"x_min":-17,"x_max":511,"o":"m -17 0 l -7 51 l 114 81 l 247 771 l 139 799 l 147 850 l 511 850 l 501 799 l 379 771 l 246 81 l 356 51 l 346 0 l -17 0 z "},"Ĳ":{"ha":908,"x_min":-17,"x_max":976,"o":"m 0 0 m -17 0 l -7 51 l 114 81 l 247 771 l 139 799 l 147 850 l 511 850 l 501 799 l 379 771 l 246 81 l 356 51 l 346 0 l -17 0 m 472 -207 q 346 -168 394 -207 l 360 -125 l 451 -125 q 538 -81 510 -125 q 582 46 567 -37 l 717 771 l 607 799 l 617 850 l 976 850 l 968 799 l 847 771 l 721 88 q 631 -142 692 -76 q 472 -207 569 -207 z "},"Í":{"ha":490,"x_min":-10,"x_max":529,"o":"m 226 897 l 200 931 l 415 1111 l 529 1069 l 529 1043 l 226 897 m -10 0 l -1 51 l 119 81 l 254 771 l 144 799 l 154 850 l 517 850 l 507 799 l 386 771 l 251 81 l 361 51 l 353 0 l -10 0 z "},"Ĭ":{"ha":467,"x_min":-17,"x_max":540,"o":"m 0 0 m -17 0 l -7 51 l 114 81 l 247 771 l 139 799 l 147 850 l 511 850 l 501 799 l 379 771 l 246 81 l 356 51 l 346 0 l -17 0 m 346 922 q 204 1043 204 922 q 213 1092 204 1061 l 269 1092 q 265 1068 265 1082 q 285 1022 267 1039 q 357 1006 304 1006 q 451 1029 422 1006 q 486 1092 479 1053 l 540 1092 q 346 922 507 922 z "},"Ǐ":{"ha":467,"x_min":-17,"x_max":571,"o":"m 0 0 m -17 0 l -7 51 l 114 81 l 247 771 l 139 799 l 147 850 l 511 850 l 501 799 l 379 771 l 246 81 l 356 51 l 346 0 l -17 0 m 215 1113 l 360 1004 l 542 1114 l 571 1083 l 392 900 l 297 900 l 178 1085 l 215 1113 z "},"Î":{"ha":490,"x_min":-10,"x_max":546,"o":"m 182 899 l 153 929 l 342 1113 l 435 1113 l 546 928 l 508 899 l 372 1010 l 182 899 m -10 0 l -1 51 l 119 81 l 254 771 l 144 799 l 154 850 l 517 850 l 507 799 l 386 771 l 251 81 l 361 51 l 353 0 l -10 0 z "},"Ȉ":{"ha":467,"x_min":-17,"x_max":511,"o":"m 0 0 m -17 0 l -7 51 l 114 81 l 247 771 l 139 799 l 147 850 l 511 850 l 501 799 l 379 771 l 246 81 l 356 51 l 346 0 l -17 0 m 233 892 l 76 1099 l 78 1125 l 189 1125 l 269 911 l 233 892 m 458 892 l 300 1099 l 301 1125 l 413 1125 l 493 911 l 458 892 z "},"Ï":{"ha":490,"x_min":-10,"x_max":589,"o":"m 218 922 q 156 947 182 922 q 129 1006 129 971 q 156 1067 129 1042 q 218 1092 182 1092 q 278 1067 253 1092 q 304 1006 304 1042 q 278 947 304 971 q 218 922 253 922 m 503 922 q 441 947 467 922 q 415 1006 415 971 q 441 1067 415 1042 q 503 1092 467 1092 q 563 1067 538 1092 q 589 1006 589 1042 q 563 947 589 971 q 503 922 538 922 m -10 0 l -1 51 l 119 81 l 254 771 l 144 799 l 154 850 l 517 850 l 507 799 l 386 771 l 251 81 l 361 51 l 353 0 l -10 0 z "},"İ":{"ha":490,"x_min":-10,"x_max":517,"o":"m 361 914 q 295 940 324 914 q 267 1003 267 965 q 295 1068 267 1040 q 361 1096 324 1096 q 426 1069 399 1096 q 453 1003 453 1042 q 426 940 453 965 q 361 914 399 914 m -10 0 l -1 51 l 119 81 l 254 771 l 144 799 l 154 850 l 517 850 l 507 799 l 386 771 l 251 81 l 361 51 l 353 0 l -10 0 z "},"Ị":{"ha":467,"x_min":-17,"x_max":511,"o":"m 0 0 m -17 0 l -7 51 l 114 81 l 247 771 l 139 799 l 147 850 l 511 850 l 501 799 l 379 771 l 246 81 l 356 51 l 346 0 l -17 0 m 139 -57 q 201 -83 174 -57 q 228 -146 228 -110 q 201 -207 228 -182 q 139 -232 175 -232 q 76 -207 103 -232 q 49 -146 49 -182 q 76 -83 49 -110 q 139 -57 103 -57 z "},"Ì":{"ha":490,"x_min":-10,"x_max":517,"o":"m 488 897 l 183 1043 l 185 1069 l 299 1111 l 513 931 l 488 897 m -10 0 l -1 51 l 119 81 l 254 771 l 144 799 l 154 850 l 517 850 l 507 799 l 386 771 l 251 81 l 361 51 l 353 0 l -10 0 z "},"Ỉ":{"ha":467,"x_min":-17,"x_max":511,"o":"m 0 0 m -17 0 l -7 51 l 114 81 l 247 771 l 139 799 l 147 850 l 511 850 l 501 799 l 379 771 l 246 81 l 356 51 l 346 0 l -17 0 m 333 953 q 347 981 335 971 q 382 999 360 990 q 415 1017 404 1008 q 426 1043 426 1026 q 383 1072 426 1072 l 351 1071 l 333 1028 l 288 1028 l 293 1101 q 399 1113 356 1113 q 481 1096 451 1113 q 511 1047 511 1079 q 461 983 511 1006 q 433 973 451 979 q 403 958 414 967 q 389 936 392 950 l 332 936 l 333 953 z "},"Ȋ":{"ha":467,"x_min":-17,"x_max":517,"o":"m 0 0 m -17 0 l -7 51 l 114 81 l 247 771 l 139 799 l 147 850 l 511 850 l 501 799 l 379 771 l 246 81 l 356 51 l 346 0 l -17 0 m 376 1101 q 517 979 517 1101 q 508 932 517 960 l 453 932 q 457 956 457 943 q 435 1001 454 985 q 364 1018 417 1018 q 272 994 300 1018 q 235 932 243 971 l 181 932 q 241 1055 196 1008 q 376 1101 286 1101 z "},"Ī":{"ha":490,"x_min":-10,"x_max":532,"o":"m 201 961 l 213 1044 l 532 1044 l 519 961 l 201 961 m -10 0 l -1 51 l 119 81 l 254 771 l 144 799 l 154 850 l 517 850 l 507 799 l 386 771 l 251 81 l 361 51 l 353 0 l -10 0 z "},"Į":{"ha":490,"x_min":-10,"x_max":517,"o":"m 201 -328 q 111 -299 140 -328 q 82 -226 82 -271 q 126 -106 82 -168 q 251 0 171 -44 l -10 0 l -1 51 l 119 81 l 254 771 l 144 799 l 154 850 l 517 850 l 507 799 l 386 771 l 251 81 l 363 51 l 353 0 q 235 -82 283 -25 q 186 -196 186 -139 q 202 -243 186 -226 q 249 -260 218 -260 q 326 -229 288 -260 l 349 -254 q 328 -276 349 -257 q 276 -311 308 -294 q 201 -328 243 -328 z "},"Ĩ":{"ha":490,"x_min":-10,"x_max":576,"o":"m 467 925 q 351 953 440 925 q 246 979 275 979 q 219 968 232 979 q 197 946 206 957 q 186 931 189 935 l 138 950 q 189 1051 163 1014 q 247 1088 215 1088 q 360 1060 276 1088 q 422 1040 392 1049 q 468 1032 451 1032 q 497 1042 483 1032 q 518 1064 510 1053 q 528 1079 526 1075 l 576 1060 q 524 960 550 996 q 467 925 499 925 m -10 0 l -1 51 l 119 81 l 254 771 l 144 799 l 154 850 l 517 850 l 507 799 l 386 771 l 251 81 l 361 51 l 353 0 l -10 0 z "},"J":{"ha":442,"x_min":-121,"x_max":510,"o":"m 6 -207 q -121 -168 -72 -207 l -107 -125 l -15 -125 q 72 -81 43 -125 q 115 46 100 -37 l 250 771 l 140 799 l 150 850 l 510 850 l 501 799 l 381 771 l 254 88 q 164 -142 225 -76 q 6 -207 103 -207 z "},"Ĵ":{"ha":442,"x_min":-121,"x_max":525,"o":"m 0 0 m 6 -207 q -121 -168 -72 -207 l -107 -125 l -15 -125 q 72 -81 43 -125 q 115 46 100 -37 l 250 771 l 140 799 l 150 850 l 510 850 l 501 799 l 381 771 l 254 88 q 164 -142 225 -76 q 6 -207 103 -207 m 488 899 l 351 1010 l 161 899 l 132 929 l 321 1113 l 414 1113 l 525 928 l 488 899 z "},"K":{"ha":781,"x_min":-17,"x_max":857,"o":"m 722 0 l 506 0 l 311 417 l 246 81 l 350 51 l 340 0 l -17 0 l -7 51 l 114 81 l 247 771 l 139 799 l 147 850 l 507 850 l 497 799 l 379 771 l 318 460 l 650 774 l 572 799 l 582 850 l 857 850 l 849 800 l 750 771 l 431 465 l 619 81 l 731 51 l 722 0 z "},"Ķ":{"ha":788,"x_min":-10,"x_max":864,"o":"m 729 0 l 513 0 l 317 417 l 251 81 l 356 51 l 346 0 l -10 0 l 0 51 l 121 81 l 254 771 l 144 799 l 154 850 l 513 850 l 504 799 l 386 771 l 325 460 l 656 774 l 579 799 l 589 850 l 864 850 l 854 800 l 757 771 l 438 465 l 626 81 l 738 51 l 729 0 m 292 -312 l 250 -301 l 299 -64 l 410 -40 l 433 -67 l 292 -312 z "},"L":{"ha":632,"x_min":-17,"x_max":597,"o":"m 558 0 l -17 0 l -7 51 l 114 81 l 247 771 l 139 799 l 147 850 l 511 850 l 501 799 l 379 771 l 246 83 l 483 83 l 540 210 l 597 210 l 558 0 z "},"Ǉ":{"ha":1074,"x_min":-17,"x_max":1142,"o":"m 0 0 m 558 0 l -17 0 l -7 51 l 114 81 l 247 771 l 139 799 l 147 850 l 511 850 l 501 799 l 379 771 l 246 83 l 483 83 l 540 210 l 597 210 l 558 0 m 638 -207 q 511 -168 560 -207 l 525 -125 l 617 -125 q 703 -81 675 -125 q 747 46 732 -37 l 882 771 l 772 799 l 782 850 l 1142 850 l 1133 799 l 1013 771 l 886 88 q 796 -142 857 -76 q 638 -207 735 -207 z "},"Ĺ":{"ha":644,"x_min":-10,"x_max":604,"o":"m 236 897 l 210 931 l 425 1111 l 540 1069 l 540 1043 l 236 897 m 564 0 l -10 0 l 0 51 l 121 81 l 254 771 l 144 799 l 154 850 l 517 850 l 508 799 l 386 771 l 251 83 l 490 83 l 547 210 l 604 210 l 564 0 z "},"Ľ":{"ha":644,"x_min":-10,"x_max":604,"o":"m 221 1113 l 364 1004 l 547 1114 l 575 1083 l 396 900 l 303 900 l 182 1085 l 221 1113 m 564 0 l -10 0 l 0 51 l 121 81 l 254 771 l 144 799 l 154 850 l 517 850 l 508 799 l 386 771 l 251 83 l 490 83 l 547 210 l 604 210 l 564 0 z "},"Ļ":{"ha":644,"x_min":-10,"x_max":604,"o":"m 564 0 l -10 0 l 0 51 l 121 81 l 254 771 l 144 799 l 154 850 l 517 850 l 508 799 l 386 771 l 251 83 l 490 83 l 547 210 l 604 210 l 564 0 m 238 -312 l 196 -301 l 244 -64 l 356 -40 l 379 -67 l 238 -312 z "},"Ŀ":{"ha":632,"x_min":-17,"x_max":658,"o":"m 0 0 m 558 0 l -17 0 l -7 51 l 114 81 l 247 771 l 139 799 l 147 850 l 511 850 l 501 799 l 379 771 l 246 83 l 483 83 l 540 210 l 597 210 l 558 0 m 658 596 q 633 534 658 560 q 568 508 607 508 q 506 534 532 508 q 481 596 481 560 q 506 659 481 633 q 568 685 532 685 q 633 660 607 685 q 658 596 658 635 z "},"ǈ":{"ha":1022,"x_min":-17,"x_max":1022,"o":"m 0 0 m 558 0 l -17 0 l -7 51 l 114 81 l 247 771 l 139 799 l 147 850 l 511 850 l 501 799 l 379 771 l 246 83 l 483 83 l 540 210 l 597 210 l 558 0 m 933 810 q 872 835 899 810 q 846 894 846 860 q 872 957 846 931 q 933 983 899 983 q 996 957 969 983 q 1022 894 1022 931 q 996 835 1022 860 q 933 810 969 810 m 601 -239 q 526 -230 561 -239 q 469 -210 490 -221 q 443 -197 449 -200 l 457 -139 q 561 -156 510 -156 q 664 -122 625 -156 q 717 -7 703 -89 l 826 606 l 725 615 l 717 657 q 841 691 771 676 q 940 706 911 706 q 969 674 969 706 q 922 398 957 599 q 847 -19 886 197 q 766 -181 828 -124 q 601 -239 704 -239 z "},"Ł":{"ha":643,"x_min":-10,"x_max":604,"o":"m 564 0 l -10 0 l 0 51 l 121 81 l 172 349 l 68 299 l 38 360 l 189 435 l 254 771 l 144 799 l 154 850 l 517 850 l 508 799 l 386 771 l 333 506 l 456 565 l 488 504 l 318 419 l 251 83 l 490 83 l 547 210 l 604 210 l 564 0 z "},"M":{"ha":1101,"x_min":-14,"x_max":1131,"o":"m 286 0 l -14 0 l -4 51 l 108 81 l 267 771 l 167 799 l 176 850 l 429 850 l 518 182 l 861 850 l 1131 850 l 1121 799 l 999 771 l 893 81 l 1003 51 l 993 0 l 631 0 l 640 51 l 761 81 l 853 671 l 501 1 l 418 -14 l 324 671 l 188 81 l 296 51 l 286 0 z "},"N":{"ha":936,"x_min":-19,"x_max":985,"o":"m 685 850 l 985 850 l 976 799 l 861 771 l 713 0 l 625 -12 l 297 657 l 186 81 l 292 51 l 282 0 l -19 0 l -10 51 l 103 81 l 236 771 l 136 799 l 144 850 l 347 850 l 671 197 l 781 771 l 676 799 l 685 850 z "},"Ǌ":{"ha":1378,"x_min":-19,"x_max":1446,"o":"m 0 0 m 685 850 l 985 850 l 976 799 l 861 771 l 713 0 l 625 -12 l 297 657 l 186 81 l 292 51 l 282 0 l -19 0 l -10 51 l 103 81 l 236 771 l 136 799 l 144 850 l 347 850 l 671 197 l 781 771 l 676 799 l 685 850 m 942 -207 q 815 -168 864 -207 l 829 -125 l 921 -125 q 1008 -81 979 -125 q 1051 46 1036 -37 l 1186 771 l 1076 799 l 1086 850 l 1446 850 l 1438 799 l 1317 771 l 1190 88 q 1100 -142 1161 -76 q 942 -207 1039 -207 z "},"Ń":{"ha":965,"x_min":-10,"x_max":994,"o":"m 499 897 l 472 931 l 688 1111 l 801 1069 l 801 1043 l 499 897 m 694 850 l 994 850 l 986 799 l 871 771 l 722 0 l 635 -12 l 307 657 l 196 81 l 301 51 l 292 0 l -10 0 l 0 51 l 113 81 l 246 771 l 146 799 l 154 850 l 357 850 l 681 197 l 790 771 l 686 799 l 694 850 z "},"Ň":{"ha":965,"x_min":-10,"x_max":994,"o":"m 444 1113 l 589 1004 l 771 1114 l 800 1083 l 619 900 l 526 900 l 406 1085 l 444 1113 m 694 850 l 994 850 l 986 799 l 871 771 l 722 0 l 635 -12 l 307 657 l 196 81 l 301 51 l 292 0 l -10 0 l 0 51 l 113 81 l 246 771 l 146 799 l 154 850 l 357 850 l 681 197 l 790 771 l 686 799 l 694 850 z "},"Ņ":{"ha":965,"x_min":-10,"x_max":994,"o":"m 694 850 l 994 850 l 986 799 l 871 771 l 722 0 l 635 -12 l 307 657 l 196 81 l 301 51 l 292 0 l -10 0 l 0 51 l 113 81 l 246 771 l 146 799 l 154 850 l 357 850 l 681 197 l 790 771 l 686 799 l 694 850 m 349 -312 l 308 -301 l 357 -64 l 468 -40 l 492 -67 l 349 -312 z "},"Ṅ":{"ha":936,"x_min":-19,"x_max":985,"o":"m 0 0 m 685 850 l 985 850 l 976 799 l 861 771 l 713 0 l 625 -12 l 297 657 l 186 81 l 292 51 l 282 0 l -19 0 l -10 51 l 103 81 l 236 771 l 136 799 l 144 850 l 347 850 l 671 197 l 781 771 l 676 799 l 685 850 m 690 1003 q 663 940 690 965 q 597 914 635 914 q 532 940 560 914 q 504 1003 504 965 q 532 1068 504 1040 q 597 1096 560 1096 q 663 1068 635 1096 q 690 1003 690 1040 z "},"Ŋ":{"ha":936,"x_min":-19,"x_max":985,"o":"m 985 850 l 976 799 l 861 771 l 729 88 q 670 -109 706 -37 q 584 -210 635 -181 q 458 -239 533 -239 q 306 -197 381 -239 l 319 -139 q 431 -156 368 -156 q 541 -106 504 -156 q 590 57 578 -56 l 297 657 l 186 81 l 292 51 l 282 0 l -19 0 l -10 51 l 103 81 l 236 771 l 136 799 l 144 850 l 347 850 l 671 197 l 781 771 l 676 799 l 685 850 l 985 850 z "},"Ɲ":{"ha":936,"x_min":-179,"x_max":985,"o":"m 985 850 l 976 799 l 861 771 l 713 0 l 625 -12 l 297 657 q 214 193 282 563 l 176 -19 q 102 -182 157 -125 q -39 -239 47 -239 q -179 -197 -118 -239 l -165 -139 q -60 -156 -112 -156 q 42 -122 4 -156 q 94 -7 79 -89 l 235 771 l 136 799 l 144 850 l 347 850 l 671 197 l 781 771 l 676 799 l 685 850 l 985 850 z "},"ǋ":{"ha":1326,"x_min":-19,"x_max":1326,"o":"m 0 0 m 685 850 l 985 850 l 976 799 l 861 771 l 713 0 l 625 -12 l 297 657 l 186 81 l 292 51 l 282 0 l -19 0 l -10 51 l 103 81 l 236 771 l 136 799 l 144 850 l 347 850 l 671 197 l 781 771 l 676 799 l 685 850 m 1238 810 q 1176 835 1203 810 q 1150 894 1150 860 q 1176 957 1150 931 q 1238 983 1203 983 q 1300 957 1274 983 q 1326 894 1326 931 q 1300 835 1326 860 q 1238 810 1274 810 m 906 -239 q 830 -230 865 -239 q 774 -210 794 -221 q 747 -197 753 -200 l 761 -139 q 865 -156 814 -156 q 968 -122 929 -156 q 1021 -7 1007 -89 l 1131 606 l 1029 615 l 1021 657 q 1145 691 1075 676 q 1244 706 1215 706 q 1274 674 1274 706 q 1226 398 1261 599 q 1151 -19 1190 197 q 1070 -181 1132 -124 q 906 -239 1008 -239 z "},"Ñ":{"ha":965,"x_min":-10,"x_max":994,"o":"m 826 1060 q 774 960 800 996 q 718 925 749 925 q 600 954 685 925 q 497 979 519 979 q 469 968 483 979 q 447 946 456 957 q 436 931 439 935 l 388 950 q 439 1051 413 1014 q 497 1088 465 1088 q 611 1058 529 1088 q 659 1044 621 1056 q 718 1032 697 1032 q 747 1042 733 1032 q 768 1064 760 1053 q 778 1079 776 1075 l 826 1060 m 694 850 l 994 850 l 986 799 l 871 771 l 722 0 l 635 -12 l 307 657 l 196 81 l 301 51 l 292 0 l -10 0 l 0 51 l 113 81 l 246 771 l 146 799 l 154 850 l 357 850 l 681 197 l 790 771 l 686 799 l 694 850 z "},"O":{"ha":868,"x_min":56,"x_max":843,"o":"m 365 -12 q 130 69 204 -12 q 56 296 56 150 q 113 578 56 447 q 278 790 169 710 q 536 871 386 871 q 769 790 696 871 q 843 569 843 708 q 788 283 843 417 q 624 69 732 150 q 365 -12 515 -12 m 379 63 q 562 142 490 63 q 665 336 633 221 q 697 565 697 451 q 657 735 697 675 q 519 796 617 796 q 331 706 401 796 q 232 499 260 615 q 204 296 204 383 q 244 123 204 183 q 379 63 283 63 z "},"Ó":{"ha":868,"x_min":56,"x_max":843,"o":"m 56 0 m 365 -12 q 130 69 204 -12 q 56 296 56 150 q 113 578 56 447 q 278 790 169 710 q 536 871 386 871 q 769 790 696 871 q 843 569 843 708 q 788 283 843 417 q 624 69 732 150 q 365 -12 515 -12 m 379 63 q 562 142 490 63 q 665 336 633 221 q 697 565 697 451 q 657 735 697 675 q 519 796 617 796 q 331 706 401 796 q 232 499 260 615 q 204 296 204 383 q 244 123 204 183 q 379 63 283 63 m 489 897 l 463 931 l 678 1111 l 793 1069 l 793 1043 l 489 897 z "},"Ŏ":{"ha":868,"x_min":56,"x_max":843,"o":"m 56 0 m 365 -12 q 130 69 204 -12 q 56 296 56 150 q 113 578 56 447 q 278 790 169 710 q 536 871 386 871 q 769 790 696 871 q 843 569 843 708 q 788 283 843 417 q 624 69 732 150 q 365 -12 515 -12 m 379 63 q 562 142 490 63 q 665 336 633 221 q 697 565 697 451 q 657 735 697 675 q 519 796 617 796 q 331 706 401 796 q 232 499 260 615 q 204 296 204 383 q 244 123 204 183 q 379 63 283 63 m 544 922 q 403 1043 403 922 q 411 1092 403 1061 l 468 1092 q 464 1068 464 1082 q 484 1022 465 1039 q 556 1006 503 1006 q 649 1029 621 1006 q 685 1092 678 1053 l 739 1092 q 544 922 706 922 z "},"Ǒ":{"ha":868,"x_min":56,"x_max":843,"o":"m 56 0 m 365 -12 q 130 69 204 -12 q 56 296 56 150 q 113 578 56 447 q 278 790 169 710 q 536 871 386 871 q 769 790 696 871 q 843 569 843 708 q 788 283 843 417 q 624 69 732 150 q 365 -12 515 -12 m 379 63 q 562 142 490 63 q 665 336 633 221 q 697 565 697 451 q 657 735 697 675 q 519 796 617 796 q 331 706 401 796 q 232 499 260 615 q 204 296 204 383 q 244 123 204 183 q 379 63 283 63 m 414 1113 l 558 1004 l 740 1114 l 769 1083 l 590 900 l 496 900 l 376 1085 l 414 1113 z "},"Ô":{"ha":868,"x_min":56,"x_max":843,"o":"m 371 899 l 342 929 l 529 1113 l 624 1113 l 735 928 l 696 899 l 560 1010 l 371 899 m 365 -12 q 130 69 204 -12 q 56 296 56 150 q 113 578 56 447 q 278 790 169 710 q 536 871 386 871 q 769 790 696 871 q 843 569 843 708 q 788 283 843 417 q 624 69 732 150 q 365 -12 515 -12 m 379 63 q 562 142 490 63 q 665 336 633 221 q 697 565 697 451 q 657 735 697 675 q 519 796 617 796 q 331 706 401 796 q 232 499 260 615 q 204 296 204 383 q 244 123 204 183 q 379 63 283 63 z "},"Ố":{"ha":868,"x_min":56,"x_max":944,"o":"m 710 967 l 674 988 l 813 1233 l 935 1233 l 944 1207 l 710 967 m 663 899 l 526 1010 l 336 899 l 307 929 l 496 1113 l 589 1113 l 700 928 l 663 899 m 365 -12 q 130 69 204 -12 q 56 296 56 150 q 113 578 56 447 q 278 790 169 710 q 536 871 386 871 q 769 790 696 871 q 843 569 843 708 q 788 283 843 417 q 624 69 732 150 q 365 -12 515 -12 m 379 63 q 562 142 490 63 q 665 336 633 221 q 697 565 697 451 q 657 735 697 675 q 519 796 617 796 q 331 706 401 796 q 232 499 260 615 q 204 296 204 383 q 244 123 204 183 q 379 63 283 63 z "},"Ộ":{"ha":868,"x_min":56,"x_max":843,"o":"m 56 0 m 365 -12 q 130 69 204 -12 q 56 296 56 150 q 113 578 56 447 q 278 790 169 710 q 536 871 386 871 q 769 790 696 871 q 843 569 843 708 q 788 283 843 417 q 624 69 732 150 q 365 -12 515 -12 m 379 63 q 562 142 490 63 q 665 336 633 221 q 697 565 697 451 q 657 735 697 675 q 519 796 617 796 q 331 706 401 796 q 232 499 260 615 q 204 296 204 383 q 244 123 204 183 q 379 63 283 63 m 338 -57 q 399 -83 372 -57 q 426 -146 426 -110 q 400 -207 426 -182 q 338 -232 374 -232 q 274 -207 301 -232 q 247 -146 247 -182 q 274 -83 247 -110 q 338 -57 301 -57 m 699 899 l 563 1010 l 372 899 l 343 929 l 532 1113 l 625 1113 l 736 928 l 699 899 z "},"Ồ":{"ha":868,"x_min":56,"x_max":843,"o":"m 724 964 l 576 1211 l 593 1233 l 689 1233 l 764 978 l 724 964 m 663 899 l 526 1010 l 336 899 l 307 929 l 496 1113 l 589 1113 l 700 928 l 663 899 m 365 -12 q 130 69 204 -12 q 56 296 56 150 q 113 578 56 447 q 278 790 169 710 q 536 871 386 871 q 769 790 696 871 q 843 569 843 708 q 788 283 843 417 q 624 69 732 150 q 365 -12 515 -12 m 379 63 q 562 142 490 63 q 665 336 633 221 q 697 565 697 451 q 657 735 697 675 q 519 796 617 796 q 331 706 401 796 q 232 499 260 615 q 204 296 204 383 q 244 123 204 183 q 379 63 283 63 z "},"Ổ":{"ha":868,"x_min":56,"x_max":889,"o":"m 56 0 m 365 -12 q 130 69 204 -12 q 56 296 56 150 q 113 578 56 447 q 278 790 169 710 q 536 871 386 871 q 769 790 696 871 q 843 569 843 708 q 788 283 843 417 q 624 69 732 150 q 365 -12 515 -12 m 379 63 q 562 142 490 63 q 665 336 633 221 q 697 565 697 451 q 657 735 697 675 q 519 796 617 796 q 331 706 401 796 q 232 499 260 615 q 204 296 204 383 q 244 123 204 183 q 379 63 283 63 m 699 899 l 563 1010 l 372 899 l 343 929 l 532 1113 l 625 1113 l 736 928 l 699 899 m 711 1074 q 725 1101 713 1092 q 760 1119 738 1111 q 793 1138 782 1129 q 804 1164 804 1147 q 761 1193 804 1193 l 729 1192 l 711 1149 l 665 1149 l 671 1222 q 776 1233 733 1233 q 859 1217 829 1233 q 889 1168 889 1200 q 839 1104 889 1126 q 810 1094 829 1100 q 781 1079 792 1088 q 767 1057 769 1071 l 710 1057 l 711 1074 z "},"Ỗ":{"ha":868,"x_min":56,"x_max":843,"o":"m 56 0 m 365 -12 q 130 69 204 -12 q 56 296 56 150 q 113 578 56 447 q 278 790 169 710 q 536 871 386 871 q 769 790 696 871 q 843 569 843 708 q 788 283 843 417 q 624 69 732 150 q 365 -12 515 -12 m 379 63 q 562 142 490 63 q 665 336 633 221 q 697 565 697 451 q 657 735 697 675 q 519 796 617 796 q 331 706 401 796 q 232 499 260 615 q 204 296 204 383 q 244 123 204 183 q 379 63 283 63 m 699 899 l 563 1010 l 372 899 l 343 929 l 532 1113 l 625 1113 l 736 928 l 699 899 m 819 1257 q 769 1158 794 1193 q 711 1122 743 1122 q 596 1150 685 1122 q 490 1176 519 1176 q 463 1165 476 1176 q 442 1143 450 1154 q 431 1128 433 1132 l 382 1147 q 492 1285 433 1285 q 604 1257 521 1285 q 666 1238 636 1246 q 713 1229 696 1229 q 741 1240 728 1229 q 763 1261 754 1250 q 772 1276 771 1272 l 819 1257 z "},"Ȍ":{"ha":868,"x_min":56,"x_max":843,"o":"m 56 0 m 365 -12 q 130 69 204 -12 q 56 296 56 150 q 113 578 56 447 q 278 790 169 710 q 536 871 386 871 q 769 790 696 871 q 843 569 843 708 q 788 283 843 417 q 624 69 732 150 q 365 -12 515 -12 m 379 63 q 562 142 490 63 q 665 336 633 221 q 697 565 697 451 q 657 735 697 675 q 519 796 617 796 q 331 706 401 796 q 232 499 260 615 q 204 296 204 383 q 244 123 204 183 q 379 63 283 63 m 432 892 l 275 1099 l 276 1125 l 388 1125 l 468 911 l 432 892 m 657 892 l 499 1099 l 500 1125 l 611 1125 l 692 911 l 657 892 z "},"Ö":{"ha":868,"x_min":56,"x_max":843,"o":"m 418 922 q 357 947 383 922 q 331 1006 331 971 q 357 1067 331 1042 q 418 1092 383 1092 q 478 1067 453 1092 q 504 1006 504 1042 q 478 947 504 971 q 418 922 453 922 m 703 922 q 642 947 668 922 q 615 1006 615 971 q 642 1067 615 1042 q 703 1092 668 1092 q 764 1067 738 1092 q 790 1006 790 1042 q 764 947 790 971 q 703 922 738 922 m 365 -12 q 130 69 204 -12 q 56 296 56 150 q 113 578 56 447 q 278 790 169 710 q 536 871 386 871 q 769 790 696 871 q 843 569 843 708 q 788 283 843 417 q 624 69 732 150 q 365 -12 515 -12 m 379 63 q 562 142 490 63 q 665 336 633 221 q 697 565 697 451 q 657 735 697 675 q 519 796 617 796 q 331 706 401 796 q 232 499 260 615 q 204 296 204 383 q 244 123 204 183 q 379 63 283 63 z "},"Ọ":{"ha":868,"x_min":56,"x_max":843,"o":"m 56 0 m 365 -12 q 130 69 204 -12 q 56 296 56 150 q 113 578 56 447 q 278 790 169 710 q 536 871 386 871 q 769 790 696 871 q 843 569 843 708 q 788 283 843 417 q 624 69 732 150 q 365 -12 515 -12 m 379 63 q 562 142 490 63 q 665 336 633 221 q 697 565 697 451 q 657 735 697 675 q 519 796 617 796 q 331 706 401 796 q 232 499 260 615 q 204 296 204 383 q 244 123 204 183 q 379 63 283 63 m 338 -57 q 399 -83 372 -57 q 426 -146 426 -110 q 400 -207 426 -182 q 338 -232 374 -232 q 274 -207 301 -232 q 247 -146 247 -182 q 274 -83 247 -110 q 338 -57 301 -57 z "},"Ò":{"ha":868,"x_min":56,"x_max":843,"o":"m 674 897 l 369 1043 l 371 1069 l 485 1111 l 699 931 l 674 897 m 365 -12 q 130 69 204 -12 q 56 296 56 150 q 113 578 56 447 q 278 790 169 710 q 536 871 386 871 q 769 790 696 871 q 843 569 843 708 q 788 283 843 417 q 624 69 732 150 q 365 -12 515 -12 m 379 63 q 562 142 490 63 q 665 336 633 221 q 697 565 697 451 q 657 735 697 675 q 519 796 617 796 q 331 706 401 796 q 232 499 260 615 q 204 296 204 383 q 244 123 204 183 q 379 63 283 63 z "},"Ỏ":{"ha":868,"x_min":56,"x_max":843,"o":"m 56 0 m 365 -12 q 130 69 204 -12 q 56 296 56 150 q 113 578 56 447 q 278 790 169 710 q 536 871 386 871 q 769 790 696 871 q 843 569 843 708 q 788 283 843 417 q 624 69 732 150 q 365 -12 515 -12 m 379 63 q 562 142 490 63 q 665 336 633 221 q 697 565 697 451 q 657 735 697 675 q 519 796 617 796 q 331 706 401 796 q 232 499 260 615 q 204 296 204 383 q 244 123 204 183 q 379 63 283 63 m 532 953 q 546 981 533 971 q 581 999 558 990 q 614 1017 603 1008 q 625 1043 625 1026 q 582 1072 625 1072 l 550 1071 l 532 1028 l 486 1028 l 492 1101 q 597 1113 554 1113 q 680 1096 650 1113 q 710 1047 710 1079 q 660 983 710 1006 q 631 973 650 979 q 601 958 613 967 q 588 936 590 950 l 531 936 l 532 953 z "},"Ơ":{"ha":868,"x_min":56,"x_max":961,"o":"m 961 885 q 917 797 961 833 q 804 743 874 760 q 843 569 843 674 q 788 283 843 417 q 624 69 732 150 q 365 -12 515 -12 q 130 69 204 -12 q 56 296 56 150 q 113 578 56 447 q 278 790 169 710 q 536 871 386 871 q 763 796 685 871 q 821 815 801 799 q 840 869 840 831 q 833 926 840 896 l 842 944 l 943 964 q 956 924 951 946 q 961 885 961 901 m 379 63 q 562 142 490 63 q 665 336 633 221 q 697 565 697 451 q 657 735 697 675 q 519 796 617 796 q 331 706 401 796 q 232 499 260 615 q 204 296 204 383 q 244 123 204 183 q 379 63 283 63 z "},"Ớ":{"ha":868,"x_min":56,"x_max":961,"o":"m 56 0 m 961 885 q 917 797 961 833 q 804 743 874 760 q 843 569 843 674 q 788 283 843 417 q 624 69 732 150 q 365 -12 515 -12 q 130 69 204 -12 q 56 296 56 150 q 113 578 56 447 q 278 790 169 710 q 536 871 386 871 q 763 796 685 871 q 821 815 801 799 q 840 869 840 831 q 833 926 840 896 l 842 944 l 943 964 q 956 924 951 946 q 961 885 961 901 m 379 63 q 562 142 490 63 q 665 336 633 221 q 697 565 697 451 q 657 735 697 675 q 519 796 617 796 q 331 706 401 796 q 232 499 260 615 q 204 296 204 383 q 244 123 204 183 q 379 63 283 63 m 489 897 l 463 931 l 678 1111 l 793 1069 l 793 1043 l 489 897 z "},"Ợ":{"ha":868,"x_min":56,"x_max":961,"o":"m 56 0 m 961 885 q 917 797 961 833 q 804 743 874 760 q 843 569 843 674 q 788 283 843 417 q 624 69 732 150 q 365 -12 515 -12 q 130 69 204 -12 q 56 296 56 150 q 113 578 56 447 q 278 790 169 710 q 536 871 386 871 q 763 796 685 871 q 821 815 801 799 q 840 869 840 831 q 833 926 840 896 l 842 944 l 943 964 q 956 924 951 946 q 961 885 961 901 m 379 63 q 562 142 490 63 q 665 336 633 221 q 697 565 697 451 q 657 735 697 675 q 519 796 617 796 q 331 706 401 796 q 232 499 260 615 q 204 296 204 383 q 244 123 204 183 q 379 63 283 63 m 338 -57 q 399 -83 372 -57 q 426 -146 426 -110 q 400 -207 426 -182 q 338 -232 374 -232 q 274 -207 301 -232 q 247 -146 247 -182 q 274 -83 247 -110 q 338 -57 301 -57 z "},"Ờ":{"ha":868,"x_min":56,"x_max":961,"o":"m 56 0 m 961 885 q 917 797 961 833 q 804 743 874 760 q 843 569 843 674 q 788 283 843 417 q 624 69 732 150 q 365 -12 515 -12 q 130 69 204 -12 q 56 296 56 150 q 113 578 56 447 q 278 790 169 710 q 536 871 386 871 q 763 796 685 871 q 821 815 801 799 q 840 869 840 831 q 833 926 840 896 l 842 944 l 943 964 q 956 924 951 946 q 961 885 961 901 m 379 63 q 562 142 490 63 q 665 336 633 221 q 697 565 697 451 q 657 735 697 675 q 519 796 617 796 q 331 706 401 796 q 232 499 260 615 q 204 296 204 383 q 244 123 204 183 q 379 63 283 63 m 610 897 l 306 1043 l 307 1069 l 421 1111 l 635 931 l 610 897 z "},"Ở":{"ha":868,"x_min":56,"x_max":961,"o":"m 56 0 m 961 885 q 917 797 961 833 q 804 743 874 760 q 843 569 843 674 q 788 283 843 417 q 624 69 732 150 q 365 -12 515 -12 q 130 69 204 -12 q 56 296 56 150 q 113 578 56 447 q 278 790 169 710 q 536 871 386 871 q 763 796 685 871 q 821 815 801 799 q 840 869 840 831 q 833 926 840 896 l 842 944 l 943 964 q 956 924 951 946 q 961 885 961 901 m 379 63 q 562 142 490 63 q 665 336 633 221 q 697 565 697 451 q 657 735 697 675 q 519 796 617 796 q 331 706 401 796 q 232 499 260 615 q 204 296 204 383 q 244 123 204 183 q 379 63 283 63 m 532 953 q 546 981 533 971 q 581 999 558 990 q 614 1017 603 1008 q 625 1043 625 1026 q 582 1072 625 1072 l 550 1071 l 532 1028 l 486 1028 l 492 1101 q 597 1113 554 1113 q 680 1096 650 1113 q 710 1047 710 1079 q 660 983 710 1006 q 631 973 650 979 q 601 958 613 967 q 588 936 590 950 l 531 936 l 532 953 z "},"Ỡ":{"ha":868,"x_min":56,"x_max":961,"o":"m 56 0 m 961 885 q 917 797 961 833 q 804 743 874 760 q 843 569 843 674 q 788 283 843 417 q 624 69 732 150 q 365 -12 515 -12 q 130 69 204 -12 q 56 296 56 150 q 113 578 56 447 q 278 790 169 710 q 536 871 386 871 q 763 796 685 871 q 821 815 801 799 q 840 869 840 831 q 833 926 840 896 l 842 944 l 943 964 q 956 924 951 946 q 961 885 961 901 m 379 63 q 562 142 490 63 q 665 336 633 221 q 697 565 697 451 q 657 735 697 675 q 519 796 617 796 q 331 706 401 796 q 232 499 260 615 q 204 296 204 383 q 244 123 204 183 q 379 63 283 63 m 781 1060 q 730 960 756 996 q 672 925 704 925 q 557 953 646 925 q 451 979 481 979 q 424 968 438 979 q 403 946 411 957 q 392 931 394 935 l 343 950 q 453 1088 394 1088 q 565 1060 482 1088 q 627 1040 597 1049 q 674 1032 657 1032 q 702 1042 689 1032 q 724 1064 715 1053 q 733 1079 732 1075 l 781 1060 z "},"Ő":{"ha":868,"x_min":56,"x_max":843,"o":"m 379 892 l 349 913 l 469 1125 l 581 1125 l 581 1099 l 379 892 m 603 892 l 571 913 l 693 1125 l 804 1125 l 804 1099 l 603 892 m 365 -12 q 130 69 204 -12 q 56 296 56 150 q 113 578 56 447 q 278 790 169 710 q 536 871 386 871 q 769 790 696 871 q 843 569 843 708 q 788 283 843 417 q 624 69 732 150 q 365 -12 515 -12 m 379 63 q 562 142 490 63 q 665 336 633 221 q 697 565 697 451 q 657 735 697 675 q 519 796 617 796 q 331 706 401 796 q 232 499 260 615 q 204 296 204 383 q 244 123 204 183 q 379 63 283 63 z "},"Ȏ":{"ha":868,"x_min":56,"x_max":843,"o":"m 56 0 m 365 -12 q 130 69 204 -12 q 56 296 56 150 q 113 578 56 447 q 278 790 169 710 q 536 871 386 871 q 769 790 696 871 q 843 569 843 708 q 788 283 843 417 q 624 69 732 150 q 365 -12 515 -12 m 379 63 q 562 142 490 63 q 665 336 633 221 q 697 565 697 451 q 657 735 697 675 q 519 796 617 796 q 331 706 401 796 q 232 499 260 615 q 204 296 204 383 q 244 123 204 183 q 379 63 283 63 m 575 1101 q 715 979 715 1101 q 707 932 715 960 l 651 932 q 656 956 656 943 q 634 1001 653 985 q 563 1018 615 1018 q 470 994 499 1018 q 433 932 442 971 l 379 932 q 440 1055 394 1008 q 575 1101 485 1101 z "},"Ō":{"ha":868,"x_min":56,"x_max":843,"o":"m 389 953 l 401 1038 l 740 1038 l 728 953 l 389 953 m 365 -12 q 130 69 204 -12 q 56 296 56 150 q 113 578 56 447 q 278 790 169 710 q 536 871 386 871 q 769 790 696 871 q 843 569 843 708 q 788 283 843 417 q 624 69 732 150 q 365 -12 515 -12 m 379 63 q 562 142 490 63 q 665 336 633 221 q 697 565 697 451 q 657 735 697 675 q 519 796 617 796 q 331 706 401 796 q 232 499 260 615 q 204 296 204 383 q 244 123 204 183 q 379 63 283 63 z "},"Ǫ":{"ha":868,"x_min":56,"x_max":843,"o":"m 843 569 q 789 287 843 418 q 635 78 735 156 l 636 78 q 545 -25 586 38 q 504 -139 504 -87 q 520 -186 504 -169 q 565 -203 536 -203 q 644 -172 606 -203 l 667 -197 q 515 -271 604 -271 q 428 -242 457 -271 q 400 -171 400 -214 q 424 -86 400 -132 q 499 7 449 -40 q 365 -12 436 -12 q 130 69 204 -12 q 56 296 56 150 q 113 578 56 447 q 278 790 169 710 q 536 871 386 871 q 769 790 696 871 q 843 569 843 708 m 204 296 q 244 123 204 183 q 379 63 283 63 q 562 142 490 63 q 665 336 633 221 q 697 565 697 451 q 657 735 697 675 q 519 796 617 796 q 331 706 401 796 q 232 499 260 615 q 204 296 204 383 z "},"Ø":{"ha":868,"x_min":56,"x_max":843,"o":"m 261 -1 q 56 296 56 46 q 113 578 56 447 q 278 790 169 710 q 536 871 386 871 l 543 871 l 581 983 l 669 983 l 629 861 q 792 761 740 838 q 843 569 843 685 q 788 283 843 417 q 624 69 732 150 q 365 -12 515 -12 l 346 -12 l 308 -132 l 219 -132 l 261 -1 m 519 796 q 348 721 419 796 q 240 531 276 646 q 204 296 204 415 q 289 82 204 128 l 519 796 m 369 63 q 549 133 475 63 q 660 317 624 203 q 697 565 697 432 q 601 778 697 736 l 369 63 z "},"Ǿ":{"ha":868,"x_min":56,"x_max":843,"o":"m 56 0 m 261 -1 q 56 296 56 46 q 113 578 56 447 q 278 790 169 710 q 536 871 386 871 l 543 871 l 581 983 l 669 983 l 629 861 q 792 761 740 838 q 843 569 843 685 q 788 283 843 417 q 624 69 732 150 q 365 -12 515 -12 l 346 -12 l 308 -132 l 219 -132 l 261 -1 m 519 796 q 348 721 419 796 q 240 531 276 646 q 204 296 204 415 q 289 82 204 128 l 519 796 m 369 63 q 549 133 475 63 q 660 317 624 203 q 697 565 697 432 q 601 778 697 736 l 369 63 m 378 897 l 351 931 l 567 1111 l 682 1069 l 682 1043 l 378 897 z "},"Õ":{"ha":868,"x_min":56,"x_max":843,"o":"m 678 925 q 563 953 651 925 q 457 979 486 979 q 430 968 443 979 q 408 946 417 957 q 397 931 399 935 l 349 950 q 458 1088 400 1088 q 571 1060 488 1088 q 633 1040 603 1049 q 679 1032 663 1032 q 706 1042 693 1032 q 728 1064 719 1053 q 738 1079 736 1075 l 786 1060 q 735 960 760 994 q 678 925 710 925 m 365 -12 q 130 69 204 -12 q 56 296 56 150 q 113 578 56 447 q 278 790 169 710 q 536 871 386 871 q 769 790 696 871 q 843 569 843 708 q 788 283 843 417 q 624 69 732 150 q 365 -12 515 -12 m 379 63 q 562 142 490 63 q 665 336 633 221 q 697 565 697 451 q 657 735 697 675 q 519 796 617 796 q 331 706 401 796 q 232 499 260 615 q 204 296 204 383 q 244 123 204 183 q 379 63 283 63 z "},"Œ":{"ha":1222,"x_min":79,"x_max":1168,"o":"m 399 0 q 158 76 236 0 q 79 296 79 153 q 142 575 79 449 q 320 776 204 701 q 592 850 436 850 l 1168 850 l 1133 661 l 1074 661 l 1072 771 l 828 771 l 765 454 l 940 454 l 983 546 l 1038 546 l 989 290 l 935 290 l 924 386 l 753 386 l 693 83 l 958 83 l 1017 210 l 1075 210 l 1035 0 l 399 0 m 428 72 q 563 86 494 72 l 693 764 q 561 776 636 776 q 360 692 436 776 q 254 497 285 607 q 224 301 224 386 q 275 132 224 192 q 428 72 326 72 z "},"P":{"ha":719,"x_min":-17,"x_max":725,"o":"m 472 850 q 659 803 593 850 q 725 663 725 756 q 675 488 725 560 q 549 379 625 415 q 393 343 472 343 q 347 347 374 343 q 300 356 319 350 l 246 81 l 388 53 l 378 0 l -17 0 l -7 51 l 115 81 l 247 767 l 138 797 l 147 850 l 472 850 m 311 413 q 376 403 332 403 q 476 430 428 403 q 556 515 525 457 q 586 656 586 572 q 553 751 586 719 q 458 783 519 783 q 381 771 417 783 l 311 413 z "},"Þ":{"ha":669,"x_min":-17,"x_max":660,"o":"m -7 51 l 114 81 l 247 771 l 139 799 l 147 850 l 511 850 l 501 799 l 379 771 l 358 663 l 426 663 q 660 489 660 663 q 613 326 660 393 q 492 225 565 258 q 346 192 419 192 q 268 197 303 192 l 246 81 l 356 51 l 346 0 l -17 0 l -7 51 m 331 250 q 469 306 414 250 q 525 478 525 361 q 406 599 525 599 q 346 592 368 599 l 279 254 q 331 250 297 250 z "},"Q":{"ha":875,"x_min":50,"x_max":836,"o":"m 635 -212 q 565 -199 599 -212 q 471 -147 531 -186 l 249 -3 q 97 132 143 63 q 50 308 50 201 q 107 585 50 456 q 273 792 164 714 q 531 871 382 871 q 764 790 692 871 q 836 568 836 708 q 781 289 836 418 q 624 83 725 160 q 396 6 524 6 l 401 0 q 577 -91 492 -51 q 686 -131 663 -131 l 788 -131 l 783 -174 q 710 -200 753 -187 q 635 -212 667 -212 m 368 65 q 560 153 488 65 q 663 358 633 242 q 693 563 693 474 q 510 796 693 796 q 335 717 406 796 q 230 524 264 638 q 196 303 196 410 q 235 133 196 200 q 368 65 275 65 z "},"R":{"ha":771,"x_min":-17,"x_max":725,"o":"m 481 111 q 432 306 446 257 q 402 369 418 354 q 350 383 386 383 l 307 383 l 249 81 l 356 51 l 347 0 l -17 0 l -7 51 l 117 81 l 251 771 l 139 799 l 147 850 l 483 850 q 667 803 608 850 q 725 678 725 757 q 667 513 725 590 q 493 408 608 436 q 538 379 522 397 q 563 328 553 361 q 594 208 574 296 l 626 82 l 722 51 l 713 0 l 507 0 l 481 111 m 390 444 q 532 508 476 444 q 588 671 588 572 q 558 756 588 729 q 460 783 528 783 q 382 772 422 783 l 319 444 l 390 444 z "},"Ŕ":{"ha":774,"x_min":-8,"x_max":733,"o":"m 375 897 l 349 931 l 563 1111 l 678 1069 l 678 1043 l 375 897 m 490 99 q 441 302 456 251 q 410 368 426 353 q 358 383 394 383 l 315 383 l 257 81 l 364 51 l 354 0 l -8 0 l 1 51 l 125 81 l 258 771 l 146 799 l 156 850 l 492 850 q 675 803 617 850 q 733 678 733 756 q 675 513 733 590 q 501 408 617 436 q 546 379 531 397 q 572 328 561 361 q 603 208 582 296 l 635 82 l 729 51 l 721 0 l 514 0 l 490 99 m 397 444 q 539 508 483 444 q 594 671 594 572 q 565 757 594 731 q 467 783 536 783 q 390 772 431 783 l 328 444 l 397 444 z "},"Ř":{"ha":774,"x_min":-8,"x_max":733,"o":"m 342 1113 l 486 1004 l 668 1114 l 697 1083 l 517 900 l 424 900 l 303 1085 l 342 1113 m 490 99 q 441 302 456 251 q 410 368 426 353 q 358 383 394 383 l 315 383 l 257 81 l 364 51 l 354 0 l -8 0 l 1 51 l 125 81 l 258 771 l 146 799 l 156 850 l 492 850 q 675 803 617 850 q 733 678 733 756 q 675 513 733 590 q 501 408 617 436 q 546 379 531 397 q 572 328 561 361 q 603 208 582 296 l 635 82 l 729 51 l 721 0 l 514 0 l 490 99 m 397 444 q 539 508 483 444 q 594 671 594 572 q 565 757 594 731 q 467 783 536 783 q 390 772 431 783 l 328 444 l 397 444 z "},"Ŗ":{"ha":774,"x_min":-8,"x_max":733,"o":"m 490 99 q 441 302 456 251 q 410 368 426 353 q 358 383 394 383 l 315 383 l 257 81 l 364 51 l 354 0 l -8 0 l 1 51 l 125 81 l 258 771 l 146 799 l 156 850 l 492 850 q 675 803 617 850 q 733 678 733 756 q 675 513 733 590 q 501 408 617 436 q 546 379 531 397 q 572 328 561 361 q 603 208 582 296 l 635 82 l 729 51 l 721 0 l 514 0 l 490 99 m 397 444 q 539 508 483 444 q 594 671 594 572 q 565 757 594 731 q 467 783 536 783 q 390 772 431 783 l 328 444 l 397 444 m 297 -312 l 256 -301 l 306 -64 l 417 -40 l 440 -67 l 297 -312 z "},"Ȑ":{"ha":771,"x_min":-17,"x_max":725,"o":"m 0 0 m 481 111 q 432 306 446 257 q 402 369 418 354 q 350 383 386 383 l 307 383 l 249 81 l 356 51 l 347 0 l -17 0 l -7 51 l 117 81 l 251 771 l 139 799 l 147 850 l 483 850 q 667 803 608 850 q 725 678 725 757 q 667 513 725 590 q 493 408 608 436 q 538 379 522 397 q 563 328 553 361 q 594 208 574 296 l 626 82 l 722 51 l 713 0 l 507 0 l 481 111 m 390 444 q 532 508 476 444 q 588 671 588 572 q 558 756 588 729 q 460 783 528 783 q 382 772 422 783 l 319 444 l 390 444 m 385 892 l 228 1099 l 229 1125 l 340 1125 l 421 911 l 385 892 m 610 892 l 451 1099 l 453 1125 l 564 1125 l 644 911 l 610 892 z "},"Ṛ":{"ha":771,"x_min":-17,"x_max":725,"o":"m 0 0 m 481 111 q 432 306 446 257 q 402 369 418 354 q 350 383 386 383 l 307 383 l 249 81 l 356 51 l 347 0 l -17 0 l -7 51 l 117 81 l 251 771 l 139 799 l 147 850 l 483 850 q 667 803 608 850 q 725 678 725 757 q 667 513 725 590 q 493 408 608 436 q 538 379 522 397 q 563 328 553 361 q 594 208 574 296 l 626 82 l 722 51 l 713 0 l 507 0 l 481 111 m 390 444 q 532 508 476 444 q 588 671 588 572 q 558 756 588 729 q 460 783 528 783 q 382 772 422 783 l 319 444 l 390 444 m 290 -57 q 352 -83 325 -57 q 379 -146 379 -110 q 353 -207 379 -182 q 290 -232 326 -232 q 227 -207 254 -232 q 200 -146 200 -182 q 227 -83 200 -110 q 290 -57 254 -57 z "},"Ȓ":{"ha":771,"x_min":-17,"x_max":725,"o":"m 0 0 m 481 111 q 432 306 446 257 q 402 369 418 354 q 350 383 386 383 l 307 383 l 249 81 l 356 51 l 347 0 l -17 0 l -7 51 l 117 81 l 251 771 l 139 799 l 147 850 l 483 850 q 667 803 608 850 q 725 678 725 757 q 667 513 725 590 q 493 408 608 436 q 538 379 522 397 q 563 328 553 361 q 594 208 574 296 l 626 82 l 722 51 l 713 0 l 507 0 l 481 111 m 390 444 q 532 508 476 444 q 588 671 588 572 q 558 756 588 729 q 460 783 528 783 q 382 772 422 783 l 319 444 l 390 444 m 528 1101 q 668 979 668 1101 q 660 932 668 960 l 604 932 q 608 956 608 943 q 587 1001 606 985 q 515 1018 568 1018 q 423 994 451 1018 q 386 932 394 971 l 332 932 q 392 1055 347 1008 q 528 1101 438 1101 z "},"S":{"ha":657,"x_min":-1,"x_max":653,"o":"m 219 -15 q 104 -4 164 -15 q -1 28 44 7 l 46 201 l 101 201 l 108 82 q 242 61 174 61 q 388 108 336 61 q 440 232 440 156 q 419 307 440 275 q 350 360 399 339 l 240 414 q 160 477 197 432 q 122 592 122 522 q 204 795 122 719 q 443 871 286 871 q 653 832 546 871 l 606 647 l 550 647 l 543 778 q 494 790 526 785 q 435 794 463 794 q 299 756 350 794 q 249 640 249 717 q 271 574 249 600 q 340 526 293 547 l 446 474 q 538 398 504 446 q 571 288 571 350 q 480 67 571 150 q 219 -15 389 -15 z "},"Ś":{"ha":644,"x_min":-3,"x_max":651,"o":"m 324 897 l 297 931 l 513 1111 l 626 1069 l 626 1043 l 324 897 m 218 -15 q 103 -4 163 -15 q -3 28 43 7 l 44 201 l 100 201 l 107 82 q 240 61 172 61 q 387 108 335 61 q 439 232 439 156 q 350 360 439 322 l 239 414 q 158 477 196 432 q 121 592 121 522 q 203 795 121 719 q 442 871 285 871 q 651 832 546 871 l 606 647 l 550 647 l 542 778 q 493 790 524 785 q 435 794 463 794 q 299 756 349 794 q 249 640 249 717 q 271 573 249 599 q 340 526 293 547 l 444 474 q 536 398 503 446 q 569 288 569 350 q 478 67 569 150 q 218 -15 388 -15 z "},"Ꞌ":{"ha":142,"x_min":29,"x_max":244,"o":"m 79 382 l 29 392 l 114 850 l 224 850 l 244 822 l 79 382 z "},"Š":{"ha":644,"x_min":-3,"x_max":654,"o":"m 299 1113 l 443 1004 l 625 1114 l 654 1083 l 475 900 l 381 900 l 261 1085 l 299 1113 m 218 -15 q 103 -4 163 -15 q -3 28 43 7 l 44 201 l 100 201 l 107 82 q 240 61 172 61 q 387 108 335 61 q 439 232 439 156 q 350 360 439 322 l 239 414 q 158 477 196 432 q 121 592 121 522 q 203 795 121 719 q 442 871 285 871 q 651 832 546 871 l 606 647 l 550 647 l 542 778 q 493 790 524 785 q 435 794 463 794 q 299 756 349 794 q 249 640 249 717 q 271 573 249 599 q 340 526 293 547 l 444 474 q 536 398 503 446 q 569 288 569 350 q 478 67 569 150 q 218 -15 388 -15 z "},"Ş":{"ha":644,"x_min":-4,"x_max":650,"o":"m 568 288 q 485 74 568 156 q 246 -14 401 -7 l 221 -62 q 316 -85 285 -62 q 347 -144 347 -108 q 317 -226 347 -189 q 241 -283 288 -262 q 146 -304 194 -304 q 60 -292 93 -304 l 81 -250 q 132 -260 104 -260 q 210 -233 178 -260 q 243 -167 243 -206 q 223 -127 243 -143 q 157 -111 203 -111 l 154 -94 l 196 -14 q -4 28 75 -8 l 43 201 l 99 201 l 106 82 q 239 61 172 61 q 385 108 333 61 q 438 232 438 156 q 417 307 438 275 q 347 360 396 339 l 238 414 q 157 477 194 432 q 119 592 119 522 q 201 795 119 719 q 440 871 283 871 q 650 832 543 871 l 603 647 l 547 647 l 540 778 q 492 790 522 785 q 432 794 461 794 q 297 756 347 794 q 247 640 247 717 q 269 574 247 600 q 338 526 292 547 l 443 474 q 535 398 501 446 q 568 288 568 350 z "},"Ŝ":{"ha":657,"x_min":-1,"x_max":653,"o":"m 0 0 m 219 -15 q 104 -4 164 -15 q -1 28 44 7 l 46 201 l 101 201 l 108 82 q 242 61 174 61 q 388 108 336 61 q 440 232 440 156 q 419 307 440 275 q 350 360 399 339 l 240 414 q 160 477 197 432 q 122 592 122 522 q 204 795 122 719 q 443 871 286 871 q 653 832 546 871 l 606 647 l 550 647 l 543 778 q 494 790 526 785 q 435 794 463 794 q 299 756 350 794 q 249 640 249 717 q 271 574 249 600 q 340 526 293 547 l 446 474 q 538 398 504 446 q 571 288 571 350 q 480 67 571 150 q 219 -15 389 -15 m 594 899 l 458 1010 l 268 899 l 239 929 l 428 1113 l 521 1113 l 632 928 l 594 899 z "},"Ș":{"ha":644,"x_min":-4,"x_max":650,"o":"m 217 -15 q 101 -4 161 -15 q -4 28 42 7 l 43 201 l 99 201 l 106 82 q 239 61 172 61 q 385 108 333 61 q 438 232 438 156 q 417 307 438 275 q 347 360 396 339 l 238 414 q 157 477 194 432 q 119 592 119 522 q 201 795 119 719 q 440 871 283 871 q 650 832 543 871 l 603 647 l 547 647 l 540 778 q 492 790 522 785 q 432 794 461 794 q 297 756 347 794 q 247 640 247 717 q 269 574 247 600 q 338 526 292 547 l 443 474 q 535 398 501 446 q 568 288 568 350 q 477 67 568 150 q 217 -15 386 -15 m 164 -312 l 124 -301 l 172 -64 l 283 -40 l 307 -67 l 164 -312 z "},"Ṣ":{"ha":657,"x_min":-1,"x_max":653,"o":"m 0 0 m 219 -15 q 104 -4 164 -15 q -1 28 44 7 l 46 201 l 101 201 l 108 82 q 242 61 174 61 q 388 108 336 61 q 440 232 440 156 q 419 307 440 275 q 350 360 399 339 l 240 414 q 160 477 197 432 q 122 592 122 522 q 204 795 122 719 q 443 871 286 871 q 653 832 546 871 l 606 647 l 550 647 l 543 778 q 494 790 526 785 q 435 794 463 794 q 299 756 350 794 q 249 640 249 717 q 271 574 249 600 q 340 526 293 547 l 446 474 q 538 398 504 446 q 571 288 571 350 q 480 67 571 150 q 219 -15 389 -15 m 233 -57 q 295 -83 268 -57 q 322 -146 322 -110 q 296 -207 322 -182 q 233 -232 269 -232 q 170 -207 197 -232 q 143 -146 143 -182 q 170 -83 143 -110 q 233 -57 197 -57 z "},"ẞ":{"ha":804,"x_min":-72,"x_max":803,"o":"m 464 -14 q 376 -3 418 -14 q 303 29 333 8 l 351 203 l 411 203 l 418 78 q 481 61 440 61 q 593 113 550 61 q 636 233 636 165 q 421 374 636 374 l 406 419 l 668 756 q 524 792 610 792 q 372 738 425 792 q 297 568 319 685 l 203 81 l 268 54 l 257 0 l -72 0 l -61 51 l 67 81 l 154 533 q 283 787 188 703 q 528 871 379 871 q 689 845 619 871 q 803 786 758 819 l 801 740 l 571 446 q 720 377 671 429 q 769 247 769 325 q 730 119 769 179 q 620 22 690 58 q 464 -14 550 -14 z "},"Ə":{"ha":863,"x_min":49,"x_max":822,"o":"m 358 -12 q 123 69 197 -12 q 49 296 49 150 q 67 461 49 374 l 669 461 q 675 543 675 499 q 624 733 674 671 q 454 796 575 796 q 286 768 374 796 l 232 650 l 175 650 l 199 818 q 481 871 335 871 q 740 792 657 871 q 822 550 822 714 q 762 257 822 385 q 596 58 701 129 q 358 -12 490 -12 m 372 63 q 558 155 486 63 q 658 386 631 247 l 204 386 q 197 296 197 326 q 237 123 197 183 q 372 63 276 63 z "},"T":{"ha":690,"x_min":74,"x_max":765,"o":"m 106 850 l 765 850 l 718 647 l 660 647 l 660 771 l 486 771 l 353 81 l 478 51 l 468 0 l 74 0 l 83 51 l 221 81 l 354 771 l 181 771 l 131 647 l 76 647 l 106 850 z "},"Ŧ":{"ha":690,"x_min":61,"x_max":765,"o":"m 718 647 l 660 647 l 660 771 l 486 771 l 428 465 l 671 465 l 658 399 l 414 399 l 353 81 l 478 51 l 468 0 l 74 0 l 83 51 l 221 81 l 282 399 l 61 399 l 74 465 l 296 465 l 354 771 l 181 771 l 131 647 l 76 647 l 106 850 l 765 850 l 718 647 z "},"Ť":{"ha":703,"x_min":88,"x_max":779,"o":"m 325 1113 l 469 1004 l 651 1114 l 681 1083 l 501 900 l 407 900 l 286 1085 l 325 1113 m 118 850 l 779 850 l 732 647 l 674 647 l 674 771 l 500 771 l 367 81 l 492 51 l 482 0 l 88 0 l 97 51 l 235 81 l 368 771 l 194 771 l 144 647 l 90 647 l 118 850 z "},"Ţ":{"ha":703,"x_min":88,"x_max":779,"o":"m 779 850 l 732 647 l 674 647 l 674 771 l 500 771 l 367 81 l 492 51 l 482 0 l 311 0 l 279 -62 q 374 -85 343 -62 q 406 -144 406 -108 q 376 -226 406 -189 q 299 -283 346 -262 q 204 -304 253 -304 q 119 -292 153 -304 l 139 -250 q 190 -260 163 -260 q 269 -233 236 -260 q 301 -167 301 -206 q 281 -127 301 -143 q 215 -111 261 -111 l 213 -94 l 263 0 l 88 0 l 97 51 l 235 81 l 368 771 l 194 771 l 144 647 l 90 647 l 118 850 l 779 850 z "},"Ț":{"ha":703,"x_min":88,"x_max":779,"o":"m 118 850 l 779 850 l 732 647 l 674 647 l 674 771 l 500 771 l 367 81 l 492 51 l 482 0 l 88 0 l 97 51 l 235 81 l 368 771 l 194 771 l 144 647 l 90 647 l 118 850 m 203 -312 l 161 -301 l 211 -64 l 322 -40 l 346 -67 l 203 -312 z "},"Ṭ":{"ha":690,"x_min":74,"x_max":765,"o":"m 74 0 m 106 850 l 765 850 l 718 647 l 660 647 l 660 771 l 486 771 l 353 81 l 478 51 l 468 0 l 74 0 l 83 51 l 221 81 l 354 771 l 181 771 l 131 647 l 76 647 l 106 850 m 251 -57 q 313 -83 286 -57 q 340 -146 340 -110 q 314 -207 340 -182 q 251 -232 288 -232 q 188 -207 215 -232 q 161 -146 161 -182 q 188 -83 161 -110 q 251 -57 215 -57 z "},"U":{"ha":847,"x_min":99,"x_max":924,"o":"m 717 328 q 612 90 690 193 q 358 -14 533 -14 q 164 47 222 -14 q 106 214 106 107 q 124 367 106 281 l 201 771 l 99 799 l 107 850 l 458 850 l 450 799 l 335 771 l 257 367 q 239 221 239 281 q 272 104 239 146 q 385 63 306 63 q 551 135 493 63 q 632 332 608 207 l 717 771 l 611 799 l 619 850 l 924 850 l 914 799 l 803 771 l 717 328 z "},"Ú":{"ha":900,"x_min":121,"x_max":947,"o":"m 464 897 l 438 931 l 651 1111 l 767 1069 l 767 1043 l 464 897 m 739 328 q 635 90 713 193 q 382 -14 557 -14 q 187 47 246 -14 q 128 214 128 107 q 146 367 128 281 l 225 771 l 121 799 l 129 850 l 482 850 l 474 799 l 357 771 l 279 367 q 261 221 261 268 q 294 104 261 146 q 407 63 328 63 q 573 135 515 63 q 656 332 631 207 l 740 771 l 633 799 l 643 850 l 947 850 l 938 799 l 825 771 l 739 328 z "},"Ŭ":{"ha":847,"x_min":99,"x_max":924,"o":"m 99 0 m 717 328 q 612 90 690 193 q 358 -14 533 -14 q 164 47 222 -14 q 106 214 106 107 q 124 367 106 281 l 201 771 l 99 799 l 107 850 l 458 850 l 450 799 l 335 771 l 257 367 q 239 221 239 281 q 272 104 239 146 q 385 63 306 63 q 551 135 493 63 q 632 332 608 207 l 717 771 l 611 799 l 619 850 l 924 850 l 914 799 l 803 771 l 717 328 m 535 922 q 393 1043 393 922 q 401 1092 393 1061 l 458 1092 q 454 1068 454 1082 q 474 1022 456 1039 q 546 1006 493 1006 q 640 1029 611 1006 q 675 1092 668 1053 l 729 1092 q 535 922 696 922 z "},"Ǔ":{"ha":847,"x_min":99,"x_max":924,"o":"m 99 0 m 717 328 q 612 90 690 193 q 358 -14 533 -14 q 164 47 222 -14 q 106 214 106 107 q 124 367 106 281 l 201 771 l 99 799 l 107 850 l 458 850 l 450 799 l 335 771 l 257 367 q 239 221 239 281 q 272 104 239 146 q 385 63 306 63 q 551 135 493 63 q 632 332 608 207 l 717 771 l 611 799 l 619 850 l 924 850 l 914 799 l 803 771 l 717 328 m 404 1113 l 549 1004 l 731 1114 l 760 1083 l 581 900 l 486 900 l 367 1085 l 404 1113 z "},"Û":{"ha":900,"x_min":121,"x_max":947,"o":"m 717 899 l 581 1010 l 390 899 l 361 929 l 550 1113 l 643 1113 l 754 928 l 717 899 m 739 328 q 635 90 713 193 q 382 -14 557 -14 q 187 47 246 -14 q 128 214 128 107 q 146 367 128 281 l 225 771 l 121 799 l 129 850 l 482 850 l 474 799 l 357 771 l 279 367 q 261 221 261 268 q 294 104 261 146 q 407 63 328 63 q 573 135 515 63 q 656 332 631 207 l 740 771 l 633 799 l 643 850 l 947 850 l 938 799 l 825 771 l 739 328 z "},"Ȕ":{"ha":847,"x_min":99,"x_max":924,"o":"m 99 0 m 717 328 q 612 90 690 193 q 358 -14 533 -14 q 164 47 222 -14 q 106 214 106 107 q 124 367 106 281 l 201 771 l 99 799 l 107 850 l 458 850 l 450 799 l 335 771 l 257 367 q 239 221 239 281 q 272 104 239 146 q 385 63 306 63 q 551 135 493 63 q 632 332 608 207 l 717 771 l 611 799 l 619 850 l 924 850 l 914 799 l 803 771 l 717 328 m 422 892 l 265 1099 l 267 1125 l 378 1125 l 458 911 l 422 892 m 647 892 l 489 1099 l 490 1125 l 601 1125 l 682 911 l 647 892 z "},"Ü":{"ha":900,"x_min":121,"x_max":947,"o":"m 525 1006 q 499 947 525 971 q 439 922 474 922 q 378 947 404 922 q 351 1006 351 971 q 378 1067 351 1042 q 439 1092 404 1092 q 499 1067 474 1092 q 525 1006 525 1042 m 811 1006 q 785 947 811 971 q 724 922 758 922 q 663 947 689 922 q 638 1006 638 971 q 663 1067 638 1042 q 724 1092 689 1092 q 785 1067 758 1092 q 811 1006 811 1042 m 739 328 q 635 90 713 193 q 382 -14 557 -14 q 187 47 246 -14 q 128 214 128 107 q 146 367 128 281 l 225 771 l 121 799 l 129 850 l 482 850 l 474 799 l 357 771 l 279 367 q 261 221 261 268 q 294 104 261 146 q 407 63 328 63 q 573 135 515 63 q 656 332 631 207 l 740 771 l 633 799 l 643 850 l 947 850 l 938 799 l 825 771 l 739 328 z "},"Ǘ":{"ha":847,"x_min":99,"x_max":924,"o":"m 99 0 m 717 328 q 612 90 690 193 q 358 -14 533 -14 q 164 47 222 -14 q 106 214 106 107 q 124 367 106 281 l 201 771 l 99 799 l 107 850 l 458 850 l 450 799 l 335 771 l 257 367 q 239 221 239 281 q 272 104 239 146 q 385 63 306 63 q 551 135 493 63 q 632 332 608 207 l 717 771 l 611 799 l 619 850 l 924 850 l 914 799 l 803 771 l 717 328 m 497 1006 q 472 947 497 971 q 411 922 446 922 q 350 947 376 922 q 324 1006 324 971 q 350 1067 324 1042 q 411 1092 376 1092 q 472 1067 446 1092 q 497 1006 497 1042 m 782 1006 q 756 947 782 971 q 696 922 731 922 q 634 947 660 922 q 608 1006 608 971 q 634 1067 608 1042 q 696 1092 660 1092 q 756 1067 731 1092 q 782 1006 782 1042 m 526 1139 l 500 1172 l 715 1353 l 831 1311 l 831 1285 l 526 1139 z "},"Ǚ":{"ha":847,"x_min":99,"x_max":924,"o":"m 99 0 m 717 328 q 612 90 690 193 q 358 -14 533 -14 q 164 47 222 -14 q 106 214 106 107 q 124 367 106 281 l 201 771 l 99 799 l 107 850 l 458 850 l 450 799 l 335 771 l 257 367 q 239 221 239 281 q 272 104 239 146 q 385 63 306 63 q 551 135 493 63 q 632 332 608 207 l 717 771 l 611 799 l 619 850 l 924 850 l 914 799 l 803 771 l 717 328 m 497 1006 q 472 947 497 971 q 411 922 446 922 q 350 947 376 922 q 324 1006 324 971 q 350 1067 324 1042 q 411 1092 376 1092 q 472 1067 446 1092 q 497 1006 497 1042 m 782 1006 q 756 947 782 971 q 696 922 731 922 q 634 947 660 922 q 608 1006 608 971 q 634 1067 608 1042 q 696 1092 660 1092 q 756 1067 731 1092 q 782 1006 782 1042 m 451 1354 l 596 1246 l 778 1356 l 807 1325 l 628 1142 l 533 1142 l 414 1326 l 451 1354 z "},"Ǜ":{"ha":847,"x_min":99,"x_max":924,"o":"m 99 0 m 717 328 q 612 90 690 193 q 358 -14 533 -14 q 164 47 222 -14 q 106 214 106 107 q 124 367 106 281 l 201 771 l 99 799 l 107 850 l 458 850 l 450 799 l 335 771 l 257 367 q 239 221 239 281 q 272 104 239 146 q 385 63 306 63 q 551 135 493 63 q 632 332 608 207 l 717 771 l 611 799 l 619 850 l 924 850 l 914 799 l 803 771 l 717 328 m 497 1006 q 472 947 497 971 q 411 922 446 922 q 350 947 376 922 q 324 1006 324 971 q 350 1067 324 1042 q 411 1092 376 1092 q 472 1067 446 1092 q 497 1006 497 1042 m 782 1006 q 756 947 782 971 q 696 922 731 922 q 634 947 660 922 q 608 1006 608 971 q 634 1067 608 1042 q 696 1092 660 1092 q 756 1067 731 1092 q 782 1006 782 1042 m 647 1139 l 343 1285 l 344 1311 l 458 1353 l 672 1172 l 647 1139 z "},"Ǖ":{"ha":847,"x_min":99,"x_max":924,"o":"m 99 0 m 717 328 q 612 90 690 193 q 358 -14 533 -14 q 164 47 222 -14 q 106 214 106 107 q 124 367 106 281 l 201 771 l 99 799 l 107 850 l 458 850 l 450 799 l 335 771 l 257 367 q 239 221 239 281 q 272 104 239 146 q 385 63 306 63 q 551 135 493 63 q 632 332 608 207 l 717 771 l 611 799 l 619 850 l 924 850 l 914 799 l 803 771 l 717 328 m 497 1006 q 472 947 497 971 q 411 922 446 922 q 350 947 376 922 q 324 1006 324 971 q 350 1067 324 1042 q 411 1092 376 1092 q 472 1067 446 1092 q 497 1006 497 1042 m 782 1006 q 756 947 782 971 q 696 922 731 922 q 634 947 660 922 q 608 1006 608 971 q 634 1067 608 1042 q 696 1092 660 1092 q 756 1067 731 1092 q 782 1006 782 1042 m 435 1279 l 774 1279 l 761 1194 l 422 1194 l 435 1279 z "},"Ụ":{"ha":847,"x_min":99,"x_max":924,"o":"m 99 0 m 717 328 q 612 90 690 193 q 358 -14 533 -14 q 164 47 222 -14 q 106 214 106 107 q 124 367 106 281 l 201 771 l 99 799 l 107 850 l 458 850 l 450 799 l 335 771 l 257 367 q 239 221 239 281 q 272 104 239 146 q 385 63 306 63 q 551 135 493 63 q 632 332 608 207 l 717 771 l 611 799 l 619 850 l 924 850 l 914 799 l 803 771 l 717 328 m 329 -57 q 391 -83 364 -57 q 418 -146 418 -110 q 392 -207 418 -182 q 329 -232 365 -232 q 266 -207 293 -232 q 239 -146 239 -182 q 266 -83 239 -110 q 329 -57 293 -57 z "},"Ù":{"ha":900,"x_min":121,"x_max":947,"o":"m 694 897 l 389 1043 l 392 1069 l 506 1111 l 719 931 l 694 897 m 739 328 q 635 90 713 193 q 382 -14 557 -14 q 187 47 246 -14 q 128 214 128 107 q 146 367 128 281 l 225 771 l 121 799 l 129 850 l 482 850 l 474 799 l 357 771 l 279 367 q 261 221 261 268 q 294 104 261 146 q 407 63 328 63 q 573 135 515 63 q 656 332 631 207 l 740 771 l 633 799 l 643 850 l 947 850 l 938 799 l 825 771 l 739 328 z "},"Ủ":{"ha":847,"x_min":99,"x_max":924,"o":"m 99 0 m 717 328 q 612 90 690 193 q 358 -14 533 -14 q 164 47 222 -14 q 106 214 106 107 q 124 367 106 281 l 201 771 l 99 799 l 107 850 l 458 850 l 450 799 l 335 771 l 257 367 q 239 221 239 281 q 272 104 239 146 q 385 63 306 63 q 551 135 493 63 q 632 332 608 207 l 717 771 l 611 799 l 619 850 l 924 850 l 914 799 l 803 771 l 717 328 m 522 953 q 536 981 524 971 q 571 999 549 990 q 604 1017 593 1008 q 615 1043 615 1026 q 572 1072 615 1072 l 540 1071 l 522 1028 l 476 1028 l 482 1101 q 588 1113 544 1113 q 670 1096 640 1113 q 700 1047 700 1079 q 650 983 700 1006 q 622 973 640 979 q 592 958 603 967 q 578 936 581 950 l 521 936 l 522 953 z "},"Ư":{"ha":847,"x_min":99,"x_max":993,"o":"m 993 939 q 965 865 993 897 q 888 814 936 833 l 888 813 l 804 779 l 717 328 q 612 90 690 193 q 358 -14 533 -14 q 164 47 222 -14 q 106 214 106 107 q 124 367 106 281 l 201 771 l 99 799 l 107 850 l 458 850 l 450 799 l 335 771 l 257 367 q 239 221 239 281 q 272 104 239 146 q 385 63 306 63 q 551 135 493 63 q 632 332 608 207 l 717 771 l 611 799 l 619 850 l 774 850 q 848 865 824 850 q 872 924 872 881 q 865 981 872 950 l 874 999 l 975 1018 q 988 978 983 1000 q 993 939 993 956 z "},"Ứ":{"ha":847,"x_min":99,"x_max":993,"o":"m 99 0 m 993 939 q 965 865 993 897 q 888 814 936 833 l 888 813 l 804 779 l 717 328 q 612 90 690 193 q 358 -14 533 -14 q 164 47 222 -14 q 106 214 106 107 q 124 367 106 281 l 201 771 l 99 799 l 107 850 l 458 850 l 450 799 l 335 771 l 257 367 q 239 221 239 281 q 272 104 239 146 q 385 63 306 63 q 551 135 493 63 q 632 332 608 207 l 717 771 l 611 799 l 619 850 l 774 850 q 848 865 824 850 q 872 924 872 881 q 865 981 872 950 l 874 999 l 975 1018 q 988 978 983 1000 q 993 939 993 956 m 479 897 l 453 931 l 668 1111 l 783 1069 l 783 1043 l 479 897 z "},"Ự":{"ha":847,"x_min":99,"x_max":993,"o":"m 99 0 m 993 939 q 965 865 993 897 q 888 814 936 833 l 888 813 l 804 779 l 717 328 q 612 90 690 193 q 358 -14 533 -14 q 164 47 222 -14 q 106 214 106 107 q 124 367 106 281 l 201 771 l 99 799 l 107 850 l 458 850 l 450 799 l 335 771 l 257 367 q 239 221 239 281 q 272 104 239 146 q 385 63 306 63 q 551 135 493 63 q 632 332 608 207 l 717 771 l 611 799 l 619 850 l 774 850 q 848 865 824 850 q 872 924 872 881 q 865 981 872 950 l 874 999 l 975 1018 q 988 978 983 1000 q 993 939 993 956 m 329 -57 q 391 -83 364 -57 q 418 -146 418 -110 q 392 -207 418 -182 q 329 -232 365 -232 q 266 -207 293 -232 q 239 -146 239 -182 q 266 -83 239 -110 q 329 -57 293 -57 z "},"Ừ":{"ha":847,"x_min":99,"x_max":993,"o":"m 99 0 m 993 939 q 965 865 993 897 q 888 814 936 833 l 888 813 l 804 779 l 717 328 q 612 90 690 193 q 358 -14 533 -14 q 164 47 222 -14 q 106 214 106 107 q 124 367 106 281 l 201 771 l 99 799 l 107 850 l 458 850 l 450 799 l 335 771 l 257 367 q 239 221 239 281 q 272 104 239 146 q 385 63 306 63 q 551 135 493 63 q 632 332 608 207 l 717 771 l 611 799 l 619 850 l 774 850 q 848 865 824 850 q 872 924 872 881 q 865 981 872 950 l 874 999 l 975 1018 q 988 978 983 1000 q 993 939 993 956 m 600 897 l 296 1043 l 297 1069 l 411 1111 l 625 931 l 600 897 z "},"Ử":{"ha":847,"x_min":99,"x_max":993,"o":"m 99 0 m 993 939 q 965 865 993 897 q 888 814 936 833 l 888 813 l 804 779 l 717 328 q 612 90 690 193 q 358 -14 533 -14 q 164 47 222 -14 q 106 214 106 107 q 124 367 106 281 l 201 771 l 99 799 l 107 850 l 458 850 l 450 799 l 335 771 l 257 367 q 239 221 239 281 q 272 104 239 146 q 385 63 306 63 q 551 135 493 63 q 632 332 608 207 l 717 771 l 611 799 l 619 850 l 774 850 q 848 865 824 850 q 872 924 872 881 q 865 981 872 950 l 874 999 l 975 1018 q 988 978 983 1000 q 993 939 993 956 m 522 953 q 536 981 524 971 q 571 999 549 990 q 604 1017 593 1008 q 615 1043 615 1026 q 572 1072 615 1072 l 540 1071 l 522 1028 l 476 1028 l 482 1101 q 588 1113 544 1113 q 670 1096 640 1113 q 700 1047 700 1079 q 650 983 700 1006 q 622 973 640 979 q 592 958 603 967 q 578 936 581 950 l 521 936 l 522 953 z "},"Ữ":{"ha":847,"x_min":99,"x_max":993,"o":"m 99 0 m 993 939 q 965 865 993 897 q 888 814 936 833 l 888 813 l 804 779 l 717 328 q 612 90 690 193 q 358 -14 533 -14 q 164 47 222 -14 q 106 214 106 107 q 124 367 106 281 l 201 771 l 99 799 l 107 850 l 458 850 l 450 799 l 335 771 l 257 367 q 239 221 239 281 q 272 104 239 146 q 385 63 306 63 q 551 135 493 63 q 632 332 608 207 l 717 771 l 611 799 l 619 850 l 774 850 q 848 865 824 850 q 872 924 872 881 q 865 981 872 950 l 874 999 l 975 1018 q 988 978 983 1000 q 993 939 993 956 m 771 1060 q 720 960 746 996 q 663 925 694 925 q 547 953 636 925 q 442 979 471 979 q 415 968 428 979 q 393 946 401 957 q 382 931 385 935 l 333 950 q 443 1088 385 1088 q 556 1060 472 1088 q 617 1040 588 1049 q 664 1032 647 1032 q 692 1042 679 1032 q 714 1064 706 1053 q 724 1079 722 1075 l 771 1060 z "},"Ű":{"ha":900,"x_min":121,"x_max":947,"o":"m 431 892 l 399 913 l 521 1125 l 632 1125 l 632 1099 l 431 892 m 654 892 l 622 913 l 744 1125 l 856 1125 l 856 1099 l 654 892 m 739 328 q 635 90 713 193 q 382 -14 557 -14 q 187 47 246 -14 q 128 214 128 107 q 146 367 128 281 l 225 771 l 121 799 l 129 850 l 482 850 l 474 799 l 357 771 l 279 367 q 261 221 261 268 q 294 104 261 146 q 407 63 328 63 q 573 135 515 63 q 656 332 631 207 l 740 771 l 633 799 l 643 850 l 947 850 l 938 799 l 825 771 l 739 328 z "},"Ȗ":{"ha":847,"x_min":99,"x_max":924,"o":"m 99 0 m 717 328 q 612 90 690 193 q 358 -14 533 -14 q 164 47 222 -14 q 106 214 106 107 q 124 367 106 281 l 201 771 l 99 799 l 107 850 l 458 850 l 450 799 l 335 771 l 257 367 q 239 221 239 281 q 272 104 239 146 q 385 63 306 63 q 551 135 493 63 q 632 332 608 207 l 717 771 l 611 799 l 619 850 l 924 850 l 914 799 l 803 771 l 717 328 m 565 1101 q 706 979 706 1101 q 697 932 706 960 l 642 932 q 646 956 646 943 q 624 1001 643 985 q 553 1018 606 1018 q 460 994 489 1018 q 424 932 432 971 l 369 932 q 430 1055 385 1008 q 565 1101 475 1101 z "},"Ū":{"ha":900,"x_min":121,"x_max":947,"o":"m 417 1038 l 756 1038 l 743 953 l 404 953 l 417 1038 m 739 328 q 635 90 713 193 q 382 -14 557 -14 q 187 47 246 -14 q 128 214 128 107 q 146 367 128 281 l 225 771 l 121 799 l 129 850 l 482 850 l 474 799 l 357 771 l 279 367 q 261 221 261 268 q 294 104 261 146 q 407 63 328 63 q 573 135 515 63 q 656 332 631 207 l 740 771 l 633 799 l 643 850 l 947 850 l 938 799 l 825 771 l 739 328 z "},"Ų":{"ha":900,"x_min":121,"x_max":947,"o":"m 739 328 q 501 6 689 64 q 398 -87 435 -25 q 361 -197 361 -149 q 377 -244 361 -228 q 424 -260 393 -260 q 503 -229 463 -260 l 524 -254 q 503 -276 524 -257 q 451 -311 483 -294 q 376 -328 418 -328 q 287 -300 315 -328 q 258 -228 258 -272 q 298 -119 258 -179 q 411 -12 338 -60 q 382 -14 401 -14 q 187 47 246 -14 q 128 214 128 107 q 146 367 128 281 l 225 771 l 121 799 l 129 850 l 482 850 l 474 799 l 357 771 l 279 367 q 261 221 261 268 q 294 104 261 146 q 407 63 328 63 q 573 135 515 63 q 656 332 631 207 l 740 771 l 633 799 l 643 850 l 947 850 l 938 799 l 825 771 l 739 328 z "},"Ů":{"ha":900,"x_min":121,"x_max":947,"o":"m 567 883 q 476 910 507 883 q 444 981 444 936 q 489 1094 444 1049 q 614 1139 533 1139 q 704 1110 674 1139 q 735 1036 735 1082 q 688 927 735 971 q 567 883 642 883 m 576 936 q 634 965 617 936 q 651 1033 651 993 q 603 1085 651 1085 q 544 1056 563 1085 q 526 986 526 1028 q 576 936 526 936 m 382 -14 q 187 47 246 -14 q 128 214 128 107 q 146 367 128 281 l 225 771 l 121 799 l 129 850 l 482 850 l 474 799 l 357 771 l 279 367 q 261 221 261 268 q 294 104 261 146 q 407 63 328 63 q 573 135 515 63 q 656 332 631 207 l 740 771 l 633 799 l 643 850 l 947 850 l 938 799 l 825 771 l 739 328 q 635 90 713 193 q 382 -14 557 -14 z "},"Ũ":{"ha":900,"x_min":126,"x_max":953,"o":"m 800 1060 q 748 960 774 996 q 690 925 722 925 q 575 953 664 925 q 469 979 499 979 q 442 968 456 979 q 421 946 429 957 q 410 931 413 935 l 361 950 q 413 1051 386 1014 q 471 1088 439 1088 q 585 1058 503 1088 q 633 1044 594 1056 q 692 1032 671 1032 q 720 1042 707 1032 q 742 1064 733 1053 q 751 1079 750 1075 l 800 1060 m 744 328 q 641 90 719 194 q 388 -14 563 -14 q 192 47 251 -14 q 133 214 133 107 q 151 367 133 268 l 231 771 l 126 799 l 135 850 l 488 850 l 479 799 l 364 771 l 285 367 q 267 221 267 268 q 301 104 267 146 q 414 63 335 63 q 579 135 522 63 q 661 332 636 207 l 746 771 l 639 799 l 649 850 l 953 850 l 943 799 l 831 771 l 744 328 z "},"V":{"ha":756,"x_min":71,"x_max":861,"o":"m 579 799 l 589 850 l 861 850 l 851 799 l 751 769 l 360 3 l 267 -12 l 158 769 l 71 799 l 81 850 l 386 850 l 376 799 l 292 771 l 368 174 l 667 771 l 579 799 z "},"W":{"ha":1092,"x_min":60,"x_max":1190,"o":"m 907 799 l 915 850 l 1190 850 l 1181 800 l 1081 771 l 738 3 l 651 -14 l 585 574 l 326 3 l 238 -14 l 149 769 l 60 799 l 69 850 l 375 850 l 367 799 l 283 771 l 340 213 l 586 772 l 692 790 l 750 208 l 993 771 l 907 799 z "},"Ẃ":{"ha":1092,"x_min":60,"x_max":1190,"o":"m 60 0 m 907 799 l 915 850 l 1190 850 l 1181 800 l 1081 771 l 738 3 l 651 -14 l 585 574 l 326 3 l 238 -14 l 149 769 l 60 799 l 69 850 l 375 850 l 367 799 l 283 771 l 340 213 l 586 772 l 692 790 l 750 208 l 993 771 l 907 799 m 601 897 l 575 931 l 790 1111 l 906 1069 l 906 1043 l 601 897 z "},"Ŵ":{"ha":1092,"x_min":60,"x_max":1190,"o":"m 60 0 m 907 799 l 915 850 l 1190 850 l 1181 800 l 1081 771 l 738 3 l 651 -14 l 585 574 l 326 3 l 238 -14 l 149 769 l 60 799 l 69 850 l 375 850 l 367 799 l 283 771 l 340 213 l 586 772 l 692 790 l 750 208 l 993 771 l 907 799 m 811 899 l 675 1010 l 485 899 l 456 929 l 644 1113 l 738 1113 l 849 928 l 811 899 z "},"Ẅ":{"ha":1092,"x_min":60,"x_max":1190,"o":"m 60 0 m 907 799 l 915 850 l 1190 850 l 1181 800 l 1081 771 l 738 3 l 651 -14 l 585 574 l 326 3 l 238 -14 l 149 769 l 60 799 l 69 850 l 375 850 l 367 799 l 283 771 l 340 213 l 586 772 l 692 790 l 750 208 l 993 771 l 907 799 m 619 1006 q 594 947 619 971 q 533 922 568 922 q 472 947 499 922 q 446 1006 446 971 q 472 1067 446 1042 q 533 1092 499 1092 q 594 1067 568 1092 q 619 1006 619 1042 m 904 1006 q 878 947 904 971 q 818 922 853 922 q 756 947 782 922 q 731 1006 731 971 q 756 1067 731 1042 q 818 1092 782 1092 q 878 1067 853 1092 q 904 1006 904 1042 z "},"Ẁ":{"ha":1092,"x_min":60,"x_max":1190,"o":"m 60 0 m 907 799 l 915 850 l 1190 850 l 1181 800 l 1081 771 l 738 3 l 651 -14 l 585 574 l 326 3 l 238 -14 l 149 769 l 60 799 l 69 850 l 375 850 l 367 799 l 283 771 l 340 213 l 586 772 l 692 790 l 750 208 l 993 771 l 907 799 m 722 897 l 418 1043 l 419 1069 l 533 1111 l 747 931 l 722 897 z "},"X":{"ha":765,"x_min":-54,"x_max":850,"o":"m -54 0 l -46 51 l 49 79 l 329 422 l 189 771 l 107 799 l 115 850 l 426 850 l 417 797 l 332 771 l 435 517 l 647 771 l 563 797 l 572 850 l 850 850 l 840 799 l 746 771 l 465 439 l 617 78 l 703 51 l 694 0 l 378 0 l 388 53 l 469 78 l 360 343 l 147 79 l 232 51 l 224 0 l -54 0 z "},"Y":{"ha":729,"x_min":82,"x_max":824,"o":"m 539 799 l 549 850 l 824 850 l 814 800 l 714 769 l 419 324 l 372 81 l 497 51 l 489 0 l 94 0 l 104 51 l 240 81 l 289 329 l 165 769 l 82 799 l 92 850 l 389 850 l 381 799 l 294 771 l 392 413 l 626 771 l 539 799 z "},"Ý":{"ha":746,"x_min":93,"x_max":835,"o":"m 388 897 l 361 931 l 576 1111 l 690 1069 l 690 1043 l 388 897 m 550 799 l 560 850 l 835 850 l 825 800 l 725 769 l 431 324 l 383 81 l 508 51 l 500 0 l 106 0 l 115 51 l 251 81 l 300 329 l 176 769 l 93 799 l 103 850 l 400 850 l 392 799 l 306 771 l 403 413 l 638 771 l 550 799 z "},"Ŷ":{"ha":746,"x_min":93,"x_max":835,"o":"m 649 899 l 513 1010 l 322 899 l 293 929 l 482 1113 l 575 1113 l 686 928 l 649 899 m 550 799 l 560 850 l 835 850 l 825 800 l 725 769 l 431 324 l 383 81 l 508 51 l 500 0 l 106 0 l 115 51 l 251 81 l 300 329 l 176 769 l 93 799 l 103 850 l 400 850 l 392 799 l 306 771 l 403 413 l 638 771 l 550 799 z "},"Ÿ":{"ha":746,"x_min":93,"x_max":835,"o":"m 457 1006 q 431 947 457 971 q 371 922 406 922 q 309 947 335 922 q 283 1006 283 971 q 309 1067 283 1042 q 371 1092 335 1092 q 431 1067 406 1092 q 457 1006 457 1042 m 742 1006 q 716 947 742 971 q 656 922 690 922 q 594 947 619 922 q 568 1006 568 971 q 594 1067 568 1042 q 656 1092 619 1092 q 716 1067 690 1092 q 742 1006 742 1042 m 550 799 l 560 850 l 835 850 l 825 800 l 725 769 l 431 324 l 383 81 l 508 51 l 500 0 l 106 0 l 115 51 l 251 81 l 300 329 l 176 769 l 93 799 l 103 850 l 400 850 l 392 799 l 306 771 l 403 413 l 638 771 l 550 799 z "},"Ỵ":{"ha":729,"x_min":82,"x_max":824,"o":"m 82 0 m 539 799 l 549 850 l 824 850 l 814 800 l 714 769 l 419 324 l 372 81 l 497 51 l 489 0 l 94 0 l 104 51 l 240 81 l 289 329 l 165 769 l 82 799 l 92 850 l 389 850 l 381 799 l 294 771 l 392 413 l 626 771 l 539 799 m 271 -57 q 333 -83 306 -57 q 360 -146 360 -110 q 333 -207 360 -182 q 271 -232 307 -232 q 208 -207 235 -232 q 181 -146 181 -182 q 208 -83 181 -110 q 271 -57 235 -57 z "},"Ỳ":{"ha":746,"x_min":93,"x_max":835,"o":"m 607 897 l 303 1043 l 304 1069 l 418 1111 l 632 931 l 607 897 m 106 0 l 115 51 l 251 81 l 300 329 l 176 769 l 93 799 l 103 850 l 400 850 l 392 799 l 306 771 l 403 413 l 638 771 l 550 799 l 560 850 l 835 850 l 825 800 l 725 769 l 431 324 l 383 81 l 508 51 l 500 0 l 106 0 z "},"Ỷ":{"ha":729,"x_min":82,"x_max":824,"o":"m 82 0 m 539 799 l 549 850 l 824 850 l 814 800 l 714 769 l 419 324 l 372 81 l 497 51 l 489 0 l 94 0 l 104 51 l 240 81 l 289 329 l 165 769 l 82 799 l 92 850 l 389 850 l 381 799 l 294 771 l 392 413 l 626 771 l 539 799 m 464 953 q 478 981 465 971 q 513 999 490 990 q 546 1017 535 1008 q 557 1043 557 1026 q 514 1072 557 1072 l 482 1071 l 464 1028 l 418 1028 l 424 1101 q 529 1113 486 1113 q 612 1096 582 1113 q 642 1047 642 1079 q 592 983 642 1006 q 563 973 582 979 q 533 958 544 967 q 519 936 522 950 l 463 936 l 464 953 z "},"Ȳ":{"ha":729,"x_min":82,"x_max":824,"o":"m 82 0 m 539 799 l 549 850 l 824 850 l 814 800 l 714 769 l 419 324 l 372 81 l 497 51 l 489 0 l 94 0 l 104 51 l 240 81 l 289 329 l 165 769 l 82 799 l 92 850 l 389 850 l 381 799 l 294 771 l 392 413 l 626 771 l 539 799 m 329 1038 l 668 1038 l 656 953 l 317 953 l 329 1038 z "},"Ỹ":{"ha":746,"x_min":93,"x_max":835,"o":"m 728 1060 q 676 960 701 994 q 619 925 651 925 q 503 953 592 925 q 399 979 426 979 q 371 968 385 979 q 349 946 357 957 q 338 931 340 935 l 289 950 q 400 1088 343 1088 q 511 1060 428 1088 q 574 1040 543 1049 q 621 1032 604 1032 q 648 1042 635 1032 q 669 1064 661 1053 q 679 1079 678 1075 l 728 1060 m 550 799 l 560 850 l 835 850 l 825 800 l 725 769 l 431 324 l 383 81 l 508 51 l 500 0 l 106 0 l 115 51 l 251 81 l 300 329 l 176 769 l 93 799 l 103 850 l 400 850 l 392 799 l 306 771 l 403 413 l 638 771 l 550 799 z "},"Z":{"ha":694,"x_min":-6,"x_max":726,"o":"m 619 210 l 567 0 l 10 0 l -6 46 l 549 771 l 254 771 l 203 661 l 146 661 l 169 850 l 726 850 l 725 806 l 171 81 l 489 81 l 563 210 l 619 210 z "},"Ź":{"ha":694,"x_min":-18,"x_max":714,"o":"m 322 897 l 296 931 l 510 1111 l 625 1069 l 625 1043 l 322 897 m 607 210 l 553 0 l -3 0 l -18 46 l 536 771 l 240 771 l 190 661 l 133 661 l 157 850 l 714 850 l 713 806 l 158 81 l 476 81 l 550 210 l 607 210 z "},"Ž":{"ha":694,"x_min":-18,"x_max":714,"o":"m 311 1113 l 456 1004 l 638 1114 l 667 1083 l 486 900 l 393 900 l 272 1085 l 311 1113 m 607 210 l 553 0 l -3 0 l -18 46 l 536 771 l 240 771 l 190 661 l 133 661 l 157 850 l 714 850 l 713 806 l 158 81 l 476 81 l 550 210 l 607 210 z "},"Ż":{"ha":694,"x_min":-18,"x_max":714,"o":"m 529 1003 q 502 940 529 965 q 438 914 475 914 q 372 940 400 914 q 343 1003 343 965 q 372 1068 343 1040 q 438 1096 400 1096 q 502 1069 475 1096 q 529 1003 529 1042 m 607 210 l 553 0 l -3 0 l -18 46 l 536 771 l 240 771 l 190 661 l 133 661 l 157 850 l 714 850 l 713 806 l 158 81 l 476 81 l 550 210 l 607 210 z "},"Ẓ":{"ha":694,"x_min":-6,"x_max":726,"o":"m 0 0 m 619 210 l 567 0 l 10 0 l -6 46 l 549 771 l 254 771 l 203 661 l 146 661 l 169 850 l 726 850 l 725 806 l 171 81 l 489 81 l 563 210 l 619 210 m 253 -57 q 315 -83 288 -57 q 342 -146 342 -110 q 315 -207 342 -182 q 253 -232 289 -232 q 190 -207 217 -232 q 163 -146 163 -182 q 190 -83 163 -110 q 253 -57 217 -57 z "},"a":{"ha":726,"x_min":46,"x_max":667,"o":"m 582 286 q 561 143 567 204 q 554 76 556 82 l 663 76 l 663 26 q 565 -3 603 6 q 496 -12 526 -12 q 424 50 424 -12 q 428 92 425 67 q 432 128 431 117 q 327 28 389 67 q 214 -11 265 -11 q 92 37 138 -11 q 46 197 46 85 q 95 465 46 351 q 234 639 144 578 q 439 700 324 700 q 526 690 479 700 q 574 679 574 681 l 608 732 l 667 719 l 582 286 m 261 82 q 353 126 297 82 q 439 214 410 169 q 501 526 440 214 l 515 599 q 428 626 475 626 q 294 567 350 626 q 211 411 239 508 q 183 200 183 314 q 203 109 183 136 q 261 82 224 82 z "},"á":{"ha":726,"x_min":46,"x_max":667,"o":"m 46 0 m 582 286 q 561 143 567 204 q 554 76 556 82 l 663 76 l 663 26 q 565 -3 603 6 q 496 -12 526 -12 q 424 50 424 -12 q 428 92 425 67 q 432 128 431 117 q 327 28 389 67 q 214 -11 265 -11 q 92 37 138 -11 q 46 197 46 85 q 95 465 46 351 q 234 639 144 578 q 439 700 324 700 q 526 690 479 700 q 574 679 574 681 l 608 732 l 667 719 l 582 286 m 261 82 q 353 126 297 82 q 439 214 410 169 q 501 526 440 214 l 515 599 q 428 626 475 626 q 294 567 350 626 q 211 411 239 508 q 183 200 183 314 q 203 109 183 136 q 261 82 224 82 m 339 782 l 313 815 l 528 996 l 643 954 l 643 928 l 339 782 z "},"ă":{"ha":726,"x_min":46,"x_max":667,"o":"m 435 811 q 294 933 294 811 q 303 981 294 953 l 358 981 q 356 957 356 967 q 376 911 357 928 q 447 894 394 894 q 540 918 511 894 q 576 981 569 942 l 631 981 q 435 811 597 811 m 582 286 q 561 143 567 204 q 554 76 556 82 l 663 76 l 663 26 q 565 -3 603 6 q 496 -12 526 -12 q 424 50 424 -12 q 428 92 425 67 q 432 128 431 117 q 327 28 389 67 q 214 -11 265 -11 q 92 37 138 -11 q 46 197 46 85 q 95 465 46 351 q 234 639 144 578 q 439 700 324 700 q 526 690 479 700 q 574 679 574 681 l 608 732 l 667 719 l 582 286 m 261 82 q 353 126 297 82 q 439 214 410 169 q 501 526 440 214 l 515 599 q 428 626 475 626 q 294 567 350 626 q 211 411 239 508 q 183 200 183 314 q 203 109 183 136 q 261 82 224 82 z "},"ắ":{"ha":726,"x_min":46,"x_max":725,"o":"m 46 0 m 582 286 q 561 143 567 204 q 554 76 556 82 l 663 76 l 663 26 q 565 -3 603 6 q 496 -12 526 -12 q 424 50 424 -12 q 428 92 425 67 q 432 128 431 117 q 327 28 389 67 q 214 -11 265 -11 q 92 37 138 -11 q 46 197 46 85 q 95 465 46 351 q 234 639 144 578 q 439 700 324 700 q 526 690 479 700 q 574 679 574 681 l 608 732 l 667 719 l 582 286 m 261 82 q 353 126 297 82 q 439 214 410 169 q 501 526 440 214 l 515 599 q 428 626 475 626 q 294 567 350 626 q 211 411 239 508 q 183 200 183 314 q 203 109 183 136 q 261 82 224 82 m 443 757 q 301 878 301 757 q 310 926 301 896 l 367 926 q 363 903 363 917 q 383 857 364 874 q 454 840 401 840 q 548 864 519 840 q 583 926 576 888 l 638 926 q 443 757 604 757 m 421 918 l 394 951 l 610 1132 l 725 1090 l 725 1064 l 421 918 z "},"ặ":{"ha":726,"x_min":46,"x_max":667,"o":"m 46 0 m 582 286 q 561 143 567 204 q 554 76 556 82 l 663 76 l 663 26 q 565 -3 603 6 q 496 -12 526 -12 q 424 50 424 -12 q 428 92 425 67 q 432 128 431 117 q 327 28 389 67 q 214 -11 265 -11 q 92 37 138 -11 q 46 197 46 85 q 95 465 46 351 q 234 639 144 578 q 439 700 324 700 q 526 690 479 700 q 574 679 574 681 l 608 732 l 667 719 l 582 286 m 261 82 q 353 126 297 82 q 439 214 410 169 q 501 526 440 214 l 515 599 q 428 626 475 626 q 294 567 350 626 q 211 411 239 508 q 183 200 183 314 q 203 109 183 136 q 261 82 224 82 m 269 -57 q 331 -83 304 -57 q 358 -146 358 -110 q 332 -207 358 -182 q 269 -232 306 -232 q 206 -207 233 -232 q 179 -146 179 -182 q 206 -83 179 -110 q 269 -57 233 -57 m 453 811 q 311 933 311 811 q 321 981 311 949 l 376 981 q 372 957 372 971 q 394 911 375 928 q 464 894 413 894 q 558 918 529 894 q 594 981 586 942 l 649 981 q 588 858 633 904 q 453 811 543 811 z "},"ằ":{"ha":726,"x_min":46,"x_max":667,"o":"m 46 0 m 582 286 q 561 143 567 204 q 554 76 556 82 l 663 76 l 663 26 q 565 -3 603 6 q 496 -12 526 -12 q 424 50 424 -12 q 428 92 425 67 q 432 128 431 117 q 327 28 389 67 q 214 -11 265 -11 q 92 37 138 -11 q 46 197 46 85 q 95 465 46 351 q 234 639 144 578 q 439 700 324 700 q 526 690 479 700 q 574 679 574 681 l 608 732 l 667 719 l 582 286 m 261 82 q 353 126 297 82 q 439 214 410 169 q 501 526 440 214 l 515 599 q 428 626 475 626 q 294 567 350 626 q 211 411 239 508 q 183 200 183 314 q 203 109 183 136 q 261 82 224 82 m 443 757 q 301 878 301 757 q 310 926 301 896 l 367 926 q 363 903 363 917 q 383 857 364 874 q 454 840 401 840 q 548 864 519 840 q 583 926 576 888 l 638 926 q 443 757 604 757 m 540 918 l 236 1064 l 238 1090 l 351 1132 l 565 951 l 540 918 z "},"ẳ":{"ha":726,"x_min":46,"x_max":667,"o":"m 46 0 m 582 286 q 561 143 567 204 q 554 76 556 82 l 663 76 l 663 26 q 565 -3 603 6 q 496 -12 526 -12 q 424 50 424 -12 q 428 92 425 67 q 432 128 431 117 q 327 28 389 67 q 214 -11 265 -11 q 92 37 138 -11 q 46 197 46 85 q 95 465 46 351 q 234 639 144 578 q 439 700 324 700 q 526 690 479 700 q 574 679 574 681 l 608 732 l 667 719 l 582 286 m 261 82 q 353 126 297 82 q 439 214 410 169 q 501 526 440 214 l 515 599 q 428 626 475 626 q 294 567 350 626 q 211 411 239 508 q 183 200 183 314 q 203 109 183 136 q 261 82 224 82 m 443 757 q 301 878 301 757 q 310 926 301 896 l 367 926 q 363 903 363 917 q 383 857 364 874 q 454 840 401 840 q 548 864 519 840 q 583 926 576 888 l 638 926 q 443 757 604 757 m 463 974 q 476 1001 464 992 q 511 1019 489 1011 q 544 1038 533 1029 q 556 1064 556 1047 q 513 1093 556 1093 l 481 1092 l 463 1049 l 417 1049 l 422 1122 q 528 1133 485 1133 q 610 1117 581 1133 q 640 1068 640 1100 q 590 1004 640 1026 q 562 994 581 1000 q 532 979 543 988 q 518 957 521 971 l 461 957 l 463 974 z "},"ẵ":{"ha":726,"x_min":46,"x_max":711,"o":"m 46 0 m 582 286 q 561 143 567 204 q 554 76 556 82 l 663 76 l 663 26 q 565 -3 603 6 q 496 -12 526 -12 q 424 50 424 -12 q 428 92 425 67 q 432 128 431 117 q 327 28 389 67 q 214 -11 265 -11 q 92 37 138 -11 q 46 197 46 85 q 95 465 46 351 q 234 639 144 578 q 439 700 324 700 q 526 690 479 700 q 574 679 574 681 l 608 732 l 667 719 l 582 286 m 261 82 q 353 126 297 82 q 439 214 410 169 q 501 526 440 214 l 515 599 q 428 626 475 626 q 294 567 350 626 q 211 411 239 508 q 183 200 183 314 q 203 109 183 136 q 261 82 224 82 m 443 757 q 301 878 301 757 q 310 926 301 896 l 367 926 q 363 903 363 917 q 383 857 364 874 q 454 840 401 840 q 548 864 519 840 q 583 926 576 888 l 638 926 q 443 757 604 757 m 711 1081 q 660 981 686 1017 q 603 946 635 946 q 488 974 576 946 q 382 1000 411 1000 q 355 989 368 1000 q 333 967 342 978 q 322 951 325 956 l 274 971 q 383 1108 325 1108 q 496 1081 413 1108 q 558 1061 528 1069 q 604 1053 588 1053 q 633 1063 619 1053 q 654 1085 646 1074 q 664 1100 663 1096 l 711 1081 z "},"ǎ":{"ha":726,"x_min":46,"x_max":667,"o":"m 46 0 m 582 286 q 561 143 567 204 q 554 76 556 82 l 663 76 l 663 26 q 565 -3 603 6 q 496 -12 526 -12 q 424 50 424 -12 q 428 92 425 67 q 432 128 431 117 q 327 28 389 67 q 214 -11 265 -11 q 92 37 138 -11 q 46 197 46 85 q 95 465 46 351 q 234 639 144 578 q 439 700 324 700 q 526 690 479 700 q 574 679 574 681 l 608 732 l 667 719 l 582 286 m 261 82 q 353 126 297 82 q 439 214 410 169 q 501 526 440 214 l 515 599 q 428 626 475 626 q 294 567 350 626 q 211 411 239 508 q 183 200 183 314 q 203 109 183 136 q 261 82 224 82 m 338 1004 l 465 883 l 632 1006 l 664 974 l 496 776 l 403 776 l 294 976 l 338 1004 z "},"â":{"ha":726,"x_min":46,"x_max":667,"o":"m 576 776 l 460 892 l 292 776 l 261 807 l 428 997 l 522 997 l 618 804 l 576 776 m 582 286 q 561 143 567 204 q 554 76 556 82 l 663 76 l 663 26 q 565 -3 603 6 q 496 -12 526 -12 q 424 50 424 -12 q 428 92 425 67 q 432 128 431 117 q 327 28 389 67 q 214 -11 265 -11 q 92 37 138 -11 q 46 197 46 85 q 95 465 46 351 q 234 639 144 578 q 439 700 324 700 q 526 690 479 700 q 574 679 574 681 l 608 732 l 667 719 l 582 286 m 261 82 q 353 126 297 82 q 439 214 410 169 q 501 526 440 214 l 515 599 q 428 626 475 626 q 294 567 350 626 q 211 411 239 508 q 183 200 183 314 q 203 109 183 136 q 261 82 224 82 z "},"ấ":{"ha":726,"x_min":46,"x_max":888,"o":"m 653 851 l 617 872 l 756 1118 l 878 1118 l 888 1092 l 653 851 m 588 776 l 469 892 l 303 776 l 271 807 l 439 997 l 532 997 l 628 804 l 588 776 m 582 286 q 561 143 567 204 q 554 76 556 82 l 663 76 l 663 26 q 565 -3 603 6 q 496 -12 526 -12 q 424 50 424 -12 q 428 92 425 67 q 432 128 431 117 q 327 28 389 67 q 214 -11 265 -11 q 92 37 138 -11 q 46 197 46 85 q 95 465 46 351 q 234 639 144 578 q 439 700 324 700 q 526 690 479 700 q 574 679 574 681 l 608 732 l 667 719 l 582 286 m 261 82 q 353 126 297 82 q 439 214 410 169 q 501 526 440 214 l 515 599 q 428 626 475 626 q 294 567 350 626 q 211 411 239 508 q 183 200 183 314 q 203 109 183 136 q 261 82 224 82 z "},"ậ":{"ha":726,"x_min":46,"x_max":667,"o":"m 46 0 m 582 286 q 561 143 567 204 q 554 76 556 82 l 663 76 l 663 26 q 565 -3 603 6 q 496 -12 526 -12 q 424 50 424 -12 q 428 92 425 67 q 432 128 431 117 q 327 28 389 67 q 214 -11 265 -11 q 92 37 138 -11 q 46 197 46 85 q 95 465 46 351 q 234 639 144 578 q 439 700 324 700 q 526 690 479 700 q 574 679 574 681 l 608 732 l 667 719 l 582 286 m 261 82 q 353 126 297 82 q 439 214 410 169 q 501 526 440 214 l 515 599 q 428 626 475 626 q 294 567 350 626 q 211 411 239 508 q 183 200 183 314 q 203 109 183 136 q 261 82 224 82 m 269 -57 q 331 -83 304 -57 q 358 -146 358 -110 q 332 -207 358 -182 q 269 -232 306 -232 q 206 -207 233 -232 q 179 -146 179 -182 q 206 -83 179 -110 q 269 -57 233 -57 m 589 776 l 471 892 l 304 776 l 272 807 l 440 997 l 533 997 l 629 804 l 589 776 z "},"ầ":{"ha":726,"x_min":46,"x_max":704,"o":"m 664 849 l 517 1096 l 533 1118 l 629 1118 l 704 863 l 664 849 m 585 776 l 467 892 l 300 776 l 268 807 l 436 997 l 529 997 l 625 804 l 585 776 m 582 286 q 561 143 567 204 q 554 76 556 82 l 663 76 l 663 26 q 565 -3 603 6 q 496 -12 526 -12 q 424 50 424 -12 q 428 92 425 67 q 432 128 431 117 q 327 28 389 67 q 214 -11 265 -11 q 92 37 138 -11 q 46 197 46 85 q 95 465 46 351 q 234 639 144 578 q 439 700 324 700 q 526 690 479 700 q 574 679 574 681 l 608 732 l 667 719 l 582 286 m 261 82 q 353 126 297 82 q 439 214 410 169 q 501 526 440 214 l 515 599 q 428 626 475 626 q 294 567 350 626 q 211 411 239 508 q 183 200 183 314 q 203 109 183 136 q 261 82 224 82 z "},"ẩ":{"ha":726,"x_min":46,"x_max":783,"o":"m 46 0 m 582 286 q 561 143 567 204 q 554 76 556 82 l 663 76 l 663 26 q 565 -3 603 6 q 496 -12 526 -12 q 424 50 424 -12 q 428 92 425 67 q 432 128 431 117 q 327 28 389 67 q 214 -11 265 -11 q 92 37 138 -11 q 46 197 46 85 q 95 465 46 351 q 234 639 144 578 q 439 700 324 700 q 526 690 479 700 q 574 679 574 681 l 608 732 l 667 719 l 582 286 m 261 82 q 353 126 297 82 q 439 214 410 169 q 501 526 440 214 l 515 599 q 428 626 475 626 q 294 567 350 626 q 211 411 239 508 q 183 200 183 314 q 203 109 183 136 q 261 82 224 82 m 589 776 l 471 892 l 304 776 l 272 807 l 440 997 l 533 997 l 629 804 l 589 776 m 606 958 q 619 986 607 976 q 654 1004 632 996 q 688 1023 676 1014 q 699 1049 699 1032 q 656 1078 699 1078 l 624 1076 l 606 1033 l 560 1033 l 565 1107 q 671 1118 628 1118 q 753 1101 724 1118 q 783 1053 783 1085 q 733 989 783 1011 q 705 978 724 985 q 675 964 686 972 q 661 942 664 956 l 604 942 l 606 958 z "},"ẫ":{"ha":726,"x_min":46,"x_max":718,"o":"m 46 0 m 582 286 q 561 143 567 204 q 554 76 556 82 l 663 76 l 663 26 q 565 -3 603 6 q 496 -12 526 -12 q 424 50 424 -12 q 428 92 425 67 q 432 128 431 117 q 327 28 389 67 q 214 -11 265 -11 q 92 37 138 -11 q 46 197 46 85 q 95 465 46 351 q 234 639 144 578 q 439 700 324 700 q 526 690 479 700 q 574 679 574 681 l 608 732 l 667 719 l 582 286 m 261 82 q 353 126 297 82 q 439 214 410 169 q 501 526 440 214 l 515 599 q 428 626 475 626 q 294 567 350 626 q 211 411 239 508 q 183 200 183 314 q 203 109 183 136 q 261 82 224 82 m 597 733 l 461 844 l 271 733 l 242 764 l 431 947 l 524 947 l 635 763 l 597 733 m 718 1092 q 667 992 693 1028 q 610 957 642 957 q 494 985 583 957 q 389 1011 418 1011 q 362 1000 375 1011 q 340 978 349 989 q 329 963 332 967 l 281 982 q 390 1119 332 1119 q 503 1092 419 1119 q 565 1072 535 1081 q 611 1064 594 1064 q 640 1074 626 1064 q 661 1096 653 1085 q 671 1111 669 1107 l 718 1092 z "},"ȁ":{"ha":726,"x_min":46,"x_max":667,"o":"m 46 0 m 582 286 q 561 143 567 204 q 554 76 556 82 l 663 76 l 663 26 q 565 -3 603 6 q 496 -12 526 -12 q 424 50 424 -12 q 428 92 425 67 q 432 128 431 117 q 327 28 389 67 q 214 -11 265 -11 q 92 37 138 -11 q 46 197 46 85 q 95 465 46 351 q 234 639 144 578 q 439 700 324 700 q 526 690 479 700 q 574 679 574 681 l 608 732 l 667 719 l 582 286 m 261 82 q 353 126 297 82 q 439 214 410 169 q 501 526 440 214 l 515 599 q 428 626 475 626 q 294 567 350 626 q 211 411 239 508 q 183 200 183 314 q 203 109 183 136 q 261 82 224 82 m 344 767 l 182 982 l 183 1008 l 294 1008 l 378 786 l 344 767 m 568 767 l 406 982 l 407 1008 l 518 1008 l 601 786 l 568 767 z "},"ä":{"ha":726,"x_min":46,"x_max":685,"o":"m 399 894 q 373 835 399 860 q 313 811 347 811 q 251 835 278 811 q 225 894 225 860 q 251 955 225 929 q 313 981 278 981 q 373 955 347 981 q 399 894 399 929 m 685 894 q 658 835 685 860 q 597 811 632 811 q 537 835 563 811 q 511 894 511 860 q 537 955 511 929 q 597 981 563 981 q 658 955 632 981 q 685 894 685 929 m 582 286 q 561 143 567 204 q 554 76 556 82 l 663 76 l 663 26 q 565 -3 603 6 q 496 -12 526 -12 q 424 50 424 -12 q 428 92 425 67 q 432 128 431 117 q 327 28 389 67 q 214 -11 265 -11 q 92 37 138 -11 q 46 197 46 85 q 95 465 46 351 q 234 639 144 578 q 439 700 324 700 q 526 690 479 700 q 574 679 574 681 l 608 732 l 667 719 l 582 286 m 261 82 q 353 126 297 82 q 439 214 410 169 q 501 526 440 214 l 515 599 q 428 626 475 626 q 294 567 350 626 q 211 411 239 508 q 183 200 183 314 q 203 109 183 136 q 261 82 224 82 z "},"ạ":{"ha":726,"x_min":46,"x_max":667,"o":"m 46 0 m 582 286 q 561 143 567 204 q 554 76 556 82 l 663 76 l 663 26 q 565 -3 603 6 q 496 -12 526 -12 q 424 50 424 -12 q 428 92 425 67 q 432 128 431 117 q 327 28 389 67 q 214 -11 265 -11 q 92 37 138 -11 q 46 197 46 85 q 95 465 46 351 q 234 639 144 578 q 439 700 324 700 q 526 690 479 700 q 574 679 574 681 l 608 732 l 667 719 l 582 286 m 261 82 q 353 126 297 82 q 439 214 410 169 q 501 526 440 214 l 515 599 q 428 626 475 626 q 294 567 350 626 q 211 411 239 508 q 183 200 183 314 q 203 109 183 136 q 261 82 224 82 m 269 -57 q 331 -83 304 -57 q 358 -146 358 -110 q 332 -207 358 -182 q 269 -232 306 -232 q 206 -207 233 -232 q 179 -146 179 -182 q 206 -83 179 -110 q 269 -57 233 -57 z "},"à":{"ha":726,"x_min":46,"x_max":667,"o":"m 567 783 l 263 929 l 264 956 l 379 997 l 592 817 l 567 783 m 582 286 q 561 143 567 204 q 554 76 556 82 l 663 76 l 663 26 q 565 -3 603 6 q 496 -12 526 -12 q 424 50 424 -12 q 428 92 425 67 q 432 128 431 117 q 327 28 389 67 q 214 -11 265 -11 q 92 37 138 -11 q 46 197 46 85 q 95 465 46 351 q 234 639 144 578 q 439 700 324 700 q 526 690 479 700 q 574 679 574 681 l 608 732 l 667 719 l 582 286 m 261 82 q 353 126 297 82 q 439 214 410 169 q 501 526 440 214 l 515 599 q 428 626 475 626 q 294 567 350 626 q 211 411 239 508 q 183 200 183 314 q 203 109 183 136 q 261 82 224 82 z "},"ả":{"ha":726,"x_min":46,"x_max":667,"o":"m 46 0 m 582 286 q 561 143 567 204 q 554 76 556 82 l 663 76 l 663 26 q 565 -3 603 6 q 496 -12 526 -12 q 424 50 424 -12 q 428 92 425 67 q 432 128 431 117 q 327 28 389 67 q 214 -11 265 -11 q 92 37 138 -11 q 46 197 46 85 q 95 465 46 351 q 234 639 144 578 q 439 700 324 700 q 526 690 479 700 q 574 679 574 681 l 608 732 l 667 719 l 582 286 m 261 82 q 353 126 297 82 q 439 214 410 169 q 501 526 440 214 l 515 599 q 428 626 475 626 q 294 567 350 626 q 211 411 239 508 q 183 200 183 314 q 203 109 183 136 q 261 82 224 82 m 431 788 q 444 815 432 806 q 479 833 457 825 q 513 852 501 843 q 524 878 524 861 q 481 907 524 907 l 449 906 l 431 863 l 385 863 l 390 936 q 496 947 453 947 q 578 931 549 947 q 608 882 608 914 q 558 818 608 840 q 530 808 549 814 q 500 793 511 801 q 486 771 489 785 l 429 771 l 431 788 z "},"ȃ":{"ha":726,"x_min":46,"x_max":667,"o":"m 46 0 m 582 286 q 561 143 567 204 q 554 76 556 82 l 663 76 l 663 26 q 565 -3 603 6 q 496 -12 526 -12 q 424 50 424 -12 q 428 92 425 67 q 432 128 431 117 q 327 28 389 67 q 214 -11 265 -11 q 92 37 138 -11 q 46 197 46 85 q 95 465 46 351 q 234 639 144 578 q 439 700 324 700 q 526 690 479 700 q 574 679 574 681 l 608 732 l 667 719 l 582 286 m 261 82 q 353 126 297 82 q 439 214 410 169 q 501 526 440 214 l 515 599 q 428 626 475 626 q 294 567 350 626 q 211 411 239 508 q 183 200 183 314 q 203 109 183 136 q 261 82 224 82 m 485 990 q 625 869 625 990 q 617 821 625 851 l 561 821 q 564 844 564 835 q 544 890 563 874 q 472 907 525 907 q 380 883 408 907 q 343 821 351 860 l 289 821 q 485 990 322 990 z "},"ā":{"ha":726,"x_min":46,"x_max":667,"o":"m 292 903 l 603 903 l 590 819 l 279 819 l 292 903 m 582 286 q 561 143 567 204 q 554 76 556 82 l 663 76 l 663 26 q 565 -3 603 6 q 496 -12 526 -12 q 424 50 424 -12 q 428 92 425 67 q 432 128 431 117 q 327 28 389 67 q 214 -11 265 -11 q 92 37 138 -11 q 46 197 46 85 q 95 465 46 351 q 234 639 144 578 q 439 700 324 700 q 526 690 479 700 q 574 679 574 681 l 608 732 l 667 719 l 582 286 m 261 82 q 353 126 297 82 q 439 214 410 169 q 501 526 440 214 l 515 599 q 428 626 475 626 q 294 567 350 626 q 211 411 239 508 q 183 200 183 314 q 203 109 183 136 q 261 82 224 82 z "},"ą":{"ha":726,"x_min":46,"x_max":667,"o":"m 519 -328 q 428 -300 457 -328 q 400 -228 400 -272 q 435 -124 400 -181 q 546 -6 469 -67 q 496 -12 514 -12 q 424 50 424 -12 q 428 92 425 67 q 432 128 431 117 q 327 28 389 67 q 214 -11 265 -11 q 92 37 138 -11 q 46 197 46 85 q 95 465 46 351 q 234 639 144 578 q 439 700 324 700 q 526 690 479 700 q 574 679 574 681 l 608 732 l 667 719 l 582 286 q 561 143 567 204 q 554 76 556 82 l 663 76 l 663 26 q 578 -38 614 3 q 522 -122 542 -79 q 503 -197 503 -165 q 519 -244 503 -228 q 567 -260 536 -260 q 644 -229 606 -260 l 667 -254 q 647 -276 667 -257 q 594 -311 626 -294 q 519 -328 561 -328 m 261 82 q 353 126 297 82 q 439 214 410 169 q 501 526 440 214 l 515 599 q 428 626 475 626 q 294 567 350 626 q 211 411 239 508 q 183 200 183 314 q 203 109 183 136 q 261 82 224 82 z "},"å":{"ha":726,"x_min":46,"x_max":667,"o":"m 431 753 q 339 784 371 753 q 307 867 307 815 q 352 988 307 939 q 475 1038 397 1038 q 566 1006 535 1038 q 597 921 597 974 q 551 801 597 850 q 431 753 506 753 m 440 808 q 514 925 514 808 q 503 966 514 951 q 465 981 492 981 q 408 948 425 981 q 390 863 390 915 q 401 822 390 836 q 440 808 413 808 m 214 -11 q 92 37 138 -11 q 46 197 46 85 q 95 465 46 351 q 234 639 144 578 q 439 700 324 700 q 526 690 479 700 q 574 679 574 681 l 608 732 l 667 719 l 582 286 q 561 143 567 204 q 554 76 556 82 l 663 76 l 663 26 q 565 -3 603 6 q 496 -12 526 -12 q 424 50 424 -12 q 428 92 425 67 q 432 128 431 117 q 327 28 389 67 q 214 -11 265 -11 m 261 82 q 353 126 297 82 q 439 214 410 169 q 501 526 440 214 l 515 599 q 428 626 475 626 q 294 567 350 626 q 211 411 239 508 q 183 200 183 314 q 203 109 183 136 q 261 82 224 82 z "},"ǻ":{"ha":726,"x_min":46,"x_max":742,"o":"m 46 0 m 582 286 q 561 143 567 204 q 554 76 556 82 l 663 76 l 663 26 q 565 -3 603 6 q 496 -12 526 -12 q 424 50 424 -12 q 428 92 425 67 q 432 128 431 117 q 327 28 389 67 q 214 -11 265 -11 q 92 37 138 -11 q 46 197 46 85 q 95 465 46 351 q 234 639 144 578 q 439 700 324 700 q 526 690 479 700 q 574 679 574 681 l 608 732 l 667 719 l 582 286 m 261 82 q 353 126 297 82 q 439 214 410 169 q 501 526 440 214 l 515 599 q 428 626 475 626 q 294 567 350 626 q 211 411 239 508 q 183 200 183 314 q 203 109 183 136 q 261 82 224 82 m 439 718 q 348 744 379 718 q 317 815 317 771 q 361 928 317 883 q 486 974 406 974 q 576 945 546 974 q 607 871 607 917 q 560 762 607 806 q 439 718 514 718 m 449 771 q 506 799 489 771 q 524 868 524 828 q 475 919 524 919 q 417 891 435 919 q 399 821 399 863 q 449 771 399 771 m 438 982 l 411 1015 l 626 1196 l 742 1154 l 742 1128 l 438 982 z "},"ã":{"ha":726,"x_min":46,"x_max":674,"o":"m 674 949 q 622 849 646 883 q 567 815 599 815 q 519 824 549 815 q 458 843 489 832 q 360 869 385 869 q 332 858 346 869 q 310 836 318 847 q 299 821 301 825 l 250 840 q 301 940 276 906 q 358 975 326 975 q 464 947 386 975 q 565 921 538 921 q 594 931 581 921 q 615 953 607 942 q 625 968 624 964 l 674 949 m 582 286 q 561 143 567 204 q 554 76 556 82 l 663 76 l 663 26 q 565 -3 603 6 q 496 -12 526 -12 q 424 50 424 -12 q 428 92 425 67 q 432 128 431 117 q 327 28 389 67 q 214 -11 265 -11 q 92 37 138 -11 q 46 197 46 85 q 95 465 46 351 q 234 639 144 578 q 439 700 324 700 q 526 690 479 700 q 574 679 574 681 l 608 732 l 667 719 l 582 286 m 261 82 q 353 126 297 82 q 439 214 410 169 q 501 526 440 214 l 515 599 q 428 626 475 626 q 294 567 350 626 q 211 411 239 508 q 183 200 183 314 q 203 109 183 136 q 261 82 224 82 z "},"æ":{"ha":983,"x_min":46,"x_max":999,"o":"m 676 -12 q 534 30 593 -12 q 460 158 475 72 q 331 28 394 68 q 213 -11 267 -11 q 46 197 46 -11 q 95 467 46 351 q 234 644 144 582 q 439 706 324 706 q 524 696 476 706 q 572 685 572 686 l 607 732 l 660 718 l 644 647 q 735 690 682 674 q 843 706 788 706 q 956 671 913 706 q 999 569 999 636 q 894 394 999 458 q 600 331 790 331 q 589 225 589 267 q 627 103 589 139 q 749 68 665 68 q 867 93 794 68 l 879 40 q 676 -12 781 -12 m 261 82 q 353 125 297 82 q 438 213 408 168 q 469 381 446 260 q 514 604 493 501 q 476 624 496 618 q 428 631 457 631 q 292 571 347 631 q 210 413 238 511 q 183 200 183 314 q 203 109 183 136 q 261 82 224 82 m 611 386 q 805 431 733 386 q 876 557 876 475 q 860 609 876 589 q 811 629 844 629 q 685 566 736 629 q 611 386 635 503 z "},"ǽ":{"ha":983,"x_min":46,"x_max":999,"o":"m 46 0 m 676 -12 q 534 30 593 -12 q 460 158 475 72 q 331 28 394 68 q 213 -11 267 -11 q 46 197 46 -11 q 95 467 46 351 q 234 644 144 582 q 439 706 324 706 q 524 696 476 706 q 572 685 572 686 l 607 732 l 660 718 l 644 647 q 735 690 682 674 q 843 706 788 706 q 956 671 913 706 q 999 569 999 636 q 894 394 999 458 q 600 331 790 331 q 589 225 589 267 q 627 103 589 139 q 749 68 665 68 q 867 93 794 68 l 879 40 q 676 -12 781 -12 m 261 82 q 353 125 297 82 q 438 213 408 168 q 469 381 446 260 q 514 604 493 501 q 476 624 496 618 q 428 631 457 631 q 292 571 347 631 q 210 413 238 511 q 183 200 183 314 q 203 109 183 136 q 261 82 224 82 m 611 386 q 805 431 733 386 q 876 557 876 475 q 860 609 876 589 q 811 629 844 629 q 685 566 736 629 q 611 386 635 503 m 467 782 l 440 815 l 656 996 l 771 954 l 771 928 l 467 782 z "},"b":{"ha":724,"x_min":54,"x_max":679,"o":"m 288 -11 q 152 3 211 -11 q 54 38 93 18 l 226 914 l 124 926 l 115 965 q 238 1000 175 986 q 336 1014 301 1014 q 358 1006 350 1014 q 365 983 365 997 q 319 731 365 969 q 290 571 289 572 q 405 668 336 631 q 526 706 474 706 q 639 662 599 706 q 679 514 679 618 q 642 267 679 386 q 517 68 604 147 q 288 -11 429 -11 m 306 61 q 439 125 386 61 q 516 288 492 189 q 540 496 540 386 q 520 585 540 560 q 463 611 500 611 q 367 569 426 611 q 276 481 308 526 q 200 99 275 481 q 243 72 213 82 q 306 61 274 61 z "},"c":{"ha":550,"x_min":44,"x_max":576,"o":"m 472 624 q 414 632 449 632 q 288 573 339 632 q 211 422 236 514 q 186 233 186 331 q 213 106 186 144 q 308 67 240 67 q 439 93 363 67 l 456 39 q 253 -12 367 -12 q 101 42 157 -12 q 44 207 44 96 q 87 455 44 342 q 215 637 129 568 q 424 706 300 706 q 576 674 513 706 l 540 504 l 486 504 l 472 624 z "},"ć":{"ha":554,"x_min":43,"x_max":604,"o":"m 301 782 l 275 815 l 489 996 l 604 954 l 604 928 l 301 782 m 469 624 q 413 632 446 632 q 286 573 338 632 q 210 422 235 514 q 185 233 185 331 q 211 106 185 144 q 306 67 238 67 q 438 93 361 67 l 453 39 q 355 0 408 13 q 251 -12 301 -12 q 99 42 156 -12 q 43 207 43 96 q 85 455 43 342 q 213 637 128 568 q 421 706 297 706 q 575 674 511 706 l 538 504 l 483 504 l 469 624 z "},"č":{"ha":554,"x_min":43,"x_max":615,"o":"m 289 1004 l 415 883 l 583 1006 l 615 974 l 447 776 l 354 776 l 246 976 l 289 1004 m 469 624 q 413 632 446 632 q 286 573 338 632 q 210 422 235 514 q 185 233 185 331 q 211 106 185 144 q 306 67 238 67 q 438 93 361 67 l 453 39 q 355 0 408 13 q 251 -12 301 -12 q 99 42 156 -12 q 43 207 43 96 q 85 455 43 342 q 213 637 128 568 q 421 706 297 706 q 575 674 511 706 l 538 504 l 483 504 l 469 624 z "},"ç":{"ha":554,"x_min":43,"x_max":575,"o":"m 469 624 q 413 632 446 632 q 286 573 338 632 q 210 422 235 514 q 185 233 185 331 q 211 106 185 144 q 306 67 238 67 q 438 93 361 67 l 453 39 q 260 -12 371 -10 l 235 -62 q 328 -85 297 -62 q 360 -144 360 -108 q 330 -226 360 -189 q 253 -283 300 -262 q 158 -304 207 -304 q 74 -292 107 -304 l 93 -250 q 144 -260 117 -260 q 224 -233 190 -260 q 257 -167 257 -206 q 236 -127 257 -143 q 169 -111 215 -111 l 167 -94 l 211 -10 q 88 53 132 0 q 43 207 43 107 q 85 455 43 342 q 213 637 128 568 q 421 706 297 706 q 575 674 511 706 l 538 504 l 483 504 l 469 624 z "},"ĉ":{"ha":550,"x_min":44,"x_max":586,"o":"m 44 0 m 472 624 q 414 632 449 632 q 288 573 339 632 q 211 422 236 514 q 186 233 186 331 q 213 106 186 144 q 308 67 240 67 q 439 93 363 67 l 456 39 q 253 -12 367 -12 q 101 42 157 -12 q 44 207 44 96 q 87 455 44 342 q 215 637 129 568 q 424 706 300 706 q 576 674 513 706 l 540 504 l 486 504 l 472 624 m 546 776 l 428 892 l 261 776 l 229 807 l 397 997 l 490 997 l 586 804 l 546 776 z "},"ċ":{"ha":550,"x_min":44,"x_max":576,"o":"m 44 0 m 472 624 q 414 632 449 632 q 288 573 339 632 q 211 422 236 514 q 186 233 186 331 q 213 106 186 144 q 308 67 240 67 q 439 93 363 67 l 456 39 q 253 -12 367 -12 q 101 42 157 -12 q 44 207 44 96 q 87 455 44 342 q 215 637 129 568 q 424 706 300 706 q 576 674 513 706 l 540 504 l 486 504 l 472 624 m 428 807 q 365 832 392 807 q 339 893 339 857 q 365 957 339 931 q 428 983 392 983 q 491 957 464 983 q 518 893 518 931 q 491 832 518 857 q 428 807 464 807 z "},"d":{"ha":722,"x_min":46,"x_max":719,"o":"m 199 -12 q 88 33 131 -12 q 46 186 46 79 q 97 466 46 349 q 238 644 149 583 q 438 706 326 706 q 538 694 482 706 l 582 914 l 478 925 l 469 965 q 593 1000 529 986 q 692 1014 657 1014 q 713 1006 706 1014 q 719 986 719 999 q 594 286 719 960 q 564 75 569 156 l 672 75 l 672 26 q 574 -3 613 6 q 506 -12 536 -12 q 435 50 435 -12 q 439 92 436 67 q 443 126 442 117 q 328 27 400 67 q 199 -12 257 -12 m 264 82 q 360 126 300 82 q 449 214 419 169 l 524 603 q 481 624 508 617 q 422 632 454 632 q 288 566 342 632 q 210 401 235 500 q 185 201 185 301 q 205 109 185 136 q 264 82 225 82 z "},"ð":{"ha":693,"x_min":44,"x_max":649,"o":"m 253 -12 q 44 199 44 -12 q 94 470 44 356 q 234 645 144 585 q 439 706 324 706 q 485 701 463 706 q 438 814 465 763 l 314 735 l 279 792 l 404 871 q 306 1000 367 931 l 349 1040 q 475 915 422 978 l 597 993 l 632 939 l 514 863 q 612 683 576 775 q 649 503 647 590 l 649 471 q 647 440 649 454 q 644 417 646 426 q 580 186 632 283 q 444 38 528 89 q 253 -12 360 -12 m 283 63 q 413 129 363 63 q 487 295 464 196 q 510 497 510 394 q 488 595 510 561 q 411 629 465 629 q 279 560 331 629 q 206 392 228 492 q 183 193 183 293 q 206 96 183 129 q 283 63 228 63 z "},"ď":{"ha":789,"x_min":46,"x_max":893,"o":"m 199 -12 q 88 33 131 -12 q 46 186 46 79 q 97 466 46 349 q 238 644 149 583 q 438 706 326 706 q 538 694 482 706 l 582 914 l 478 925 l 469 965 q 593 1000 529 986 q 692 1014 657 1014 q 713 1006 706 1014 q 719 986 719 999 q 594 286 719 960 q 564 75 569 156 l 672 75 l 672 26 q 574 -3 613 6 q 506 -12 536 -12 q 435 50 435 -12 q 439 92 436 67 q 443 126 442 117 q 328 27 400 67 q 199 -12 257 -12 m 799 731 l 776 1014 l 817 1014 l 893 992 l 838 731 l 799 731 m 264 82 q 360 126 300 82 q 449 214 419 169 l 524 603 q 481 624 508 617 q 422 632 454 632 q 288 566 342 632 q 210 401 235 500 q 185 201 185 301 q 205 109 185 136 q 264 82 225 82 z "},"đ":{"ha":724,"x_min":46,"x_max":785,"o":"m 199 -12 q 88 33 131 -12 q 46 186 46 79 q 97 466 46 349 q 238 644 149 583 q 438 706 326 706 q 538 694 482 706 l 560 804 l 354 804 l 354 874 l 575 874 l 586 929 l 481 940 l 472 981 q 692 1014 586 1014 q 713 1006 706 1014 q 719 986 719 999 q 701 874 719 969 l 785 874 l 785 804 l 688 804 l 594 286 q 564 75 569 156 l 672 75 l 672 26 q 574 -3 613 6 q 506 -12 536 -12 q 435 50 435 -12 q 439 92 436 67 q 443 126 442 117 q 328 27 400 67 q 199 -12 257 -12 m 264 82 q 360 126 300 82 q 449 214 419 169 l 524 603 q 481 624 508 617 q 422 632 454 632 q 288 566 342 632 q 210 401 235 500 q 185 201 185 301 q 205 109 185 136 q 264 82 225 82 z "},"ḍ":{"ha":722,"x_min":46,"x_max":719,"o":"m 46 0 m 199 -12 q 88 33 131 -12 q 46 186 46 79 q 97 466 46 349 q 238 644 149 583 q 438 706 326 706 q 538 694 482 706 l 582 914 l 478 925 l 469 965 q 593 1000 529 986 q 692 1014 657 1014 q 713 1006 706 1014 q 719 986 719 999 q 594 286 719 960 q 564 75 569 156 l 672 75 l 672 26 q 574 -3 613 6 q 506 -12 536 -12 q 435 50 435 -12 q 439 92 436 67 q 443 126 442 117 q 328 27 400 67 q 199 -12 257 -12 m 264 82 q 360 126 300 82 q 449 214 419 169 l 524 603 q 481 624 508 617 q 422 632 454 632 q 288 566 342 632 q 210 401 235 500 q 185 201 185 301 q 205 109 185 136 q 264 82 225 82 m 267 -57 q 328 -83 301 -57 q 356 -146 356 -110 q 329 -207 356 -182 q 267 -232 303 -232 q 203 -207 231 -232 q 176 -146 176 -182 q 203 -83 176 -110 q 267 -57 231 -57 z "},"ǳ":{"ha":1264,"x_min":46,"x_max":1303,"o":"m 46 0 m 199 -12 q 88 33 131 -12 q 46 186 46 79 q 97 466 46 349 q 238 644 149 583 q 438 706 326 706 q 538 694 482 706 l 582 914 l 478 925 l 469 965 q 593 1000 529 986 q 692 1014 657 1014 q 713 1006 706 1014 q 719 986 719 999 q 594 286 719 960 q 564 75 569 156 l 672 75 l 672 26 q 574 -3 613 6 q 506 -12 536 -12 q 435 50 435 -12 q 439 92 436 67 q 443 126 442 117 q 328 27 400 67 q 199 -12 257 -12 m 264 82 q 360 126 300 82 q 449 214 419 169 l 524 603 q 481 624 508 617 q 422 632 454 632 q 288 566 342 632 q 210 401 235 500 q 185 201 185 301 q 205 109 185 136 q 264 82 225 82 m 1092 -67 q 1024 -53 1056 -67 q 944 -10 992 -39 q 873 28 900 15 q 817 40 846 40 q 779 29 797 40 q 751 6 761 18 q 738 -11 740 -7 l 689 19 l 1124 574 l 813 574 l 799 690 l 1190 690 l 1260 713 l 1303 668 l 874 132 q 953 119 919 132 q 1035 82 988 107 q 1102 49 1075 60 q 1163 39 1129 39 q 1225 50 1197 39 l 1240 -6 q 1165 -51 1200 -35 q 1092 -67 1131 -67 z "},"ǆ":{"ha":1264,"x_min":46,"x_max":1303,"o":"m 46 0 m 199 -12 q 88 33 131 -12 q 46 186 46 79 q 97 466 46 349 q 238 644 149 583 q 438 706 326 706 q 538 694 482 706 l 582 914 l 478 925 l 469 965 q 593 1000 529 986 q 692 1014 657 1014 q 713 1006 706 1014 q 719 986 719 999 q 594 286 719 960 q 564 75 569 156 l 672 75 l 672 26 q 574 -3 613 6 q 506 -12 536 -12 q 435 50 435 -12 q 439 92 436 67 q 443 126 442 117 q 328 27 400 67 q 199 -12 257 -12 m 264 82 q 360 126 300 82 q 449 214 419 169 l 524 603 q 481 624 508 617 q 422 632 454 632 q 288 566 342 632 q 210 401 235 500 q 185 201 185 301 q 205 109 185 136 q 264 82 225 82 m 1092 -67 q 1024 -53 1056 -67 q 944 -10 992 -39 q 873 28 900 15 q 817 40 846 40 q 779 29 797 40 q 751 6 761 18 q 738 -11 740 -7 l 689 19 l 1124 574 l 813 574 l 799 690 l 1190 690 l 1260 713 l 1303 668 l 874 132 q 953 119 919 132 q 1035 82 988 107 q 1102 49 1075 60 q 1163 39 1129 39 q 1225 50 1197 39 l 1240 -6 q 1165 -51 1200 -35 q 1092 -67 1131 -67 m 967 1004 l 1094 883 l 1261 1006 l 1293 974 l 1125 776 l 1032 776 l 924 976 l 967 1004 z "},"e":{"ha":578,"x_min":44,"x_max":589,"o":"m 435 706 q 546 671 503 706 q 589 569 589 636 q 485 394 589 457 q 190 331 382 331 q 181 226 181 276 q 215 103 181 138 q 339 68 249 68 q 457 93 389 68 l 469 42 q 267 -12 372 -12 q 101 44 157 -12 q 44 221 44 100 q 86 454 44 343 q 215 635 128 565 q 435 706 303 706 m 401 629 q 276 566 328 629 q 201 386 225 503 q 396 431 325 386 q 467 557 467 475 q 451 609 467 589 q 401 629 436 629 z "},"é":{"ha":590,"x_min":44,"x_max":617,"o":"m 314 782 l 288 815 l 503 996 l 617 954 l 617 928 l 314 782 m 435 706 q 546 671 503 706 q 589 569 589 636 q 485 394 589 457 q 190 331 382 331 q 181 226 181 276 q 215 103 181 138 q 339 68 249 68 q 457 93 389 68 l 469 42 q 267 -12 372 -12 q 101 44 157 -12 q 44 221 44 100 q 86 454 44 343 q 215 635 128 565 q 435 706 303 706 m 401 629 q 276 566 328 629 q 201 386 225 503 q 396 431 325 386 q 467 557 467 475 q 451 609 467 589 q 401 629 436 629 z "},"ĕ":{"ha":578,"x_min":44,"x_max":589,"o":"m 44 0 m 435 706 q 546 671 503 706 q 589 569 589 636 q 485 394 589 457 q 190 331 382 331 q 181 226 181 276 q 215 103 181 138 q 339 68 249 68 q 457 93 389 68 l 469 42 q 267 -12 372 -12 q 101 44 157 -12 q 44 221 44 100 q 86 454 44 343 q 215 635 128 565 q 435 706 303 706 m 401 629 q 276 566 328 629 q 201 386 225 503 q 396 431 325 386 q 467 557 467 475 q 451 609 467 589 q 401 629 436 629 m 378 811 q 236 933 236 811 q 246 981 236 949 l 301 981 q 297 957 297 971 q 319 911 300 928 q 389 894 338 894 q 483 918 454 894 q 519 981 511 942 l 574 981 q 513 858 558 904 q 378 811 468 811 z "},"ě":{"ha":575,"x_min":44,"x_max":614,"o":"m 288 1004 l 414 883 l 581 1006 l 614 974 l 446 776 l 351 776 l 244 976 l 288 1004 m 435 706 q 546 671 503 706 q 589 569 589 636 q 485 394 589 457 q 190 331 382 331 q 181 226 181 276 q 215 103 181 138 q 339 68 249 68 q 457 93 389 68 l 469 42 q 267 -12 372 -12 q 101 44 157 -12 q 44 221 44 100 q 86 454 44 343 q 215 635 128 565 q 435 706 303 706 m 401 629 q 276 566 328 629 q 201 386 225 503 q 396 431 325 386 q 467 557 467 475 q 451 609 467 589 q 401 629 436 629 z "},"ê":{"ha":575,"x_min":44,"x_max":590,"o":"m 549 776 l 432 892 l 265 776 l 233 807 l 401 997 l 494 997 l 590 804 l 549 776 m 435 706 q 546 671 503 706 q 589 569 589 636 q 485 394 589 457 q 190 331 382 331 q 181 226 181 276 q 215 103 181 138 q 339 68 249 68 q 457 93 389 68 l 469 42 q 267 -12 372 -12 q 101 44 157 -12 q 44 221 44 100 q 86 454 44 343 q 215 635 128 565 q 435 706 303 706 m 401 629 q 276 566 328 629 q 201 386 225 503 q 396 431 325 386 q 467 557 467 475 q 451 609 467 589 q 401 629 436 629 z "},"ế":{"ha":578,"x_min":44,"x_max":813,"o":"m 578 851 l 542 872 l 681 1118 l 803 1118 l 813 1092 l 578 851 m 513 776 l 394 892 l 228 776 l 196 807 l 364 997 l 457 997 l 553 804 l 513 776 m 435 706 q 546 671 503 706 q 589 569 589 636 q 485 394 589 457 q 190 331 382 331 q 181 226 181 276 q 215 103 181 138 q 339 68 249 68 q 457 93 389 68 l 469 42 q 267 -12 372 -12 q 101 44 157 -12 q 44 221 44 100 q 86 454 44 343 q 215 635 128 565 q 435 706 303 706 m 401 629 q 276 566 328 629 q 201 386 225 503 q 396 431 325 386 q 467 557 467 475 q 451 609 467 589 q 401 629 436 629 z "},"ệ":{"ha":578,"x_min":44,"x_max":589,"o":"m 44 0 m 435 706 q 546 671 503 706 q 589 569 589 636 q 485 394 589 457 q 190 331 382 331 q 181 226 181 276 q 215 103 181 138 q 339 68 249 68 q 457 93 389 68 l 469 42 q 267 -12 372 -12 q 101 44 157 -12 q 44 221 44 100 q 86 454 44 343 q 215 635 128 565 q 435 706 303 706 m 401 629 q 276 566 328 629 q 201 386 225 503 q 396 431 325 386 q 467 557 467 475 q 451 609 467 589 q 401 629 436 629 m 194 -57 q 256 -83 229 -57 q 283 -146 283 -110 q 257 -207 283 -182 q 194 -232 231 -232 q 131 -207 158 -232 q 104 -146 104 -182 q 131 -83 104 -110 q 194 -57 158 -57 m 514 776 l 396 892 l 229 776 l 197 807 l 365 997 l 458 997 l 554 804 l 514 776 z "},"ề":{"ha":578,"x_min":44,"x_max":629,"o":"m 589 849 l 442 1096 l 458 1118 l 554 1118 l 629 863 l 589 849 m 510 776 l 392 892 l 225 776 l 193 807 l 361 997 l 454 997 l 550 804 l 510 776 m 435 706 q 546 671 503 706 q 589 569 589 636 q 485 394 589 457 q 190 331 382 331 q 181 226 181 276 q 215 103 181 138 q 339 68 249 68 q 457 93 389 68 l 469 42 q 267 -12 372 -12 q 101 44 157 -12 q 44 221 44 100 q 86 454 44 343 q 215 635 128 565 q 435 706 303 706 m 401 629 q 276 566 328 629 q 201 386 225 503 q 396 431 325 386 q 467 557 467 475 q 451 609 467 589 q 401 629 436 629 z "},"ể":{"ha":578,"x_min":44,"x_max":708,"o":"m 44 0 m 435 706 q 546 671 503 706 q 589 569 589 636 q 485 394 589 457 q 190 331 382 331 q 181 226 181 276 q 215 103 181 138 q 339 68 249 68 q 457 93 389 68 l 469 42 q 267 -12 372 -12 q 101 44 157 -12 q 44 221 44 100 q 86 454 44 343 q 215 635 128 565 q 435 706 303 706 m 401 629 q 276 566 328 629 q 201 386 225 503 q 396 431 325 386 q 467 557 467 475 q 451 609 467 589 q 401 629 436 629 m 514 776 l 396 892 l 229 776 l 197 807 l 365 997 l 458 997 l 554 804 l 514 776 m 531 958 q 544 986 532 976 q 579 1004 557 996 q 613 1023 601 1014 q 624 1049 624 1032 q 581 1078 624 1078 l 549 1076 l 531 1033 l 485 1033 l 490 1107 q 596 1118 553 1118 q 678 1101 649 1118 q 708 1053 708 1085 q 658 989 708 1011 q 630 978 649 985 q 600 964 611 972 q 586 942 589 956 l 529 942 l 531 958 z "},"ễ":{"ha":578,"x_min":44,"x_max":643,"o":"m 44 0 m 435 706 q 546 671 503 706 q 589 569 589 636 q 485 394 589 457 q 190 331 382 331 q 181 226 181 276 q 215 103 181 138 q 339 68 249 68 q 457 93 389 68 l 469 42 q 267 -12 372 -12 q 101 44 157 -12 q 44 221 44 100 q 86 454 44 343 q 215 635 128 565 q 435 706 303 706 m 401 629 q 276 566 328 629 q 201 386 225 503 q 396 431 325 386 q 467 557 467 475 q 451 609 467 589 q 401 629 436 629 m 522 733 l 386 844 l 196 733 l 167 764 l 356 947 l 449 947 l 560 763 l 522 733 m 643 1092 q 592 992 618 1028 q 535 957 567 957 q 419 985 508 957 q 314 1011 343 1011 q 287 1000 300 1011 q 265 978 274 989 q 254 963 257 967 l 206 982 q 315 1119 257 1119 q 428 1092 344 1119 q 490 1072 460 1081 q 536 1064 519 1064 q 565 1074 551 1064 q 586 1096 578 1085 q 596 1111 594 1107 l 643 1092 z "},"ȅ":{"ha":578,"x_min":44,"x_max":589,"o":"m 44 0 m 435 706 q 546 671 503 706 q 589 569 589 636 q 485 394 589 457 q 190 331 382 331 q 181 226 181 276 q 215 103 181 138 q 339 68 249 68 q 457 93 389 68 l 469 42 q 267 -12 372 -12 q 101 44 157 -12 q 44 221 44 100 q 86 454 44 343 q 215 635 128 565 q 435 706 303 706 m 401 629 q 276 566 328 629 q 201 386 225 503 q 396 431 325 386 q 467 557 467 475 q 451 609 467 589 q 401 629 436 629 m 269 767 l 107 982 l 108 1008 l 219 1008 l 303 786 l 269 767 m 493 767 l 331 982 l 332 1008 l 443 1008 l 526 786 l 493 767 z "},"ë":{"ha":575,"x_min":44,"x_max":642,"o":"m 356 894 q 330 835 356 860 q 269 811 304 811 q 208 835 235 811 q 182 894 182 860 q 208 955 182 929 q 269 981 235 981 q 330 955 304 981 q 356 894 356 929 m 642 894 q 615 835 642 860 q 554 811 589 811 q 494 835 519 811 q 468 894 468 860 q 494 955 468 929 q 554 981 519 981 q 615 955 589 981 q 642 894 642 929 m 435 706 q 546 671 503 706 q 589 569 589 636 q 485 394 589 457 q 190 331 382 331 q 181 226 181 276 q 215 103 181 138 q 339 68 249 68 q 457 93 389 68 l 469 42 q 267 -12 372 -12 q 101 44 157 -12 q 44 221 44 100 q 86 454 44 343 q 215 635 128 565 q 435 706 303 706 m 401 629 q 276 566 328 629 q 201 386 225 503 q 396 431 325 386 q 467 557 467 475 q 451 609 467 589 q 401 629 436 629 z "},"ė":{"ha":575,"x_min":44,"x_max":589,"o":"m 422 983 q 485 957 458 983 q 513 893 513 931 q 485 832 513 857 q 422 807 458 807 q 360 832 386 807 q 333 893 333 857 q 360 957 333 931 q 422 983 386 983 m 435 706 q 546 671 503 706 q 589 569 589 636 q 485 394 589 457 q 190 331 382 331 q 181 226 181 276 q 215 103 181 138 q 339 68 249 68 q 457 93 389 68 l 469 42 q 267 -12 372 -12 q 101 44 157 -12 q 44 221 44 100 q 86 454 44 343 q 215 635 128 565 q 435 706 303 706 m 401 629 q 276 566 328 629 q 201 386 225 503 q 396 431 325 386 q 467 557 467 475 q 451 609 467 589 q 401 629 436 629 z "},"ẹ":{"ha":578,"x_min":44,"x_max":589,"o":"m 44 0 m 435 706 q 546 671 503 706 q 589 569 589 636 q 485 394 589 457 q 190 331 382 331 q 181 226 181 276 q 215 103 181 138 q 339 68 249 68 q 457 93 389 68 l 469 42 q 267 -12 372 -12 q 101 44 157 -12 q 44 221 44 100 q 86 454 44 343 q 215 635 128 565 q 435 706 303 706 m 401 629 q 276 566 328 629 q 201 386 225 503 q 396 431 325 386 q 467 557 467 475 q 451 609 467 589 q 401 629 436 629 m 194 -57 q 256 -83 229 -57 q 283 -146 283 -110 q 257 -207 283 -182 q 194 -232 231 -232 q 131 -207 158 -232 q 104 -146 104 -182 q 131 -83 104 -110 q 194 -57 158 -57 z "},"è":{"ha":575,"x_min":44,"x_max":589,"o":"m 531 782 l 226 928 l 228 954 l 342 996 l 556 815 l 531 782 m 435 706 q 546 671 503 706 q 589 569 589 636 q 485 394 589 457 q 190 331 382 331 q 181 226 181 276 q 215 103 181 138 q 339 68 249 68 q 457 93 389 68 l 469 42 q 267 -12 372 -12 q 101 44 157 -12 q 44 221 44 100 q 86 454 44 343 q 215 635 128 565 q 435 706 303 706 m 401 629 q 276 566 328 629 q 201 386 225 503 q 396 431 325 386 q 467 557 467 475 q 451 609 467 589 q 401 629 436 629 z "},"ẻ":{"ha":578,"x_min":44,"x_max":589,"o":"m 44 0 m 435 706 q 546 671 503 706 q 589 569 589 636 q 485 394 589 457 q 190 331 382 331 q 181 226 181 276 q 215 103 181 138 q 339 68 249 68 q 457 93 389 68 l 469 42 q 267 -12 372 -12 q 101 44 157 -12 q 44 221 44 100 q 86 454 44 343 q 215 635 128 565 q 435 706 303 706 m 401 629 q 276 566 328 629 q 201 386 225 503 q 396 431 325 386 q 467 557 467 475 q 451 609 467 589 q 401 629 436 629 m 356 788 q 369 815 357 806 q 404 833 382 825 q 438 852 426 843 q 449 878 449 861 q 406 907 449 907 l 374 906 l 356 863 l 310 863 l 315 936 q 421 947 378 947 q 503 931 474 947 q 533 882 533 914 q 483 818 533 840 q 455 808 474 814 q 425 793 436 801 q 411 771 414 785 l 354 771 l 356 788 z "},"ȇ":{"ha":578,"x_min":44,"x_max":589,"o":"m 44 0 m 435 706 q 546 671 503 706 q 589 569 589 636 q 485 394 589 457 q 190 331 382 331 q 181 226 181 276 q 215 103 181 138 q 339 68 249 68 q 457 93 389 68 l 469 42 q 267 -12 372 -12 q 101 44 157 -12 q 44 221 44 100 q 86 454 44 343 q 215 635 128 565 q 435 706 303 706 m 401 629 q 276 566 328 629 q 201 386 225 503 q 396 431 325 386 q 467 557 467 475 q 451 609 467 589 q 401 629 436 629 m 410 990 q 550 869 550 990 q 542 821 550 851 l 486 821 q 489 844 489 835 q 469 890 488 874 q 397 907 450 907 q 305 883 333 907 q 268 821 276 860 l 214 821 q 410 990 247 990 z "},"ē":{"ha":575,"x_min":44,"x_max":589,"o":"m 267 903 l 578 903 l 565 819 l 254 819 l 267 903 m 435 706 q 546 671 503 706 q 589 569 589 636 q 485 394 589 457 q 190 331 382 331 q 181 226 181 276 q 215 103 181 138 q 339 68 249 68 q 457 93 389 68 l 469 42 q 267 -12 372 -12 q 101 44 157 -12 q 44 221 44 100 q 86 454 44 343 q 215 635 128 565 q 435 706 303 706 m 401 629 q 276 566 328 629 q 201 386 225 503 q 396 431 325 386 q 467 557 467 475 q 451 609 467 589 q 401 629 436 629 z "},"ę":{"ha":575,"x_min":44,"x_max":589,"o":"m 322 -328 q 232 -299 261 -328 q 203 -228 203 -271 q 333 -7 203 -125 q 267 -12 304 -12 q 101 44 157 -12 q 44 221 44 100 q 86 454 44 343 q 215 635 128 565 q 435 706 303 706 q 546 671 503 706 q 589 569 589 636 q 485 394 589 457 q 190 331 382 331 q 181 226 181 276 q 215 103 181 138 q 339 68 249 68 q 457 93 389 68 l 469 42 l 458 35 q 352 -72 397 -1 q 307 -197 307 -142 q 323 -244 307 -228 q 369 -260 339 -260 q 447 -229 408 -260 l 469 -254 q 449 -276 469 -257 q 397 -311 429 -294 q 322 -328 364 -328 m 201 386 q 396 431 325 386 q 467 557 467 475 q 451 609 467 589 q 401 629 436 629 q 276 566 328 629 q 201 386 225 503 z "},"ẽ":{"ha":575,"x_min":44,"x_max":628,"o":"m 628 949 q 578 850 603 885 q 522 815 553 815 q 413 843 493 815 q 314 869 342 869 q 287 858 300 869 q 265 836 274 847 q 254 821 257 825 l 206 840 q 257 940 232 906 q 314 975 282 975 q 419 947 342 975 q 521 921 493 921 q 549 931 536 921 q 571 953 563 942 q 581 968 579 964 l 628 949 m 435 706 q 546 671 503 706 q 589 569 589 636 q 485 394 589 457 q 190 331 382 331 q 181 226 181 276 q 215 103 181 138 q 339 68 249 68 q 457 93 389 68 l 469 42 q 267 -12 372 -12 q 101 44 157 -12 q 44 221 44 100 q 86 454 44 343 q 215 635 128 565 q 435 706 303 706 m 401 629 q 276 566 328 629 q 201 386 225 503 q 396 431 325 386 q 467 557 467 475 q 451 609 467 589 q 401 629 436 629 z "},"ə":{"ha":578,"x_min":-11,"x_max":533,"o":"m 143 -21 q 32 14 75 -21 q -11 115 -11 49 q 92 291 -11 228 q 388 354 196 354 q 397 458 397 408 q 363 582 397 547 q 239 617 329 617 q 121 592 189 617 l 108 643 q 311 697 206 697 q 477 641 421 697 q 533 464 533 585 q 492 231 533 342 q 363 49 450 119 q 143 -21 275 -21 m 176 56 q 301 119 250 56 q 376 299 353 182 q 182 254 253 299 q 111 128 111 210 q 126 76 111 96 q 176 56 142 56 z "},"f":{"ha":419,"x_min":-193,"x_max":625,"o":"m -31 -239 q -124 -225 -81 -239 q -193 -199 -168 -211 l -181 -142 q -76 -158 -128 -158 q 31 -128 -6 -158 q 82 -8 67 -97 l 186 604 l 75 604 l 65 646 l 204 682 l 222 775 q 261 903 236 851 q 337 984 286 954 q 471 1014 388 1014 q 547 1002 504 1014 q 625 974 589 990 l 606 904 q 497 921 547 921 q 418 908 447 921 q 372 861 389 894 q 344 765 356 828 l 331 685 l 474 685 l 474 604 l 317 604 l 210 -18 q 134 -183 192 -126 q -31 -239 76 -239 z "},"g":{"ha":701,"x_min":-22,"x_max":674,"o":"m 181 -249 q 75 -237 121 -249 q -22 -201 29 -226 l 0 -136 q 156 -165 79 -165 q 290 -140 238 -165 q 376 -54 343 -115 q 425 117 408 7 q 327 44 385 68 q 214 19 269 19 q 49 217 49 19 q 93 463 49 353 q 226 640 138 574 q 442 706 315 706 q 521 697 482 706 q 579 682 560 689 l 615 731 l 674 719 l 538 13 q 419 -182 511 -115 q 181 -249 326 -249 m 268 111 q 367 142 313 111 q 446 226 422 172 q 478 383 447 228 l 521 603 q 478 622 504 615 q 426 629 453 629 q 287 563 340 629 q 211 405 233 497 q 189 228 189 313 q 208 136 189 161 q 268 111 228 111 z "},"ǵ":{"ha":701,"x_min":-22,"x_max":674,"o":"m 0 0 m 181 -249 q 75 -237 121 -249 q -22 -201 29 -226 l 0 -136 q 156 -165 79 -165 q 290 -140 238 -165 q 376 -54 343 -115 q 425 117 408 7 q 327 44 385 68 q 214 19 269 19 q 49 217 49 19 q 93 463 49 353 q 226 640 138 574 q 442 706 315 706 q 521 697 482 706 q 579 682 560 689 l 615 731 l 674 719 l 538 13 q 419 -182 511 -115 q 181 -249 326 -249 m 268 111 q 367 142 313 111 q 446 226 422 172 q 478 383 447 228 l 521 603 q 478 622 504 615 q 426 629 453 629 q 287 563 340 629 q 211 405 233 497 q 189 228 189 313 q 208 136 189 161 q 268 111 228 111 m 326 782 l 300 815 l 515 996 l 631 954 l 631 928 l 326 782 z "},"ğ":{"ha":683,"x_min":-29,"x_max":665,"o":"m 433 811 q 292 933 292 811 q 300 981 292 953 l 357 981 q 353 957 353 971 q 373 911 354 928 q 444 894 392 894 q 538 918 508 894 q 574 981 567 942 l 629 981 q 569 858 614 904 q 433 811 524 811 m 172 -249 q 67 -237 114 -249 q -29 -201 21 -225 l -7 -136 q 147 -165 71 -165 q 282 -140 229 -165 q 367 -54 335 -115 q 417 117 400 7 q 319 44 376 68 q 207 19 263 19 q 42 217 42 19 q 86 464 42 353 q 219 640 131 575 q 433 706 307 706 q 513 697 474 706 q 571 682 551 689 l 607 731 l 665 719 l 529 13 q 411 -181 504 -114 q 172 -249 318 -249 m 260 111 q 360 142 306 111 q 438 226 415 174 q 469 383 439 228 l 513 603 q 472 622 497 615 q 419 629 446 629 q 279 563 332 629 q 204 405 226 497 q 182 228 182 313 q 201 136 182 161 q 260 111 221 111 z "},"ǧ":{"ha":701,"x_min":-22,"x_max":674,"o":"m 0 0 m 181 -249 q 75 -237 121 -249 q -22 -201 29 -226 l 0 -136 q 156 -165 79 -165 q 290 -140 238 -165 q 376 -54 343 -115 q 425 117 408 7 q 327 44 385 68 q 214 19 269 19 q 49 217 49 19 q 93 463 49 353 q 226 640 138 574 q 442 706 315 706 q 521 697 482 706 q 579 682 560 689 l 615 731 l 674 719 l 538 13 q 419 -182 511 -115 q 181 -249 326 -249 m 268 111 q 367 142 313 111 q 446 226 422 172 q 478 383 447 228 l 521 603 q 478 622 504 615 q 426 629 453 629 q 287 563 340 629 q 211 405 233 497 q 189 228 189 313 q 208 136 189 161 q 268 111 228 111 m 325 1004 l 453 883 l 619 1006 l 651 974 l 483 776 l 390 776 l 282 976 l 325 1004 z "},"ĝ":{"ha":701,"x_min":-22,"x_max":674,"o":"m 0 0 m 181 -249 q 75 -237 121 -249 q -22 -201 29 -226 l 0 -136 q 156 -165 79 -165 q 290 -140 238 -165 q 376 -54 343 -115 q 425 117 408 7 q 327 44 385 68 q 214 19 269 19 q 49 217 49 19 q 93 463 49 353 q 226 640 138 574 q 442 706 315 706 q 521 697 482 706 q 579 682 560 689 l 615 731 l 674 719 l 538 13 q 419 -182 511 -115 q 181 -249 326 -249 m 268 111 q 367 142 313 111 q 446 226 422 172 q 478 383 447 228 l 521 603 q 478 622 504 615 q 426 629 453 629 q 287 563 340 629 q 211 405 233 497 q 189 228 189 313 q 208 136 189 161 q 268 111 228 111 m 576 776 l 458 892 l 292 776 l 260 807 l 428 997 l 521 997 l 617 804 l 576 776 z "},"ģ":{"ha":683,"x_min":-29,"x_max":665,"o":"m 390 774 l 368 801 l 506 1042 l 550 1032 l 503 799 l 390 774 m 172 -249 q 67 -237 114 -249 q -29 -201 21 -225 l -7 -136 q 147 -165 71 -165 q 282 -140 229 -165 q 367 -54 335 -115 q 417 117 400 7 q 319 44 376 68 q 207 19 263 19 q 42 217 42 19 q 86 464 42 353 q 219 640 131 575 q 433 706 307 706 q 513 697 474 706 q 571 682 551 689 l 607 731 l 665 719 l 529 13 q 411 -181 504 -114 q 172 -249 318 -249 m 260 111 q 360 142 306 111 q 438 226 415 174 q 469 383 439 228 l 513 603 q 472 622 497 615 q 419 629 446 629 q 279 563 332 629 q 204 405 226 497 q 182 228 182 313 q 201 136 182 161 q 260 111 221 111 z "},"ġ":{"ha":701,"x_min":-22,"x_max":674,"o":"m 0 0 m 181 -249 q 75 -237 121 -249 q -22 -201 29 -226 l 0 -136 q 156 -165 79 -165 q 290 -140 238 -165 q 376 -54 343 -115 q 425 117 408 7 q 327 44 385 68 q 214 19 269 19 q 49 217 49 19 q 93 463 49 353 q 226 640 138 574 q 442 706 315 706 q 521 697 482 706 q 579 682 560 689 l 615 731 l 674 719 l 538 13 q 419 -182 511 -115 q 181 -249 326 -249 m 268 111 q 367 142 313 111 q 446 226 422 172 q 478 383 447 228 l 521 603 q 478 622 504 615 q 426 629 453 629 q 287 563 340 629 q 211 405 233 497 q 189 228 189 313 q 208 136 189 161 q 268 111 228 111 m 458 807 q 396 832 422 807 q 369 893 369 857 q 396 957 369 931 q 458 983 422 983 q 522 957 494 983 q 549 893 549 931 q 522 832 549 857 q 458 807 494 807 z "},"h":{"ha":769,"x_min":57,"x_max":688,"o":"m 239 913 l 135 925 l 128 964 q 249 1000 186 986 q 349 1014 313 1014 q 376 981 376 1014 q 348 814 376 969 q 299 547 319 658 q 449 659 363 613 q 599 706 535 706 q 682 619 682 706 q 619 301 682 586 q 572 75 576 99 l 688 75 l 688 26 q 532 -12 599 -12 q 440 65 440 -12 q 489 301 440 90 q 542 561 542 532 q 501 603 542 603 q 394 563 460 603 q 283 467 328 522 l 206 8 l 57 -12 l 239 913 z "},"ħ":{"ha":769,"x_min":57,"x_max":688,"o":"m 218 804 l 103 804 l 115 874 l 232 874 l 243 929 l 138 940 l 129 981 q 350 1014 244 1014 q 371 1006 364 1014 q 378 986 378 999 q 358 874 378 978 l 547 874 l 533 804 l 347 804 l 335 738 q 299 547 308 610 q 449 659 363 613 q 599 706 535 706 q 682 619 682 706 q 619 301 682 586 q 572 75 576 99 l 688 75 l 688 26 q 532 -12 599 -12 q 440 65 440 -12 q 489 301 440 90 q 542 561 542 532 q 501 603 542 603 q 394 563 460 603 q 283 467 328 522 l 206 8 l 57 -12 l 218 804 z "},"ĥ":{"ha":769,"x_min":57,"x_max":688,"o":"m 57 0 m 239 913 l 135 925 l 128 964 q 249 1000 186 986 q 349 1014 313 1014 q 376 981 376 1014 q 348 814 376 969 q 299 547 319 658 q 449 659 363 613 q 599 706 535 706 q 682 619 682 706 q 619 301 682 586 q 572 75 576 99 l 688 75 l 688 26 q 532 -12 599 -12 q 440 65 440 -12 q 489 301 440 90 q 542 561 542 532 q 501 603 542 603 q 394 563 460 603 q 283 467 328 522 l 206 8 l 57 -12 l 239 913 m 479 1022 l 343 1133 l 153 1022 l 124 1053 l 313 1236 l 406 1236 l 517 1051 l 479 1022 z "},"ḥ":{"ha":769,"x_min":57,"x_max":688,"o":"m 57 0 m 239 913 l 135 925 l 128 964 q 249 1000 186 986 q 349 1014 313 1014 q 376 981 376 1014 q 348 814 376 969 q 299 547 319 658 q 449 659 363 613 q 599 706 535 706 q 682 619 682 706 q 619 301 682 586 q 572 75 576 99 l 688 75 l 688 26 q 532 -12 599 -12 q 440 65 440 -12 q 489 301 440 90 q 542 561 542 532 q 501 603 542 603 q 394 563 460 603 q 283 467 328 522 l 206 8 l 57 -12 l 239 913 m 290 -57 q 352 -83 325 -57 q 379 -146 379 -110 q 353 -207 379 -182 q 290 -232 326 -232 q 227 -207 254 -232 q 200 -146 200 -182 q 227 -83 200 -110 q 290 -57 254 -57 z "},"i":{"ha":410,"x_min":75,"x_max":386,"o":"m 299 983 q 360 957 333 983 q 386 896 386 931 q 360 835 386 861 q 299 810 335 810 q 236 835 263 810 q 210 896 210 861 q 236 957 210 931 q 299 983 263 983 m 329 675 q 264 344 329 665 l 208 75 l 322 75 l 322 26 q 149 -12 217 -12 q 93 3 111 -12 q 75 51 75 18 q 99 183 75 68 q 132 342 122 297 q 188 604 175 540 l 86 615 l 78 657 q 206 692 140 678 q 301 706 271 706 q 329 675 329 706 z "},"ı":{"ha":413,"x_min":79,"x_max":329,"o":"m 329 675 q 226 146 329 653 q 219 106 222 124 q 213 75 215 89 l 326 75 l 326 26 q 154 -12 224 -12 q 98 3 115 -12 q 81 51 81 18 q 121 273 81 76 q 169 513 161 469 l 189 604 l 86 615 l 79 657 q 207 692 142 678 q 303 706 272 706 q 329 675 329 706 z "},"í":{"ha":413,"x_min":79,"x_max":444,"o":"m 142 782 l 115 815 l 331 996 l 444 954 l 444 928 l 142 782 m 154 -12 q 98 3 115 -12 q 81 51 81 18 q 121 273 81 76 q 169 513 161 469 l 189 604 l 86 615 l 79 657 q 207 692 142 678 q 303 706 272 706 q 329 675 329 706 q 226 146 329 653 q 219 106 222 124 q 213 75 215 89 l 326 75 l 326 26 q 154 -12 224 -12 z "},"ĭ":{"ha":413,"x_min":79,"x_max":492,"o":"m 79 0 m 329 675 q 226 146 329 653 q 219 106 222 124 q 213 75 215 89 l 326 75 l 326 26 q 154 -12 224 -12 q 98 3 115 -12 q 81 51 81 18 q 121 273 81 76 q 169 513 161 469 l 189 604 l 86 615 l 79 657 q 207 692 142 678 q 303 706 272 706 q 329 675 329 706 m 296 811 q 154 933 154 811 q 164 981 154 949 l 219 981 q 215 957 215 971 q 237 911 218 928 q 307 894 256 894 q 401 918 372 894 q 438 981 429 942 l 492 981 q 431 858 476 904 q 296 811 386 811 z "},"ǐ":{"ha":413,"x_min":79,"x_max":507,"o":"m 79 0 m 329 675 q 226 146 329 653 q 219 106 222 124 q 213 75 215 89 l 326 75 l 326 26 q 154 -12 224 -12 q 98 3 115 -12 q 81 51 81 18 q 121 273 81 76 q 169 513 161 469 l 189 604 l 86 615 l 79 657 q 207 692 142 678 q 303 706 272 706 q 329 675 329 706 m 181 1004 l 308 883 l 475 1006 l 507 974 l 339 776 l 246 776 l 138 976 l 181 1004 z "},"î":{"ha":413,"x_min":69,"x_max":406,"o":"m 100 776 l 69 807 l 226 997 l 319 997 l 406 803 l 365 776 l 258 892 l 100 776 m 154 -12 q 98 3 115 -12 q 81 51 81 18 q 121 273 81 76 q 169 513 161 469 l 189 604 l 86 615 l 79 657 q 207 692 142 678 q 303 706 272 706 q 329 675 329 706 q 226 146 329 653 q 219 106 222 124 q 213 75 215 89 l 326 75 l 326 26 q 154 -12 224 -12 z "},"ȉ":{"ha":413,"x_min":25,"x_max":444,"o":"m 25 0 m 329 675 q 226 146 329 653 q 219 106 222 124 q 213 75 215 89 l 326 75 l 326 26 q 154 -12 224 -12 q 98 3 115 -12 q 81 51 81 18 q 121 273 81 76 q 169 513 161 469 l 189 604 l 86 615 l 79 657 q 207 692 142 678 q 303 706 272 706 q 329 675 329 706 m 188 767 l 25 982 l 26 1008 l 138 1008 l 221 786 l 188 767 m 411 767 l 249 982 l 250 1008 l 361 1008 l 444 786 l 411 767 z "},"ï":{"ha":413,"x_min":39,"x_max":463,"o":"m 213 894 q 187 835 213 860 q 126 811 161 811 q 65 835 92 811 q 39 894 39 860 q 65 955 39 929 q 126 981 92 981 q 187 955 161 981 q 213 894 213 929 m 463 894 q 437 835 463 860 q 376 811 411 811 q 315 835 340 811 q 289 894 289 860 q 315 955 289 929 q 376 981 340 981 q 436 955 410 981 q 463 894 463 929 m 329 675 q 226 146 329 653 q 219 106 222 124 q 213 75 215 89 l 326 75 l 326 26 q 154 -12 224 -12 q 98 3 115 -12 q 81 51 81 18 q 121 273 81 76 q 169 513 161 469 l 189 604 l 86 615 l 79 657 q 207 692 142 678 q 303 706 272 706 q 329 675 329 706 z "},"ị":{"ha":410,"x_min":22,"x_max":386,"o":"m 22 0 m 299 983 q 360 957 333 983 q 386 896 386 931 q 360 835 386 861 q 299 810 335 810 q 236 835 263 810 q 210 896 210 861 q 236 957 210 931 q 299 983 263 983 m 329 675 q 264 344 329 665 l 208 75 l 322 75 l 322 26 q 149 -12 217 -12 q 93 3 111 -12 q 75 51 75 18 q 99 183 75 68 q 132 342 122 297 q 188 604 175 540 l 86 615 l 78 657 q 206 692 140 678 q 301 706 271 706 q 329 675 329 706 m 113 -57 q 174 -83 147 -57 q 201 -146 201 -110 q 175 -207 201 -182 q 113 -232 149 -232 q 49 -207 76 -232 q 22 -146 22 -182 q 49 -83 22 -110 q 113 -57 76 -57 z "},"ì":{"ha":413,"x_min":54,"x_max":385,"o":"m 360 782 l 54 928 l 57 954 l 171 996 l 385 815 l 360 782 m 154 -12 q 98 3 115 -12 q 81 51 81 18 q 121 273 81 76 q 169 513 161 469 l 189 604 l 86 615 l 79 657 q 207 692 142 678 q 303 706 272 706 q 329 675 329 706 q 226 146 329 653 q 219 106 222 124 q 213 75 215 89 l 326 75 l 326 26 q 154 -12 224 -12 z "},"ỉ":{"ha":413,"x_min":79,"x_max":451,"o":"m 79 0 m 329 675 q 226 146 329 653 q 219 106 222 124 q 213 75 215 89 l 326 75 l 326 26 q 154 -12 224 -12 q 98 3 115 -12 q 81 51 81 18 q 121 273 81 76 q 169 513 161 469 l 189 604 l 86 615 l 79 657 q 207 692 142 678 q 303 706 272 706 q 329 675 329 706 m 274 788 q 288 815 275 806 q 322 833 300 825 q 356 852 344 843 q 367 878 367 861 q 324 907 367 907 l 292 906 l 274 863 l 228 863 l 233 936 q 339 947 296 947 q 422 931 392 947 q 451 882 451 914 q 401 818 451 840 q 373 808 392 814 q 343 793 354 801 q 329 771 332 785 l 272 771 l 274 788 z "},"ȋ":{"ha":413,"x_min":79,"x_max":468,"o":"m 79 0 m 329 675 q 226 146 329 653 q 219 106 222 124 q 213 75 215 89 l 326 75 l 326 26 q 154 -12 224 -12 q 98 3 115 -12 q 81 51 81 18 q 121 273 81 76 q 169 513 161 469 l 189 604 l 86 615 l 79 657 q 207 692 142 678 q 303 706 272 706 q 329 675 329 706 m 328 990 q 468 869 468 990 q 460 821 468 851 l 404 821 q 407 844 407 835 q 387 890 406 874 q 315 907 368 907 q 223 883 251 907 q 186 821 194 860 l 132 821 q 328 990 165 990 z "},"ĳ":{"ha":775,"x_min":75,"x_max":775,"o":"m 75 0 m 299 983 q 360 957 333 983 q 386 896 386 931 q 360 835 386 861 q 299 810 335 810 q 236 835 263 810 q 210 896 210 861 q 236 957 210 931 q 299 983 263 983 m 329 675 q 264 344 329 665 l 208 75 l 322 75 l 322 26 q 149 -12 217 -12 q 93 3 111 -12 q 75 51 75 18 q 99 183 75 68 q 132 342 122 297 q 188 604 175 540 l 86 615 l 78 657 q 206 692 140 678 q 301 706 271 706 q 329 675 329 706 m 686 810 q 625 835 651 810 q 599 894 599 860 q 625 957 599 931 q 686 983 651 983 q 749 957 722 983 q 775 894 775 931 q 749 835 775 860 q 686 810 722 810 m 354 -239 q 278 -230 314 -239 q 222 -210 243 -221 q 196 -197 201 -200 l 210 -139 q 314 -156 263 -156 q 417 -122 378 -156 q 469 -7 456 -89 l 579 606 l 478 615 l 469 657 q 594 691 524 676 q 693 706 664 706 q 722 674 722 706 q 674 398 710 599 q 600 -19 639 197 q 519 -181 581 -124 q 354 -239 457 -239 z "},"ī":{"ha":413,"x_min":79,"x_max":411,"o":"m 100 903 l 411 903 l 399 819 l 88 819 l 100 903 m 329 675 q 226 146 329 653 q 219 106 222 124 q 213 75 215 89 l 326 75 l 326 26 q 154 -12 224 -12 q 98 3 115 -12 q 81 51 81 18 q 121 273 81 76 q 169 513 161 469 l 189 604 l 86 615 l 79 657 q 207 692 142 678 q 303 706 272 706 q 329 675 329 706 z "},"į":{"ha":413,"x_min":71,"x_max":394,"o":"m 307 983 q 369 958 343 983 q 394 896 394 932 q 369 835 394 861 q 307 810 343 810 q 245 835 271 810 q 219 896 219 861 q 246 958 219 932 q 307 983 272 983 m 338 675 q 272 344 338 665 l 217 75 l 331 75 l 331 26 q 247 -40 282 0 q 192 -123 211 -81 q 174 -197 174 -165 q 190 -244 174 -228 q 236 -260 207 -260 q 315 -229 275 -260 l 336 -254 q 316 -276 336 -257 q 263 -311 296 -294 q 189 -328 231 -328 q 99 -300 128 -328 q 71 -228 71 -272 q 104 -122 71 -179 q 215 -6 138 -65 q 158 -12 188 -12 q 102 3 119 -12 q 85 51 85 18 q 111 197 85 69 q 144 358 138 325 q 196 604 186 556 l 94 615 l 86 657 q 215 692 150 678 q 310 706 279 706 q 338 675 338 706 z "},"ĩ":{"ha":413,"x_min":46,"x_max":447,"o":"m 340 815 q 243 843 310 815 q 154 869 179 869 q 127 858 140 869 q 106 836 114 847 q 94 821 97 825 l 46 840 q 97 941 72 907 q 153 975 121 975 q 193 968 171 975 q 250 947 215 961 q 339 921 311 921 q 367 931 354 921 q 389 953 381 942 q 399 968 397 964 l 447 949 q 396 850 421 885 q 340 815 371 815 m 154 -12 q 98 3 115 -12 q 81 51 81 18 q 121 273 81 76 q 169 513 161 469 l 189 604 l 86 615 l 79 657 q 207 692 142 678 q 303 706 272 706 q 329 675 329 706 q 226 146 329 653 q 219 106 222 124 q 213 75 215 89 l 326 75 l 326 26 q 154 -12 224 -12 z "},"j":{"ha":390,"x_min":-189,"x_max":390,"o":"m 301 810 q 240 835 267 810 q 214 894 214 860 q 240 957 214 931 q 301 983 267 983 q 364 957 338 983 q 390 894 390 931 q 364 835 390 860 q 301 810 338 810 m -31 -239 q -106 -230 -71 -239 q -162 -210 -142 -221 q -189 -197 -183 -200 l -175 -139 q -71 -156 -122 -156 q 32 -122 -7 -156 q 85 -7 71 -89 l 194 606 l 93 615 l 85 657 q 209 691 139 676 q 308 706 279 706 q 338 674 338 706 q 290 398 325 599 q 215 -19 254 197 q 134 -181 196 -124 q -31 -239 72 -239 z "},"ȷ":{"ha":390,"x_min":-189,"x_max":338,"o":"m 338 674 q 290 398 325 599 q 215 -19 254 197 q 134 -181 196 -124 q -31 -239 72 -239 q -106 -230 -71 -239 q -162 -210 -142 -221 q -189 -197 -183 -200 l -175 -139 q -71 -156 -122 -156 q 32 -122 -7 -156 q 85 -7 71 -89 l 194 606 l 93 615 l 85 657 q 209 691 139 676 q 308 706 279 706 q 338 674 338 706 z "},"ĵ":{"ha":390,"x_min":-189,"x_max":461,"o":"m 0 0 m 338 674 q 290 398 325 599 q 215 -19 254 197 q 134 -181 196 -124 q -31 -239 72 -239 q -106 -230 -71 -239 q -162 -210 -142 -221 q -189 -197 -183 -200 l -175 -139 q -71 -156 -122 -156 q 32 -122 -7 -156 q 85 -7 71 -89 l 194 606 l 93 615 l 85 657 q 209 691 139 676 q 308 706 279 706 q 338 674 338 706 m 421 776 l 303 892 l 136 776 l 104 807 l 272 997 l 365 997 l 461 804 l 421 776 z "},"k":{"ha":704,"x_min":57,"x_max":692,"o":"m 57 -12 l 239 913 l 135 925 l 126 965 q 250 1000 188 986 q 347 1014 313 1014 q 376 982 376 1014 q 335 742 376 957 l 300 549 q 375 617 324 581 q 487 680 426 654 q 600 706 547 706 q 667 682 643 706 q 692 613 692 658 q 629 460 692 529 q 433 350 567 390 l 538 75 l 642 75 l 642 26 q 463 -12 529 -12 q 399 68 433 -12 q 335 246 364 149 q 307 349 307 343 l 315 368 q 495 453 429 397 q 561 567 561 510 q 551 598 561 589 q 515 607 540 607 q 398 564 469 607 q 285 468 326 521 l 206 8 l 57 -12 z "},"ķ":{"ha":694,"x_min":57,"x_max":692,"o":"m 238 913 l 135 925 l 126 965 q 250 1000 188 986 q 347 1014 313 1014 q 376 982 376 1014 q 335 742 376 957 l 300 549 q 375 617 324 581 q 487 680 426 654 q 600 706 547 706 q 667 682 643 706 q 692 613 692 658 q 629 460 692 529 q 433 350 567 390 l 538 75 l 642 75 l 642 26 q 463 -12 529 -12 q 399 68 433 -12 q 335 246 364 149 q 307 349 307 343 l 315 368 q 495 453 429 397 q 561 567 561 510 q 551 598 561 589 q 515 607 540 607 q 398 564 469 607 q 285 468 326 521 l 206 8 l 57 -12 l 238 913 m 232 -312 l 192 -301 l 240 -64 l 351 -40 l 375 -67 l 232 -312 z "},"ĸ":{"ha":719,"x_min":72,"x_max":707,"o":"m 72 -12 l 193 603 l 90 614 l 83 654 q 206 690 140 675 q 307 704 272 704 q 336 671 336 704 q 325 601 336 649 q 315 549 315 546 q 391 617 340 581 q 502 680 442 654 q 615 706 563 706 q 683 682 658 706 q 707 613 707 658 q 644 460 707 529 q 449 350 582 390 l 553 75 l 657 75 l 657 26 q 478 -12 544 -12 q 414 68 449 -12 q 351 246 379 149 q 322 349 322 343 l 331 368 q 510 453 444 397 q 576 567 576 510 q 566 598 576 589 q 531 607 556 607 q 413 564 485 607 q 300 468 342 521 l 221 7 l 72 -12 z "},"l":{"ha":411,"x_min":74,"x_max":375,"o":"m 147 -12 q 74 54 74 -12 q 135 394 74 72 q 232 910 153 489 l 128 924 l 118 963 q 243 999 176 985 q 346 1014 310 1014 q 375 982 375 1014 q 372 953 375 965 l 211 76 l 331 76 l 331 28 q 147 -12 214 -12 z "},"ĺ":{"ha":414,"x_min":75,"x_max":458,"o":"m 150 1010 l 125 1043 l 344 1218 l 458 1171 l 457 1144 l 150 1010 m 149 -12 q 75 54 75 -12 q 136 394 75 72 q 233 910 154 489 l 129 924 l 119 963 q 244 999 178 985 q 347 1014 311 1014 q 376 982 376 1014 q 374 953 376 965 l 213 76 l 332 76 l 332 28 q 149 -12 215 -12 z "},"ľ":{"ha":436,"x_min":75,"x_max":535,"o":"m 149 -12 q 75 54 75 -12 q 136 394 75 72 q 233 910 154 489 l 129 924 l 119 963 q 244 999 178 985 q 347 1014 311 1014 q 376 982 376 1014 q 374 953 376 965 l 213 76 l 332 76 l 332 28 q 149 -12 215 -12 m 442 731 l 419 1014 l 460 1014 l 535 992 l 481 731 l 442 731 z "},"ļ":{"ha":414,"x_min":47,"x_max":376,"o":"m 149 -12 q 75 54 75 -12 q 136 394 75 72 q 233 910 154 489 l 129 924 l 119 963 q 244 999 178 985 q 347 1014 311 1014 q 376 982 376 1014 q 374 953 376 965 l 213 76 l 332 76 l 332 28 q 149 -12 215 -12 m 88 -312 l 47 -301 l 96 -64 l 207 -40 l 231 -67 l 88 -312 z "},"ŀ":{"ha":411,"x_min":74,"x_max":538,"o":"m 74 0 m 147 -12 q 74 54 74 -12 q 135 394 74 72 q 232 910 153 489 l 128 924 l 118 963 q 243 999 176 985 q 346 1014 310 1014 q 375 982 375 1014 q 372 953 375 965 l 211 76 l 331 76 l 331 28 q 147 -12 214 -12 m 538 596 q 512 534 538 560 q 447 508 486 508 q 385 534 411 508 q 360 596 360 560 q 385 659 360 633 q 447 685 411 685 q 512 660 486 685 q 538 596 538 635 z "},"ǉ":{"ha":801,"x_min":74,"x_max":801,"o":"m 74 0 m 147 -12 q 74 54 74 -12 q 135 394 74 72 q 232 910 153 489 l 128 924 l 118 963 q 243 999 176 985 q 346 1014 310 1014 q 375 982 375 1014 q 372 953 375 965 l 211 76 l 331 76 l 331 28 q 147 -12 214 -12 m 713 810 q 651 835 678 810 q 625 894 625 860 q 651 957 625 931 q 713 983 678 983 q 775 957 749 983 q 801 894 801 931 q 775 835 801 860 q 713 810 749 810 m 381 -239 q 305 -230 340 -239 q 249 -210 269 -221 q 222 -197 228 -200 l 236 -139 q 340 -156 289 -156 q 443 -122 404 -156 q 496 -7 482 -89 l 606 606 l 504 615 l 496 657 q 620 691 550 676 q 719 706 690 706 q 749 674 749 706 q 701 398 736 599 q 626 -19 665 197 q 545 -181 607 -124 q 381 -239 483 -239 z "},"ł":{"ha":417,"x_min":7,"x_max":451,"o":"m 215 76 l 335 76 l 335 28 q 151 -12 218 -12 q 78 54 78 -12 q 149 443 78 78 l 36 388 l 7 450 l 165 528 l 236 910 l 132 924 l 122 963 q 247 999 181 985 q 350 1014 314 1014 q 379 982 379 1014 q 376 953 379 965 l 311 600 l 419 653 l 451 590 l 296 514 l 215 76 z "},"m":{"ha":1110,"x_min":74,"x_max":1029,"o":"m 196 601 l 93 613 l 85 653 q 208 688 143 674 q 306 703 272 703 q 326 692 319 703 q 332 668 332 682 q 326 615 332 656 q 314 547 319 575 q 456 658 371 610 q 603 706 540 706 q 676 619 676 706 q 668 554 676 594 q 808 660 725 615 q 949 706 890 706 q 1006 685 990 706 q 1022 618 1022 665 q 921 108 1022 567 l 914 75 l 1029 75 l 1029 26 q 876 -12 940 -12 q 807 5 832 -12 q 782 67 782 22 q 831 299 782 90 q 860 434 838 332 q 883 558 883 536 q 878 593 883 583 q 854 603 872 603 q 756 562 817 603 q 653 472 694 521 l 569 8 l 421 -12 l 475 250 q 535 556 535 536 q 529 593 535 583 q 506 603 524 603 q 405 560 467 603 q 300 467 343 518 l 222 8 l 74 -12 l 196 601 z "},"n":{"ha":786,"x_min":72,"x_max":704,"o":"m 315 549 q 468 663 382 618 q 613 707 554 707 q 699 618 699 707 q 666 433 699 589 q 600 129 633 276 l 588 74 l 704 74 l 704 26 q 549 -12 617 -12 q 481 6 504 -12 q 457 65 457 24 q 478 180 457 85 q 504 297 499 275 q 558 563 558 533 q 518 604 558 604 q 411 564 476 604 q 300 467 346 524 l 221 7 l 72 -12 l 193 603 l 90 614 l 83 654 q 208 690 144 675 q 306 704 271 704 q 328 694 319 704 q 336 669 336 685 q 315 549 336 647 z "},"ń":{"ha":786,"x_min":74,"x_max":706,"o":"m 382 782 l 356 815 l 569 996 l 685 954 l 685 928 l 382 782 m 317 549 q 469 663 383 618 q 615 707 556 707 q 679 685 658 707 q 700 618 700 664 q 589 74 700 558 l 706 74 l 706 26 q 550 -12 618 -12 q 458 65 458 -12 q 479 180 458 85 q 506 297 500 275 q 560 563 560 533 q 519 604 560 604 q 413 564 478 604 q 301 467 347 524 l 222 7 l 74 -12 l 196 603 l 93 614 l 85 654 q 209 690 146 675 q 307 704 272 704 q 338 669 338 704 q 317 549 338 647 z "},"ŉ":{"ha":833,"x_min":72,"x_max":704,"o":"m 72 0 m 269 731 l 247 1014 l 288 1014 l 363 992 l 308 731 l 269 731 m 315 549 q 468 663 382 618 q 613 707 554 707 q 699 618 699 707 q 666 433 699 589 q 600 129 633 276 l 588 74 l 704 74 l 704 26 q 549 -12 617 -12 q 481 6 504 -12 q 457 65 457 24 q 478 180 457 85 q 504 297 499 275 q 558 563 558 533 q 518 604 558 604 q 411 564 476 604 q 300 467 346 524 l 221 7 l 72 -12 l 193 603 l 90 614 l 83 654 q 208 690 144 675 q 306 704 271 704 q 328 694 319 704 q 336 669 336 685 q 315 549 336 647 z "},"ň":{"ha":786,"x_min":74,"x_max":706,"o":"m 349 1004 l 475 883 l 643 1006 l 675 974 l 507 776 l 414 776 l 306 976 l 349 1004 m 317 549 q 469 663 383 618 q 615 707 556 707 q 679 685 658 707 q 700 618 700 664 q 589 74 700 558 l 706 74 l 706 26 q 550 -12 618 -12 q 458 65 458 -12 q 479 180 458 85 q 506 297 500 275 q 560 563 560 533 q 519 604 560 604 q 413 564 478 604 q 301 467 347 524 l 222 7 l 74 -12 l 196 603 l 93 614 l 85 654 q 209 690 146 675 q 307 704 272 704 q 338 669 338 704 q 317 549 338 647 z "},"ņ":{"ha":786,"x_min":74,"x_max":706,"o":"m 196 603 l 93 614 l 85 654 q 209 690 146 675 q 307 704 272 704 q 338 669 338 704 q 317 549 338 647 q 469 663 383 618 q 615 707 556 707 q 679 685 658 707 q 700 618 700 664 q 589 74 700 558 l 706 74 l 706 26 q 550 -12 618 -12 q 458 65 458 -12 q 479 180 458 85 q 506 297 500 275 q 560 563 560 533 q 519 604 560 604 q 413 564 478 604 q 301 467 347 524 l 222 7 l 74 -12 l 196 603 m 275 -312 l 233 -301 l 283 -64 l 394 -40 l 418 -67 l 275 -312 z "},"ṅ":{"ha":786,"x_min":72,"x_max":704,"o":"m 72 0 m 315 549 q 468 663 382 618 q 613 707 554 707 q 699 618 699 707 q 666 433 699 589 q 600 129 633 276 l 588 74 l 704 74 l 704 26 q 549 -12 617 -12 q 481 6 504 -12 q 457 65 457 24 q 478 180 457 85 q 504 297 499 275 q 558 563 558 533 q 518 604 558 604 q 411 564 476 604 q 300 467 346 524 l 221 7 l 72 -12 l 193 603 l 90 614 l 83 654 q 208 690 144 675 q 306 704 271 704 q 328 694 319 704 q 336 669 336 685 q 315 549 336 647 m 501 807 q 439 832 465 807 q 413 893 413 857 q 439 957 413 931 q 501 983 465 983 q 565 957 538 983 q 592 893 592 931 q 565 832 592 857 q 501 807 538 807 z "},"ŋ":{"ha":786,"x_min":72,"x_max":699,"o":"m 613 707 q 699 618 699 707 q 674 444 699 575 q 583 -19 650 313 q 501 -182 563 -125 q 342 -239 440 -239 q 181 -197 254 -239 l 194 -139 q 299 -156 247 -156 q 399 -122 361 -156 q 454 -7 438 -89 l 463 35 q 533 394 507 258 q 558 563 558 531 q 518 604 558 604 q 411 564 476 604 q 300 467 346 524 l 221 7 l 72 -12 l 193 603 l 90 614 l 83 654 q 208 690 144 675 q 306 704 271 704 q 328 694 319 704 q 336 669 336 685 q 315 549 336 647 q 468 663 382 618 q 613 707 554 707 z "},"ɲ":{"ha":786,"x_min":-189,"x_max":704,"o":"m 704 74 l 704 26 q 549 -12 617 -12 q 481 6 504 -12 q 457 65 457 24 q 478 180 457 85 q 504 297 499 275 q 558 563 558 533 q 518 604 558 604 q 410 564 476 604 q 299 467 344 524 l 215 -19 q 134 -181 196 -124 q -31 -239 72 -239 q -106 -230 -71 -239 q -162 -210 -142 -221 q -189 -197 -183 -200 l -175 -139 q -71 -156 -122 -156 q 32 -122 -7 -156 q 85 -7 71 -89 l 194 603 l 90 614 l 83 654 q 208 690 144 675 q 306 704 271 704 q 328 694 319 704 q 336 669 336 685 q 315 549 336 647 q 468 663 382 618 q 613 707 554 707 q 699 618 699 707 q 666 433 699 589 q 600 129 633 276 l 588 74 l 704 74 z "},"ǌ":{"ha":1176,"x_min":72,"x_max":1176,"o":"m 72 0 m 315 549 q 468 663 382 618 q 613 707 554 707 q 699 618 699 707 q 666 433 699 589 q 600 129 633 276 l 588 74 l 704 74 l 704 26 q 549 -12 617 -12 q 481 6 504 -12 q 457 65 457 24 q 478 180 457 85 q 504 297 499 275 q 558 563 558 533 q 518 604 558 604 q 411 564 476 604 q 300 467 346 524 l 221 7 l 72 -12 l 193 603 l 90 614 l 83 654 q 208 690 144 675 q 306 704 271 704 q 328 694 319 704 q 336 669 336 685 q 315 549 336 647 m 1088 810 q 1026 835 1053 810 q 1000 894 1000 860 q 1026 957 1000 931 q 1088 983 1053 983 q 1150 957 1124 983 q 1176 894 1176 931 q 1150 835 1176 860 q 1088 810 1124 810 m 756 -239 q 680 -230 715 -239 q 624 -210 644 -221 q 597 -197 603 -200 l 611 -139 q 715 -156 664 -156 q 818 -122 779 -156 q 871 -7 857 -89 l 981 606 l 879 615 l 871 657 q 995 691 925 676 q 1094 706 1065 706 q 1124 674 1124 706 q 1076 398 1111 599 q 1001 -19 1040 197 q 920 -181 982 -124 q 756 -239 858 -239 z "},"ñ":{"ha":786,"x_min":74,"x_max":706,"o":"m 701 949 q 650 850 675 885 q 594 815 625 815 q 485 843 565 815 q 386 869 414 869 q 359 858 372 869 q 338 836 346 847 q 326 821 329 825 l 278 840 q 329 940 304 906 q 386 975 354 975 q 492 947 414 975 q 593 921 565 921 q 622 931 608 921 q 643 953 635 942 q 653 968 651 964 l 701 949 m 317 549 q 469 663 383 618 q 615 707 556 707 q 679 685 658 707 q 700 618 700 664 q 589 74 700 558 l 706 74 l 706 26 q 550 -12 618 -12 q 458 65 458 -12 q 479 180 458 85 q 506 297 500 275 q 560 563 560 533 q 519 604 560 604 q 413 564 478 604 q 301 467 347 524 l 222 7 l 74 -12 l 196 603 l 93 614 l 85 654 q 209 690 146 675 q 307 704 272 704 q 338 669 338 704 q 317 549 338 647 z "},"o":{"ha":693,"x_min":44,"x_max":649,"o":"m 439 706 q 597 651 544 706 q 649 496 649 597 q 599 224 649 339 q 459 48 549 108 q 253 -12 369 -12 q 44 199 44 -12 q 94 470 44 356 q 234 645 144 585 q 439 706 324 706 m 283 63 q 413 129 363 63 q 487 295 464 196 q 510 497 510 394 q 488 595 510 561 q 411 629 465 629 q 279 560 331 629 q 206 392 228 492 q 183 193 183 293 q 206 96 183 129 q 283 63 228 63 z "},"ó":{"ha":693,"x_min":44,"x_max":649,"o":"m 44 0 m 439 706 q 597 651 544 706 q 649 496 649 597 q 599 224 649 339 q 459 48 549 108 q 253 -12 369 -12 q 44 199 44 -12 q 94 470 44 356 q 234 645 144 585 q 439 706 324 706 m 283 63 q 413 129 363 63 q 487 295 464 196 q 510 497 510 394 q 488 595 510 561 q 411 629 465 629 q 279 560 331 629 q 206 392 228 492 q 183 193 183 293 q 206 96 183 129 q 283 63 228 63 m 322 782 l 296 815 l 511 996 l 626 954 l 626 928 l 322 782 z "},"ŏ":{"ha":693,"x_min":44,"x_max":649,"o":"m 44 0 m 439 706 q 597 651 544 706 q 649 496 649 597 q 599 224 649 339 q 459 48 549 108 q 253 -12 369 -12 q 44 199 44 -12 q 94 470 44 356 q 234 645 144 585 q 439 706 324 706 m 283 63 q 413 129 363 63 q 487 295 464 196 q 510 497 510 394 q 488 595 510 561 q 411 629 465 629 q 279 560 331 629 q 206 392 228 492 q 183 193 183 293 q 206 96 183 129 q 283 63 228 63 m 436 811 q 294 933 294 811 q 304 981 294 949 l 360 981 q 356 957 356 971 q 377 911 358 928 q 447 894 396 894 q 541 918 513 894 q 578 981 569 942 l 632 981 q 572 858 617 904 q 436 811 526 811 z "},"ǒ":{"ha":693,"x_min":44,"x_max":649,"o":"m 44 0 m 439 706 q 597 651 544 706 q 649 496 649 597 q 599 224 649 339 q 459 48 549 108 q 253 -12 369 -12 q 44 199 44 -12 q 94 470 44 356 q 234 645 144 585 q 439 706 324 706 m 283 63 q 413 129 363 63 q 487 295 464 196 q 510 497 510 394 q 488 595 510 561 q 411 629 465 629 q 279 560 331 629 q 206 392 228 492 q 183 193 183 293 q 206 96 183 129 q 283 63 228 63 m 321 1004 l 449 883 l 615 1006 l 647 974 l 479 776 l 386 776 l 278 976 l 321 1004 z "},"ô":{"ha":693,"x_min":44,"x_max":649,"o":"m 581 776 l 464 892 l 296 776 l 265 807 l 432 997 l 526 997 l 622 804 l 581 776 m 439 706 q 597 651 544 706 q 649 496 649 597 q 599 224 649 339 q 459 48 549 108 q 253 -12 369 -12 q 44 199 44 -12 q 94 470 44 356 q 234 645 144 585 q 439 706 324 706 m 283 63 q 413 129 363 63 q 487 295 464 196 q 510 497 510 394 q 488 595 510 561 q 411 629 465 629 q 279 560 331 629 q 206 392 228 492 q 183 193 183 293 q 206 96 183 129 q 283 63 228 63 z "},"ố":{"ha":693,"x_min":44,"x_max":871,"o":"m 636 851 l 600 872 l 739 1118 l 861 1118 l 871 1092 l 636 851 m 571 776 l 453 892 l 286 776 l 254 807 l 422 997 l 515 997 l 611 804 l 571 776 m 439 706 q 597 651 544 706 q 649 496 649 597 q 599 224 649 339 q 459 48 549 108 q 253 -12 369 -12 q 44 199 44 -12 q 94 470 44 356 q 234 645 144 585 q 439 706 324 706 m 283 63 q 413 129 363 63 q 487 295 464 196 q 510 497 510 394 q 488 595 510 561 q 411 629 465 629 q 279 560 331 629 q 206 392 228 492 q 183 193 183 293 q 206 96 183 129 q 283 63 228 63 z "},"ộ":{"ha":693,"x_min":44,"x_max":649,"o":"m 44 0 m 439 706 q 597 651 544 706 q 649 496 649 597 q 599 224 649 339 q 459 48 549 108 q 253 -12 369 -12 q 44 199 44 -12 q 94 470 44 356 q 234 645 144 585 q 439 706 324 706 m 283 63 q 413 129 363 63 q 487 295 464 196 q 510 497 510 394 q 488 595 510 561 q 411 629 465 629 q 279 560 331 629 q 206 392 228 492 q 183 193 183 293 q 206 96 183 129 q 283 63 228 63 m 253 -57 q 315 -83 288 -57 q 342 -146 342 -110 q 315 -207 342 -182 q 253 -232 289 -232 q 190 -207 217 -232 q 163 -146 163 -182 q 190 -83 163 -110 q 253 -57 217 -57 m 572 776 l 454 892 l 288 776 l 256 807 l 424 997 l 517 997 l 613 804 l 572 776 z "},"ồ":{"ha":693,"x_min":44,"x_max":688,"o":"m 647 849 l 500 1096 l 517 1118 l 613 1118 l 688 863 l 647 849 m 568 776 l 450 892 l 283 776 l 251 807 l 419 997 l 513 997 l 608 804 l 568 776 m 439 706 q 597 651 544 706 q 649 496 649 597 q 599 224 649 339 q 459 48 549 108 q 253 -12 369 -12 q 44 199 44 -12 q 94 470 44 356 q 234 645 144 585 q 439 706 324 706 m 283 63 q 413 129 363 63 q 487 295 464 196 q 510 497 510 394 q 488 595 510 561 q 411 629 465 629 q 279 560 331 629 q 206 392 228 492 q 183 193 183 293 q 206 96 183 129 q 283 63 228 63 z "},"ổ":{"ha":693,"x_min":44,"x_max":767,"o":"m 44 0 m 439 706 q 597 651 544 706 q 649 496 649 597 q 599 224 649 339 q 459 48 549 108 q 253 -12 369 -12 q 44 199 44 -12 q 94 470 44 356 q 234 645 144 585 q 439 706 324 706 m 283 63 q 413 129 363 63 q 487 295 464 196 q 510 497 510 394 q 488 595 510 561 q 411 629 465 629 q 279 560 331 629 q 206 392 228 492 q 183 193 183 293 q 206 96 183 129 q 283 63 228 63 m 572 776 l 454 892 l 288 776 l 256 807 l 424 997 l 517 997 l 613 804 l 572 776 m 589 958 q 603 986 590 976 q 638 1004 615 996 q 671 1023 660 1014 q 682 1049 682 1032 q 639 1078 682 1078 l 607 1076 l 589 1033 l 543 1033 l 549 1107 q 654 1118 611 1118 q 737 1101 707 1118 q 767 1053 767 1085 q 717 989 767 1011 q 688 978 707 985 q 658 964 669 972 q 644 942 647 956 l 588 942 l 589 958 z "},"ỗ":{"ha":693,"x_min":44,"x_max":701,"o":"m 44 0 m 439 706 q 597 651 544 706 q 649 496 649 597 q 599 224 649 339 q 459 48 549 108 q 253 -12 369 -12 q 44 199 44 -12 q 94 470 44 356 q 234 645 144 585 q 439 706 324 706 m 283 63 q 413 129 363 63 q 487 295 464 196 q 510 497 510 394 q 488 595 510 561 q 411 629 465 629 q 279 560 331 629 q 206 392 228 492 q 183 193 183 293 q 206 96 183 129 q 283 63 228 63 m 581 733 l 444 844 l 254 733 l 225 764 l 414 947 l 507 947 l 618 763 l 581 733 m 701 1092 q 651 992 676 1028 q 593 957 625 957 q 478 985 567 957 q 372 1011 401 1011 q 345 1000 358 1011 q 324 978 332 989 q 313 963 315 967 l 264 982 q 374 1119 315 1119 q 486 1092 403 1119 q 548 1072 518 1081 q 594 1064 578 1064 q 623 1074 610 1064 q 644 1096 636 1085 q 654 1111 653 1107 l 701 1092 z "},"ȍ":{"ha":693,"x_min":44,"x_max":649,"o":"m 44 0 m 439 706 q 597 651 544 706 q 649 496 649 597 q 599 224 649 339 q 459 48 549 108 q 253 -12 369 -12 q 44 199 44 -12 q 94 470 44 356 q 234 645 144 585 q 439 706 324 706 m 283 63 q 413 129 363 63 q 487 295 464 196 q 510 497 510 394 q 488 595 510 561 q 411 629 465 629 q 279 560 331 629 q 206 392 228 492 q 183 193 183 293 q 206 96 183 129 q 283 63 228 63 m 328 767 l 165 982 l 167 1008 l 278 1008 l 361 786 l 328 767 m 551 767 l 389 982 l 390 1008 l 501 1008 l 585 786 l 551 767 z "},"ö":{"ha":693,"x_min":44,"x_max":685,"o":"m 399 894 q 373 835 399 860 q 313 811 347 811 q 251 835 278 811 q 225 894 225 860 q 251 955 225 929 q 313 981 278 981 q 373 955 347 981 q 399 894 399 929 m 685 894 q 658 835 685 860 q 597 811 632 811 q 537 835 563 811 q 511 894 511 860 q 537 955 511 929 q 597 981 563 981 q 658 955 632 981 q 685 894 685 929 m 439 706 q 597 651 544 706 q 649 496 649 597 q 599 224 649 339 q 459 48 549 108 q 253 -12 369 -12 q 44 199 44 -12 q 94 470 44 356 q 234 645 144 585 q 439 706 324 706 m 283 63 q 413 129 363 63 q 487 295 464 196 q 510 497 510 394 q 488 595 510 561 q 411 629 465 629 q 279 560 331 629 q 206 392 228 492 q 183 193 183 293 q 206 96 183 129 q 283 63 228 63 z "},"ọ":{"ha":693,"x_min":44,"x_max":649,"o":"m 44 0 m 439 706 q 597 651 544 706 q 649 496 649 597 q 599 224 649 339 q 459 48 549 108 q 253 -12 369 -12 q 44 199 44 -12 q 94 470 44 356 q 234 645 144 585 q 439 706 324 706 m 283 63 q 413 129 363 63 q 487 295 464 196 q 510 497 510 394 q 488 595 510 561 q 411 629 465 629 q 279 560 331 629 q 206 392 228 492 q 183 193 183 293 q 206 96 183 129 q 283 63 228 63 m 253 -57 q 315 -83 288 -57 q 342 -146 342 -110 q 315 -207 342 -182 q 253 -232 289 -232 q 190 -207 217 -232 q 163 -146 163 -182 q 190 -83 163 -110 q 253 -57 217 -57 z "},"ò":{"ha":693,"x_min":44,"x_max":649,"o":"m 561 782 l 256 928 l 258 954 l 372 996 l 586 815 l 561 782 m 253 -12 q 44 199 44 -12 q 94 470 44 356 q 234 645 144 585 q 439 706 324 706 q 597 651 544 706 q 649 496 649 597 q 599 224 649 339 q 459 48 549 108 q 253 -12 369 -12 m 283 63 q 413 129 363 63 q 487 295 464 196 q 510 497 510 394 q 488 595 510 561 q 411 629 465 629 q 279 560 331 629 q 206 392 228 492 q 183 193 183 293 q 206 96 183 129 q 283 63 228 63 z "},"ỏ":{"ha":693,"x_min":44,"x_max":649,"o":"m 44 0 m 439 706 q 597 651 544 706 q 649 496 649 597 q 599 224 649 339 q 459 48 549 108 q 253 -12 369 -12 q 44 199 44 -12 q 94 470 44 356 q 234 645 144 585 q 439 706 324 706 m 283 63 q 413 129 363 63 q 487 295 464 196 q 510 497 510 394 q 488 595 510 561 q 411 629 465 629 q 279 560 331 629 q 206 392 228 492 q 183 193 183 293 q 206 96 183 129 q 283 63 228 63 m 414 788 q 428 815 415 806 q 463 833 440 825 q 496 852 485 843 q 507 878 507 861 q 464 907 507 907 l 432 906 l 414 863 l 368 863 l 374 936 q 479 947 436 947 q 562 931 532 947 q 592 882 592 914 q 542 818 592 840 q 513 808 532 814 q 483 793 494 801 q 469 771 472 785 l 413 771 l 414 788 z "},"ơ":{"ha":693,"x_min":44,"x_max":815,"o":"m 815 706 q 766 613 815 651 q 642 561 717 575 q 649 496 649 538 q 599 224 649 339 q 459 48 549 108 q 253 -12 369 -12 q 44 199 44 -12 q 94 470 44 356 q 234 645 144 585 q 439 706 324 706 q 622 618 572 706 q 676 638 658 621 q 694 690 694 654 q 688 747 694 717 l 696 765 l 797 785 q 810 744 806 767 q 815 706 815 722 m 283 63 q 413 129 363 63 q 487 295 464 196 q 510 497 510 394 q 488 595 510 561 q 411 629 465 629 q 279 560 331 629 q 206 392 228 492 q 183 193 183 293 q 206 96 183 129 q 283 63 228 63 z "},"ớ":{"ha":693,"x_min":44,"x_max":815,"o":"m 44 0 m 815 706 q 766 613 815 651 q 642 561 717 575 q 649 496 649 538 q 599 224 649 339 q 459 48 549 108 q 253 -12 369 -12 q 44 199 44 -12 q 94 470 44 356 q 234 645 144 585 q 439 706 324 706 q 622 618 572 706 q 676 638 658 621 q 694 690 694 654 q 688 747 694 717 l 696 765 l 797 785 q 810 744 806 767 q 815 706 815 722 m 283 63 q 413 129 363 63 q 487 295 464 196 q 510 497 510 394 q 488 595 510 561 q 411 629 465 629 q 279 560 331 629 q 206 392 228 492 q 183 193 183 293 q 206 96 183 129 q 283 63 228 63 m 325 781 l 299 814 l 514 994 l 629 953 l 629 926 l 325 781 z "},"ợ":{"ha":693,"x_min":44,"x_max":815,"o":"m 44 0 m 815 706 q 766 613 815 651 q 642 561 717 575 q 649 496 649 538 q 599 224 649 339 q 459 48 549 108 q 253 -12 369 -12 q 44 199 44 -12 q 94 470 44 356 q 234 645 144 585 q 439 706 324 706 q 622 618 572 706 q 676 638 658 621 q 694 690 694 654 q 688 747 694 717 l 696 765 l 797 785 q 810 744 806 767 q 815 706 815 722 m 283 63 q 413 129 363 63 q 487 295 464 196 q 510 497 510 394 q 488 595 510 561 q 411 629 465 629 q 279 560 331 629 q 206 392 228 492 q 183 193 183 293 q 206 96 183 129 q 283 63 228 63 m 253 -57 q 315 -83 288 -57 q 342 -146 342 -110 q 315 -207 342 -182 q 253 -232 289 -232 q 190 -207 217 -232 q 163 -146 163 -182 q 190 -83 163 -110 q 253 -57 217 -57 z "},"ờ":{"ha":693,"x_min":44,"x_max":815,"o":"m 44 0 m 815 706 q 766 613 815 651 q 642 561 717 575 q 649 496 649 538 q 599 224 649 339 q 459 48 549 108 q 253 -12 369 -12 q 44 199 44 -12 q 94 470 44 356 q 234 645 144 585 q 439 706 324 706 q 622 618 572 706 q 676 638 658 621 q 694 690 694 654 q 688 747 694 717 l 696 765 l 797 785 q 810 744 806 767 q 815 706 815 722 m 283 63 q 413 129 363 63 q 487 295 464 196 q 510 497 510 394 q 488 595 510 561 q 411 629 465 629 q 279 560 331 629 q 206 392 228 492 q 183 193 183 293 q 206 96 183 129 q 283 63 228 63 m 540 781 l 236 926 l 238 953 l 351 994 l 565 814 l 540 781 z "},"ở":{"ha":693,"x_min":44,"x_max":815,"o":"m 44 0 m 815 706 q 766 613 815 651 q 642 561 717 575 q 649 496 649 538 q 599 224 649 339 q 459 48 549 108 q 253 -12 369 -12 q 44 199 44 -12 q 94 470 44 356 q 234 645 144 585 q 439 706 324 706 q 622 618 572 706 q 676 638 658 621 q 694 690 694 654 q 688 747 694 717 l 696 765 l 797 785 q 810 744 806 767 q 815 706 815 722 m 283 63 q 413 129 363 63 q 487 295 464 196 q 510 497 510 394 q 488 595 510 561 q 411 629 465 629 q 279 560 331 629 q 206 392 228 492 q 183 193 183 293 q 206 96 183 129 q 283 63 228 63 m 417 786 q 431 814 418 804 q 465 832 443 824 q 499 851 488 842 q 510 876 510 860 q 467 906 510 906 l 435 904 l 417 861 l 371 861 l 376 935 q 482 946 439 946 q 565 929 535 946 q 594 881 594 913 q 544 817 594 839 q 516 806 535 813 q 486 792 497 800 q 472 769 475 783 l 415 769 l 417 786 z "},"ỡ":{"ha":693,"x_min":44,"x_max":815,"o":"m 44 0 m 815 706 q 766 613 815 651 q 642 561 717 575 q 649 496 649 538 q 599 224 649 339 q 459 48 549 108 q 253 -12 369 -12 q 44 199 44 -12 q 94 470 44 356 q 234 645 144 585 q 439 706 324 706 q 622 618 572 706 q 676 638 658 621 q 694 690 694 654 q 688 747 694 717 l 696 765 l 797 785 q 810 744 806 767 q 815 706 815 722 m 283 63 q 413 129 363 63 q 487 295 464 196 q 510 497 510 394 q 488 595 510 561 q 411 629 465 629 q 279 560 331 629 q 206 392 228 492 q 183 193 183 293 q 206 96 183 129 q 283 63 228 63 m 669 947 q 619 849 644 883 q 564 814 594 814 q 454 842 535 814 q 356 868 383 868 q 328 857 342 868 q 307 835 315 846 q 296 819 299 824 l 247 839 q 299 939 274 904 q 356 974 324 974 q 461 946 383 974 q 563 919 535 919 q 591 930 578 919 q 613 951 604 940 q 622 967 621 963 l 669 947 z "},"ő":{"ha":693,"x_min":44,"x_max":690,"o":"m 261 764 l 229 783 l 356 1006 l 467 1006 l 467 979 l 261 764 m 485 764 l 453 783 l 579 1006 l 690 1006 l 690 979 l 485 764 m 439 706 q 597 651 544 706 q 649 496 649 597 q 599 224 649 339 q 459 48 549 108 q 253 -12 369 -12 q 44 199 44 -12 q 94 470 44 356 q 234 645 144 585 q 439 706 324 706 m 283 63 q 413 129 363 63 q 487 295 464 196 q 510 497 510 394 q 488 595 510 561 q 411 629 465 629 q 279 560 331 629 q 206 392 228 492 q 183 193 183 293 q 206 96 183 129 q 283 63 228 63 z "},"ȏ":{"ha":693,"x_min":44,"x_max":649,"o":"m 44 0 m 439 706 q 597 651 544 706 q 649 496 649 597 q 599 224 649 339 q 459 48 549 108 q 253 -12 369 -12 q 44 199 44 -12 q 94 470 44 356 q 234 645 144 585 q 439 706 324 706 m 283 63 q 413 129 363 63 q 487 295 464 196 q 510 497 510 394 q 488 595 510 561 q 411 629 465 629 q 279 560 331 629 q 206 392 228 492 q 183 193 183 293 q 206 96 183 129 q 283 63 228 63 m 468 990 q 608 869 608 990 q 600 821 608 851 l 544 821 q 547 844 547 835 q 527 890 546 874 q 456 907 508 907 q 363 883 392 907 q 326 821 335 860 l 272 821 q 468 990 306 990 z "},"ō":{"ha":693,"x_min":44,"x_max":649,"o":"m 283 903 l 594 903 l 582 819 l 271 819 l 283 903 m 439 706 q 597 651 544 706 q 649 496 649 597 q 599 224 649 339 q 459 48 549 108 q 253 -12 369 -12 q 44 199 44 -12 q 94 470 44 356 q 234 645 144 585 q 439 706 324 706 m 283 63 q 413 129 363 63 q 487 295 464 196 q 510 497 510 394 q 488 595 510 561 q 411 629 465 629 q 279 560 331 629 q 206 392 228 492 q 183 193 183 293 q 206 96 183 129 q 283 63 228 63 z "},"ǫ":{"ha":693,"x_min":44,"x_max":649,"o":"m 463 50 q 383 -44 422 19 q 344 -153 344 -107 q 407 -215 344 -215 q 485 -185 449 -215 l 507 -210 q 487 -232 507 -212 q 434 -268 467 -251 q 360 -285 401 -285 q 269 -256 299 -285 q 240 -183 240 -228 q 266 -97 240 -144 q 346 -1 292 -50 q 253 -12 299 -12 q 44 199 44 -12 q 94 470 44 356 q 234 645 144 585 q 439 706 324 706 q 597 651 544 706 q 649 496 649 597 q 600 225 649 339 q 463 50 551 111 m 183 193 q 206 96 183 129 q 283 63 228 63 q 413 129 363 63 q 487 295 464 196 q 510 497 510 394 q 488 595 510 561 q 411 629 465 629 q 279 560 331 629 q 206 392 228 492 q 183 193 183 293 z "},"ø":{"ha":693,"x_min":44,"x_max":649,"o":"m 186 -7 q 44 199 44 24 q 92 464 44 351 q 223 638 139 576 q 418 706 307 700 l 456 818 l 539 818 l 500 701 q 612 633 575 686 q 649 496 649 581 q 601 228 649 342 q 467 53 553 114 q 268 -12 381 -8 l 231 -128 l 147 -128 l 186 -7 m 393 628 q 271 551 318 619 q 203 385 224 482 q 182 194 182 289 q 217 89 182 118 l 393 628 m 292 63 q 417 134 368 67 q 489 299 467 201 q 511 497 511 397 q 469 607 511 579 l 292 63 z "},"ǿ":{"ha":693,"x_min":44,"x_max":649,"o":"m 44 0 m 186 -7 q 44 199 44 24 q 92 464 44 351 q 223 638 139 576 q 418 706 307 700 l 456 818 l 539 818 l 500 701 q 612 633 575 686 q 649 496 649 581 q 601 228 649 342 q 467 53 553 114 q 268 -12 381 -8 l 231 -128 l 147 -128 l 186 -7 m 393 628 q 271 551 318 619 q 203 385 224 482 q 182 194 182 289 q 217 89 182 118 l 393 628 m 292 63 q 417 134 368 67 q 489 299 467 201 q 511 497 511 397 q 469 607 511 579 l 292 63 m 322 782 l 296 815 l 511 996 l 626 954 l 626 928 l 322 782 z "},"õ":{"ha":693,"x_min":44,"x_max":650,"o":"m 650 949 q 599 850 624 885 q 543 815 574 815 q 433 843 514 815 q 335 869 363 869 q 308 858 321 869 q 286 836 294 847 q 275 821 278 825 l 226 840 q 278 940 253 906 q 335 975 303 975 q 440 947 363 975 q 542 921 514 921 q 570 931 557 921 q 592 953 583 942 q 601 968 600 964 l 650 949 m 439 706 q 597 651 544 706 q 649 496 649 597 q 599 224 649 339 q 459 48 549 108 q 253 -12 369 -12 q 44 199 44 -12 q 94 470 44 356 q 234 645 144 585 q 439 706 324 706 m 283 63 q 413 129 363 63 q 487 295 464 196 q 510 497 510 394 q 488 595 510 561 q 411 629 465 629 q 279 560 331 629 q 206 392 228 492 q 183 193 183 293 q 206 96 183 129 q 283 63 228 63 z "},"œ":{"ha":1019,"x_min":44,"x_max":1032,"o":"m 253 -12 q 44 199 44 -12 q 94 470 44 356 q 234 645 144 585 q 439 706 324 706 q 626 603 583 706 q 878 706 726 706 q 989 671 946 706 q 1032 569 1032 636 q 928 394 1032 457 q 633 331 825 331 q 624 226 624 271 q 658 103 624 138 q 782 68 692 68 q 900 93 832 68 l 913 42 q 710 -12 815 -12 q 511 93 560 -12 q 395 15 461 42 q 253 -12 329 -12 m 283 63 q 413 129 363 63 q 487 295 464 196 q 510 497 510 394 q 488 595 510 561 q 411 629 465 629 q 279 560 331 629 q 206 392 228 492 q 183 193 183 293 q 206 96 183 129 q 283 63 228 63 m 644 386 q 839 431 768 386 q 910 557 910 475 q 894 609 910 589 q 844 629 879 629 q 719 566 771 629 q 644 386 668 503 z "},"p":{"ha":751,"x_min":29,"x_max":700,"o":"m 186 607 l 83 617 l 74 657 q 197 692 133 678 q 296 707 261 707 q 317 698 310 707 q 325 674 325 689 q 318 616 325 654 q 308 563 311 578 q 427 667 363 626 q 551 707 492 707 q 700 515 700 707 q 660 256 700 374 q 535 67 621 139 q 317 -4 449 -4 q 213 8 254 -4 l 178 -232 l 29 -253 l 186 607 m 326 68 q 470 140 418 68 q 542 309 522 213 q 561 494 561 406 q 486 614 561 614 q 389 570 449 614 q 294 481 329 526 l 228 100 q 272 77 244 86 q 326 68 300 68 z "},"þ":{"ha":722,"x_min":13,"x_max":675,"o":"m 217 911 l 113 924 l 103 963 q 226 999 163 985 q 328 1014 290 1014 q 356 982 356 1014 q 343 901 356 965 l 285 565 q 401 667 336 628 q 524 707 465 707 q 675 514 675 707 q 636 258 675 375 q 510 69 597 142 q 286 -4 422 -4 q 193 6 238 -4 l 157 -232 l 13 -253 l 217 911 m 306 68 q 444 139 392 68 q 517 308 496 210 q 538 497 538 407 q 461 614 538 614 q 366 570 426 614 q 271 482 306 526 q 207 100 246 324 q 251 78 224 88 q 306 68 279 68 z "},"q":{"ha":700,"x_min":44,"x_max":679,"o":"m 679 717 q 601 312 654 589 q 524 -92 547 35 l 508 -232 l 363 -254 l 435 117 q 321 22 386 56 q 196 -12 256 -12 q 85 30 126 -12 q 44 178 44 72 q 92 463 44 344 q 228 644 140 582 q 433 706 317 706 q 583 682 513 706 l 622 728 l 679 717 m 451 213 q 483 367 461 254 q 526 597 504 481 q 487 622 517 611 q 425 633 457 633 q 285 565 339 633 q 209 397 232 497 q 186 193 186 296 q 205 107 186 132 q 263 82 224 82 q 365 123 307 82 q 451 213 422 164 z "},"r":{"ha":551,"x_min":74,"x_max":606,"o":"m 196 603 l 93 614 l 85 654 q 207 690 142 675 q 307 704 272 704 q 328 695 321 704 q 336 672 336 686 q 321 578 336 657 l 304 485 q 431 660 364 606 q 606 714 497 714 l 564 494 l 500 494 l 485 600 q 385 517 439 585 q 274 318 332 450 l 224 8 l 74 -12 l 196 603 z "},"ŕ":{"ha":551,"x_min":74,"x_max":611,"o":"m 308 782 l 282 815 l 496 996 l 611 954 l 611 928 l 308 782 m 196 603 l 93 614 l 85 654 q 207 690 142 675 q 307 704 272 704 q 328 695 321 704 q 336 672 336 686 q 321 578 336 657 l 304 485 q 431 660 364 606 q 606 714 497 714 l 564 494 l 500 494 l 485 600 q 385 517 439 585 q 274 318 332 450 l 224 8 l 74 -12 l 196 603 z "},"ř":{"ha":551,"x_min":74,"x_max":607,"o":"m 344 776 l 236 976 l 279 1004 l 407 883 l 574 1006 l 607 974 l 439 776 l 344 776 m 196 603 l 93 614 l 85 654 q 207 690 142 675 q 307 704 272 704 q 328 695 321 704 q 336 672 336 686 q 321 578 336 657 l 304 485 q 431 660 364 606 q 606 714 497 714 l 564 494 l 500 494 l 485 600 q 385 517 439 585 q 274 318 332 450 l 224 8 l 74 -12 l 196 603 z "},"ŗ":{"ha":551,"x_min":22,"x_max":606,"o":"m 196 603 l 93 614 l 85 654 q 207 690 142 675 q 307 704 272 704 q 328 695 321 704 q 336 672 336 686 q 321 578 336 657 l 304 485 q 431 660 364 606 q 606 714 497 714 l 564 494 l 500 494 l 485 600 q 385 517 439 585 q 274 318 332 450 l 224 8 l 74 -12 l 196 603 m 64 -312 l 22 -301 l 72 -64 l 183 -40 l 207 -67 l 64 -312 z "},"ȑ":{"ha":551,"x_min":74,"x_max":606,"o":"m 74 0 m 196 603 l 93 614 l 85 654 q 207 690 142 675 q 307 704 272 704 q 328 695 321 704 q 336 672 336 686 q 321 578 336 657 l 304 485 q 431 660 364 606 q 606 714 497 714 l 564 494 l 500 494 l 485 600 q 385 517 439 585 q 274 318 332 450 l 224 8 l 74 -12 l 196 603 m 257 767 l 94 982 l 96 1008 l 207 1008 l 290 786 l 257 767 m 481 767 l 318 982 l 319 1008 l 431 1008 l 514 786 l 481 767 z "},"ṛ":{"ha":551,"x_min":32,"x_max":606,"o":"m 32 0 m 196 603 l 93 614 l 85 654 q 207 690 142 675 q 307 704 272 704 q 328 695 321 704 q 336 672 336 686 q 321 578 336 657 l 304 485 q 431 660 364 606 q 606 714 497 714 l 564 494 l 500 494 l 485 600 q 385 517 439 585 q 274 318 332 450 l 224 8 l 74 -12 l 196 603 m 122 -57 q 184 -83 157 -57 q 211 -146 211 -110 q 185 -207 211 -182 q 122 -232 158 -232 q 59 -207 86 -232 q 32 -146 32 -182 q 59 -83 32 -110 q 122 -57 86 -57 z "},"ȓ":{"ha":551,"x_min":74,"x_max":606,"o":"m 74 0 m 196 603 l 93 614 l 85 654 q 207 690 142 675 q 307 704 272 704 q 328 695 321 704 q 336 672 336 686 q 321 578 336 657 l 304 485 q 431 660 364 606 q 606 714 497 714 l 564 494 l 500 494 l 485 600 q 385 517 439 585 q 274 318 332 450 l 224 8 l 74 -12 l 196 603 m 397 990 q 538 869 538 990 q 529 821 538 851 l 474 821 q 476 844 476 835 q 456 890 475 874 q 385 907 438 907 q 292 883 321 907 q 256 821 264 860 l 201 821 q 397 990 235 990 z "}}}
